ISO-10303-21;
HEADER;
/* Generated by software containing ST-Developer
 * from STEP Tools, Inc. (www.steptools.com) 
 */
/* OPTION: using custom schema-name function */

FILE_DESCRIPTION(
/* description */ (''),
/* implementation_level */ '2;1');

FILE_NAME(
/* name */ 'DE-5000_IR_RN4871_housing-cover',
/* time_stamp */ '2026-07-04T08:43:08+02:00',
/* author */ (''),
/* organization */ (''),
/* preprocessor_version */ 'ST-DEVELOPER v19.2',
/* originating_system */ 'Rhino 8.33',
/* authorisation */ '');

FILE_SCHEMA (('CONFIG_CONTROL_DESIGN'));
ENDSEC;

DATA;
#10=SHAPE_REPRESENTATION_RELATIONSHIP('','',#414,#12);
#11=MANIFOLD_SOLID_BREP('brep_1',#13);
#12=ADVANCED_BREP_SHAPE_REPRESENTATION('brep_rep_0',(#11,#435),#413);
#13=CLOSED_SHELL('',(#14,#15,#16,#17,#18,#19,#20,#21,#22,#23,#24,#25,#26,
#27,#28,#29,#30,#31,#32,#33,#34));
#14=ADVANCED_FACE('',(#38,#35,#36,#37),#309,.T.);
#15=ADVANCED_FACE('',(#39),#310,.T.);
#16=ADVANCED_FACE('',(#40),#311,.T.);
#17=ADVANCED_FACE('',(#41),#312,.T.);
#18=ADVANCED_FACE('',(#42),#313,.T.);
#19=ADVANCED_FACE('',(#43),#314,.T.);
#20=ADVANCED_FACE('',(#44),#315,.T.);
#21=ADVANCED_FACE('',(#45),#316,.T.);
#22=ADVANCED_FACE('',(#46),#317,.T.);
#23=ADVANCED_FACE('',(#47),#318,.T.);
#24=ADVANCED_FACE('',(#48),#319,.T.);
#25=ADVANCED_FACE('',(#49),#320,.T.);
#26=ADVANCED_FACE('',(#50),#321,.T.);
#27=ADVANCED_FACE('',(#51),#322,.T.);
#28=ADVANCED_FACE('',(#52),#323,.T.);
#29=ADVANCED_FACE('',(#53),#324,.T.);
#30=ADVANCED_FACE('',(#54),#325,.T.);
#31=ADVANCED_FACE('',(#55),#326,.T.);
#32=ADVANCED_FACE('',(#56),#307,.T.);
#33=ADVANCED_FACE('',(#57),#308,.T.);
#34=ADVANCED_FACE('',(#58),#327,.T.);
#35=FACE_BOUND('',#60,.T.);
#36=FACE_BOUND('',#61,.T.);
#37=FACE_BOUND('',#62,.T.);
#38=FACE_OUTER_BOUND('',#59,.T.);
#39=FACE_OUTER_BOUND('',#63,.T.);
#40=FACE_OUTER_BOUND('',#64,.T.);
#41=FACE_OUTER_BOUND('',#65,.T.);
#42=FACE_OUTER_BOUND('',#66,.T.);
#43=FACE_OUTER_BOUND('',#67,.T.);
#44=FACE_OUTER_BOUND('',#68,.T.);
#45=FACE_OUTER_BOUND('',#69,.T.);
#46=FACE_OUTER_BOUND('',#70,.T.);
#47=FACE_OUTER_BOUND('',#71,.T.);
#48=FACE_OUTER_BOUND('',#72,.T.);
#49=FACE_OUTER_BOUND('',#73,.T.);
#50=FACE_OUTER_BOUND('',#74,.T.);
#51=FACE_OUTER_BOUND('',#75,.T.);
#52=FACE_OUTER_BOUND('',#76,.T.);
#53=FACE_OUTER_BOUND('',#77,.T.);
#54=FACE_OUTER_BOUND('',#78,.T.);
#55=FACE_OUTER_BOUND('',#79,.T.);
#56=FACE_OUTER_BOUND('',#80,.T.);
#57=FACE_OUTER_BOUND('',#81,.T.);
#58=FACE_OUTER_BOUND('',#82,.T.);
#59=EDGE_LOOP('',(#83,#84,#85,#86));
#60=EDGE_LOOP('',(#87,#88,#89,#90));
#61=EDGE_LOOP('',(#91,#92,#93,#94));
#62=EDGE_LOOP('',(#95,#96,#97,#98));
#63=EDGE_LOOP('',(#99,#100,#101,#102));
#64=EDGE_LOOP('',(#103,#104,#105,#106));
#65=EDGE_LOOP('',(#107,#108,#109,#110));
#66=EDGE_LOOP('',(#111,#112,#113,#114));
#67=EDGE_LOOP('',(#115,#116,#117,#118));
#68=EDGE_LOOP('',(#119,#120,#121,#122));
#69=EDGE_LOOP('',(#123,#124,#125,#126));
#70=EDGE_LOOP('',(#127,#128,#129,#130));
#71=EDGE_LOOP('',(#131,#132,#133,#134));
#72=EDGE_LOOP('',(#135,#136,#137,#138));
#73=EDGE_LOOP('',(#139,#140,#141,#142));
#74=EDGE_LOOP('',(#143,#144,#145,#146));
#75=EDGE_LOOP('',(#147,#148,#149,#150));
#76=EDGE_LOOP('',(#151,#152,#153,#154));
#77=EDGE_LOOP('',(#155,#156,#157,#158));
#78=EDGE_LOOP('',(#159,#160,#161,#162));
#79=EDGE_LOOP('',(#163,#164,#165,#166));
#80=EDGE_LOOP('',(#167,#168,#169,#170));
#81=EDGE_LOOP('',(#171,#172,#173,#174));
#82=EDGE_LOOP('',(#175,#176,#177,#178));
#83=ORIENTED_EDGE('',*,*,#225,.T.);
#84=ORIENTED_EDGE('',*,*,#190,.T.);
#85=ORIENTED_EDGE('',*,*,#226,.F.);
#86=ORIENTED_EDGE('',*,*,#183,.T.);
#87=ORIENTED_EDGE('',*,*,#180,.T.);
#88=ORIENTED_EDGE('',*,*,#185,.T.);
#89=ORIENTED_EDGE('',*,*,#179,.F.);
#90=ORIENTED_EDGE('',*,*,#184,.T.);
#91=ORIENTED_EDGE('',*,*,#181,.F.);
#92=ORIENTED_EDGE('',*,*,#187,.T.);
#93=ORIENTED_EDGE('',*,*,#182,.T.);
#94=ORIENTED_EDGE('',*,*,#186,.T.);
#95=ORIENTED_EDGE('',*,*,#189,.F.);
#96=ORIENTED_EDGE('',*,*,#191,.F.);
#97=ORIENTED_EDGE('',*,*,#188,.F.);
#98=ORIENTED_EDGE('',*,*,#192,.F.);
#99=ORIENTED_EDGE('',*,*,#195,.T.);
#100=ORIENTED_EDGE('',*,*,#193,.T.);
#101=ORIENTED_EDGE('',*,*,#196,.T.);
#102=ORIENTED_EDGE('',*,*,#194,.F.);
#103=ORIENTED_EDGE('',*,*,#179,.T.);
#104=ORIENTED_EDGE('',*,*,#197,.F.);
#105=ORIENTED_EDGE('',*,*,#194,.T.);
#106=ORIENTED_EDGE('',*,*,#198,.T.);
#107=ORIENTED_EDGE('',*,*,#198,.F.);
#108=ORIENTED_EDGE('',*,*,#196,.F.);
#109=ORIENTED_EDGE('',*,*,#199,.T.);
#110=ORIENTED_EDGE('',*,*,#184,.F.);
#111=ORIENTED_EDGE('',*,*,#199,.F.);
#112=ORIENTED_EDGE('',*,*,#193,.F.);
#113=ORIENTED_EDGE('',*,*,#200,.T.);
#114=ORIENTED_EDGE('',*,*,#180,.F.);
#115=ORIENTED_EDGE('',*,*,#200,.F.);
#116=ORIENTED_EDGE('',*,*,#195,.F.);
#117=ORIENTED_EDGE('',*,*,#197,.T.);
#118=ORIENTED_EDGE('',*,*,#185,.F.);
#119=ORIENTED_EDGE('',*,*,#203,.T.);
#120=ORIENTED_EDGE('',*,*,#201,.T.);
#121=ORIENTED_EDGE('',*,*,#204,.T.);
#122=ORIENTED_EDGE('',*,*,#202,.F.);
#123=ORIENTED_EDGE('',*,*,#181,.T.);
#124=ORIENTED_EDGE('',*,*,#205,.F.);
#125=ORIENTED_EDGE('',*,*,#202,.T.);
#126=ORIENTED_EDGE('',*,*,#206,.T.);
#127=ORIENTED_EDGE('',*,*,#206,.F.);
#128=ORIENTED_EDGE('',*,*,#204,.F.);
#129=ORIENTED_EDGE('',*,*,#207,.T.);
#130=ORIENTED_EDGE('',*,*,#187,.F.);
#131=ORIENTED_EDGE('',*,*,#207,.F.);
#132=ORIENTED_EDGE('',*,*,#201,.F.);
#133=ORIENTED_EDGE('',*,*,#208,.T.);
#134=ORIENTED_EDGE('',*,*,#182,.F.);
#135=ORIENTED_EDGE('',*,*,#208,.F.);
#136=ORIENTED_EDGE('',*,*,#203,.F.);
#137=ORIENTED_EDGE('',*,*,#205,.T.);
#138=ORIENTED_EDGE('',*,*,#186,.F.);
#139=ORIENTED_EDGE('',*,*,#191,.T.);
#140=ORIENTED_EDGE('',*,*,#210,.T.);
#141=ORIENTED_EDGE('',*,*,#209,.T.);
#142=ORIENTED_EDGE('',*,*,#211,.F.);
#143=ORIENTED_EDGE('',*,*,#192,.T.);
#144=ORIENTED_EDGE('',*,*,#214,.T.);
#145=ORIENTED_EDGE('',*,*,#212,.T.);
#146=ORIENTED_EDGE('',*,*,#213,.F.);
#147=ORIENTED_EDGE('',*,*,#188,.T.);
#148=ORIENTED_EDGE('',*,*,#211,.T.);
#149=ORIENTED_EDGE('',*,*,#215,.T.);
#150=ORIENTED_EDGE('',*,*,#214,.F.);
#151=ORIENTED_EDGE('',*,*,#209,.F.);
#152=ORIENTED_EDGE('',*,*,#216,.F.);
#153=ORIENTED_EDGE('',*,*,#212,.F.);
#154=ORIENTED_EDGE('',*,*,#215,.F.);
#155=ORIENTED_EDGE('',*,*,#189,.T.);
#156=ORIENTED_EDGE('',*,*,#213,.T.);
#157=ORIENTED_EDGE('',*,*,#216,.T.);
#158=ORIENTED_EDGE('',*,*,#210,.F.);
#159=ORIENTED_EDGE('',*,*,#217,.T.);
#160=ORIENTED_EDGE('',*,*,#219,.T.);
#161=ORIENTED_EDGE('',*,*,#183,.F.);
#162=ORIENTED_EDGE('',*,*,#218,.F.);
#163=ORIENTED_EDGE('',*,*,#221,.T.);
#164=ORIENTED_EDGE('',*,*,#220,.T.);
#165=ORIENTED_EDGE('',*,*,#190,.F.);
#166=ORIENTED_EDGE('',*,*,#222,.F.);
#167=ORIENTED_EDGE('',*,*,#226,.T.);
#168=ORIENTED_EDGE('',*,*,#220,.F.);
#169=ORIENTED_EDGE('',*,*,#223,.T.);
#170=ORIENTED_EDGE('',*,*,#218,.T.);
#171=ORIENTED_EDGE('',*,*,#224,.T.);
#172=ORIENTED_EDGE('',*,*,#222,.T.);
#173=ORIENTED_EDGE('',*,*,#225,.F.);
#174=ORIENTED_EDGE('',*,*,#219,.F.);
#175=ORIENTED_EDGE('',*,*,#223,.F.);
#176=ORIENTED_EDGE('',*,*,#221,.F.);
#177=ORIENTED_EDGE('',*,*,#224,.F.);
#178=ORIENTED_EDGE('',*,*,#217,.F.);
#179=EDGE_CURVE('',#276,#275,#227,.T.);
#180=EDGE_CURVE('',#277,#278,#228,.T.);
#181=EDGE_CURVE('',#280,#279,#229,.T.);
#182=EDGE_CURVE('',#281,#282,#230,.T.);
#183=EDGE_CURVE('',#287,#288,#231,.T.);
#184=EDGE_CURVE('',#276,#277,#232,.T.);
#185=EDGE_CURVE('',#278,#275,#233,.T.);
#186=EDGE_CURVE('',#282,#279,#234,.T.);
#187=EDGE_CURVE('',#280,#281,#235,.T.);
#188=EDGE_CURVE('',#286,#284,#236,.T.);
#189=EDGE_CURVE('',#283,#285,#237,.T.);
#190=EDGE_CURVE('',#290,#289,#238,.T.);
#191=EDGE_CURVE('',#284,#283,#239,.T.);
#192=EDGE_CURVE('',#285,#286,#240,.T.);
#193=EDGE_CURVE('',#292,#293,#241,.T.);
#194=EDGE_CURVE('',#291,#294,#242,.T.);
#195=EDGE_CURVE('',#291,#292,#243,.T.);
#196=EDGE_CURVE('',#293,#294,#244,.T.);
#197=EDGE_CURVE('',#291,#275,#245,.T.);
#198=EDGE_CURVE('',#294,#276,#246,.T.);
#199=EDGE_CURVE('',#293,#277,#247,.T.);
#200=EDGE_CURVE('',#292,#278,#248,.T.);
#201=EDGE_CURVE('',#296,#297,#249,.T.);
#202=EDGE_CURVE('',#295,#298,#250,.T.);
#203=EDGE_CURVE('',#295,#296,#251,.T.);
#204=EDGE_CURVE('',#297,#298,#252,.T.);
#205=EDGE_CURVE('',#295,#279,#253,.T.);
#206=EDGE_CURVE('',#298,#280,#254,.T.);
#207=EDGE_CURVE('',#297,#281,#255,.T.);
#208=EDGE_CURVE('',#296,#282,#256,.T.);
#209=EDGE_CURVE('',#300,#299,#257,.T.);
#210=EDGE_CURVE('',#283,#300,#258,.T.);
#211=EDGE_CURVE('',#284,#299,#259,.T.);
#212=EDGE_CURVE('',#301,#302,#260,.T.);
#213=EDGE_CURVE('',#285,#302,#261,.T.);
#214=EDGE_CURVE('',#286,#301,#262,.T.);
#215=EDGE_CURVE('',#299,#301,#263,.T.);
#216=EDGE_CURVE('',#302,#300,#264,.T.);
#217=EDGE_CURVE('',#305,#303,#265,.T.);
#218=EDGE_CURVE('',#305,#287,#266,.T.);
#219=EDGE_CURVE('',#303,#288,#267,.T.);
#220=EDGE_CURVE('',#306,#289,#268,.T.);
#221=EDGE_CURVE('',#304,#306,#269,.T.);
#222=EDGE_CURVE('',#304,#290,#270,.T.);
#223=EDGE_CURVE('',#306,#305,#271,.T.);
#224=EDGE_CURVE('',#303,#304,#272,.T.);
#225=EDGE_CURVE('',#288,#290,#273,.T.);
#226=EDGE_CURVE('',#287,#289,#274,.T.);
#227=B_SPLINE_CURVE_WITH_KNOTS('',1,(#623,#624),.UNSPECIFIED.,.F.,.F.,(2,
2),(26.3494311668265,30.),.UNSPECIFIED.);
#228=B_SPLINE_CURVE_WITH_KNOTS('',1,(#625,#626),.UNSPECIFIED.,.F.,.F.,(2,
2),(-5.25056883317346,-1.59999999999998),.UNSPECIFIED.);
#229=B_SPLINE_CURVE_WITH_KNOTS('',1,(#627,#628),.UNSPECIFIED.,.F.,.F.,(2,
2),(26.3494311668265,30.),.UNSPECIFIED.);
#230=B_SPLINE_CURVE_WITH_KNOTS('',1,(#629,#630),.UNSPECIFIED.,.F.,.F.,(2,
2),(-5.25056883317346,-1.59999999999998),.UNSPECIFIED.);
#231=B_SPLINE_CURVE_WITH_KNOTS('',3,(#631,#632,#633,#634,#635,#636,#637),
 .UNSPECIFIED.,.F.,.F.,(4,3,4),(-39.5972041986612,-39.570409189223,-0.00053952662315624),
 .UNSPECIFIED.);
#232=B_SPLINE_CURVE_WITH_KNOTS('',1,(#638,#639),.UNSPECIFIED.,.F.,.F.,(2,
2),(-39.2406971522571,-0.713423767502204),.UNSPECIFIED.);
#233=B_SPLINE_CURVE_WITH_KNOTS('',1,(#640,#641),.UNSPECIFIED.,.F.,.F.,(2,
2),(-81.4185393701854,-42.8912659854306),.UNSPECIFIED.);
#234=B_SPLINE_CURVE_WITH_KNOTS('',1,(#642,#643),.UNSPECIFIED.,.F.,.F.,(2,
2),(-17.7139857098723,20.8132876748826),.UNSPECIFIED.);
#235=B_SPLINE_CURVE_WITH_KNOTS('',1,(#644,#645),.UNSPECIFIED.,.F.,.F.,(2,
2),(-59.8918279278006,-21.3645545430458),.UNSPECIFIED.);
#236=B_SPLINE_CURVE_WITH_KNOTS('',1,(#646,#647),.UNSPECIFIED.,.F.,.F.,(2,
2),(-40.5579100966152,-32.3174763562581),.UNSPECIFIED.);
#237=B_SPLINE_CURVE_WITH_KNOTS('',1,(#648,#649),.UNSPECIFIED.,.F.,.F.,(2,
2),(-24.2000000000002,-15.959566259643),.UNSPECIFIED.);
#238=B_SPLINE_CURVE_WITH_KNOTS('',3,(#650,#651,#652,#653,#654,#655,#656),
 .UNSPECIFIED.,.F.,.F.,(4,3,4),(-114.945164696777,-75.3752701928283,-75.3485000260036),
 .UNSPECIFIED.);
#239=B_SPLINE_CURVE_WITH_KNOTS('',1,(#657,#658,#659),.UNSPECIFIED.,.F.,
 .F.,(2,1,2),(-7.18698595563168,0.,0.930490400626173),.UNSPECIFIED.);
#240=B_SPLINE_CURVE_WITH_KNOTS('',1,(#660,#661,#662),.UNSPECIFIED.,.F.,
 .F.,(2,1,2),(-16.1000000000001,-15.1695095993739,-8.1000000000001),
 .UNSPECIFIED.);
#241=B_SPLINE_CURVE_WITH_KNOTS('',1,(#663,#664),.UNSPECIFIED.,.F.,.F.,(2,
2),(1.59999999999998,5.25056883317348),.UNSPECIFIED.);
#242=B_SPLINE_CURVE_WITH_KNOTS('',1,(#665,#666),.UNSPECIFIED.,.F.,.F.,(2,
2),(-30.,-26.3494311668265),.UNSPECIFIED.);
#243=B_SPLINE_CURVE_WITH_KNOTS('',1,(#667,#668),.UNSPECIFIED.,.F.,.F.,(2,
2),(-39.16540303461,-0.638129649855152),.UNSPECIFIED.);
#244=B_SPLINE_CURVE_WITH_KNOTS('',1,(#669,#670),.UNSPECIFIED.,.F.,.F.,(2,
2),(0.638129649855142,39.16540303461),.UNSPECIFIED.);
#245=B_SPLINE_CURVE_WITH_KNOTS('',1,(#671,#672),.UNSPECIFIED.,.F.,.F.,(2,
2),(2.77727731878558,4.77869411799365),.UNSPECIFIED.);
#246=B_SPLINE_CURVE_WITH_KNOTS('',1,(#673,#674),.UNSPECIFIED.,.F.,.F.,(2,
2),(2.77727731878558,4.77869411799364),.UNSPECIFIED.);
#247=B_SPLINE_CURVE_WITH_KNOTS('',1,(#675,#676),.UNSPECIFIED.,.F.,.F.,(2,
2),(1.32786555407969,3.32928235328776),.UNSPECIFIED.);
#248=B_SPLINE_CURVE_WITH_KNOTS('',1,(#677,#678),.UNSPECIFIED.,.F.,.F.,(2,
2),(1.32786555407969,3.32928235328776),.UNSPECIFIED.);
#249=B_SPLINE_CURVE_WITH_KNOTS('',1,(#679,#680),.UNSPECIFIED.,.F.,.F.,(2,
2),(1.59999999999998,5.25056883317348),.UNSPECIFIED.);
#250=B_SPLINE_CURVE_WITH_KNOTS('',1,(#681,#682),.UNSPECIFIED.,.F.,.F.,(2,
2),(-30.,-26.3494311668265),.UNSPECIFIED.);
#251=B_SPLINE_CURVE_WITH_KNOTS('',1,(#683,#684),.UNSPECIFIED.,.F.,.F.,(2,
2),(-39.16540303461,-0.638129649855152),.UNSPECIFIED.);
#252=B_SPLINE_CURVE_WITH_KNOTS('',1,(#685,#686),.UNSPECIFIED.,.F.,.F.,(2,
2),(0.638129649855142,39.16540303461),.UNSPECIFIED.);
#253=B_SPLINE_CURVE_WITH_KNOTS('',1,(#687,#688),.UNSPECIFIED.,.F.,.F.,(2,
2),(2.77727731878558,4.77869411799365),.UNSPECIFIED.);
#254=B_SPLINE_CURVE_WITH_KNOTS('',1,(#689,#690),.UNSPECIFIED.,.F.,.F.,(2,
2),(2.77727731878558,4.77869411799364),.UNSPECIFIED.);
#255=B_SPLINE_CURVE_WITH_KNOTS('',1,(#691,#692),.UNSPECIFIED.,.F.,.F.,(2,
2),(1.32786555407969,3.32928235328776),.UNSPECIFIED.);
#256=B_SPLINE_CURVE_WITH_KNOTS('',1,(#693,#694),.UNSPECIFIED.,.F.,.F.,(2,
2),(1.32786555407969,3.32928235328776),.UNSPECIFIED.);
#257=B_SPLINE_CURVE_WITH_KNOTS('',1,(#695,#696),.UNSPECIFIED.,.F.,.F.,(2,
2),(24.2000000000002,32.2000000000002),.UNSPECIFIED.);
#258=B_SPLINE_CURVE_WITH_KNOTS('',1,(#697,#698),.UNSPECIFIED.,.F.,.F.,(2,
2),(7.02478278688885,7.99999999999998),.UNSPECIFIED.);
#259=B_SPLINE_CURVE_WITH_KNOTS('',1,(#699,#700),.UNSPECIFIED.,.F.,.F.,(2,
2),(7.02478278688886,7.99999999999998),.UNSPECIFIED.);
#260=B_SPLINE_CURVE_WITH_KNOTS('',1,(#701,#702),.UNSPECIFIED.,.F.,.F.,(2,
2),(8.1000000000001,16.1000000000001),.UNSPECIFIED.);
#261=B_SPLINE_CURVE_WITH_KNOTS('',1,(#703,#704),.UNSPECIFIED.,.F.,.F.,(2,
2),(6.30477402304293,7.99999999999998),.UNSPECIFIED.);
#262=B_SPLINE_CURVE_WITH_KNOTS('',1,(#705,#706),.UNSPECIFIED.,.F.,.F.,(2,
2),(6.30477402304293,7.99999999999998),.UNSPECIFIED.);
#263=B_SPLINE_CURVE_WITH_KNOTS('',1,(#707,#708),.UNSPECIFIED.,.F.,.F.,(2,
2),(0.,8.1000000000001),.UNSPECIFIED.);
#264=B_SPLINE_CURVE_WITH_KNOTS('',1,(#709,#710),.UNSPECIFIED.,.F.,.F.,(2,
2),(16.1000000000001,24.2000000000002),.UNSPECIFIED.);
#265=B_SPLINE_CURVE_WITH_KNOTS('',1,(#711,#712,#713),.UNSPECIFIED.,.F.,
 .F.,(2,1,2),(-39.5972041986612,-24.9044088075664,-0.000539526623147157),
 .UNSPECIFIED.);
#266=B_SPLINE_CURVE_WITH_KNOTS('',1,(#714,#715),.UNSPECIFIED.,.F.,.F.,(2,
2),(0.,0.999999999999992),.UNSPECIFIED.);
#267=B_SPLINE_CURVE_WITH_KNOTS('',1,(#716,#717),.UNSPECIFIED.,.F.,.F.,(2,
2),(0.,0.999999999999992),.UNSPECIFIED.);
#268=B_SPLINE_CURVE_WITH_KNOTS('',1,(#718,#719),.UNSPECIFIED.,.F.,.F.,(2,
2),(0.,0.999999999999992),.UNSPECIFIED.);
#269=B_SPLINE_CURVE_WITH_KNOTS('',3,(#720,#721,#722,#723,#724,#725,#726,
#727,#728,#729,#730,#731,#732),.UNSPECIFIED.,.F.,.F.,(4,3,3,3,4),(0.000539526622716835,
24.9044088075664,39.0968499988607,39.1238414945254,39.5972046132758),
 .UNSPECIFIED.);
#270=B_SPLINE_CURVE_WITH_KNOTS('',1,(#733,#734),.UNSPECIFIED.,.F.,.F.,(2,
2),(0.,0.999999999999992),.UNSPECIFIED.);
#271=B_SPLINE_CURVE_WITH_KNOTS('',3,(#735,#736,#737,#738,#739,#740,#741,
#742,#743,#744,#745,#746,#747,#748,#749,#750,#751,#752,#753,#754,#755,#756,
#757,#758,#759,#760),.UNSPECIFIED.,.F.,.F.,(4,2,3,3,3,3,3,3,2,4),(0.,0.942323404406849,
0.971151934830674,1.91112798704188,1.94191699053079,33.8093788368118,33.8401761616026,
34.7801438925119,34.80899010278,35.7512958273425),.UNSPECIFIED.);
#272=B_SPLINE_CURVE_WITH_KNOTS('',3,(#761,#762,#763,#764,#765,#766,#767,
#768,#769,#770,#771,#772,#773,#774,#775,#776,#777,#778,#779,#780,#781,#782,
#783,#784,#785,#786,#787,#788,#789,#790),.UNSPECIFIED.,.F.,.F.,(4,3,2,2,
3,3,3,3,2,2,3,4),(-0.00053952662315624,0.0371075322004273,1.00905583945509,
1.04457985236699,2.01877960323803,2.05218030023499,33.752180300235,33.7855809972319,
34.7597807481029,34.7953047610149,35.7672530682695,35.8049001270931),
 .UNSPECIFIED.);
#273=B_SPLINE_CURVE_WITH_KNOTS('',3,(#791,#792,#793,#794,#795,#796,#797,
#798,#799,#800,#801,#802,#803,#804,#805,#806,#807,#808,#809,#810,#811,#812,
#813,#814,#815,#816,#817,#818,#819,#820),.UNSPECIFIED.,.F.,.F.,(4,3,2,2,
3,3,3,3,2,2,3,4),(-150.750604350493,-150.71295729167,-149.741008984415,
-149.705484971503,-148.731285220632,-148.697884523635,-116.997884523635,
-116.964483826638,-115.990284075767,-115.954760062855,-114.982811755601,
-114.945164696777),.UNSPECIFIED.);
#274=B_SPLINE_CURVE_WITH_KNOTS('',3,(#821,#822,#823,#824,#825,#826,#827,
#828,#829,#830,#831,#832,#833,#834,#835,#836,#837,#838,#839,#840,#841,#842,
#843,#844,#845,#846),.UNSPECIFIED.,.F.,.F.,(4,2,3,3,3,3,3,3,2,4),(39.5972041986612,
40.5395099232236,40.5683561334917,41.5083238644011,41.5391211891919,73.4065830354729,
73.4373720389618,74.377348091173,74.4061766215968,75.3485000260036),
 .UNSPECIFIED.);
#275=VERTEX_POINT('',#591);
#276=VERTEX_POINT('',#592);
#277=VERTEX_POINT('',#593);
#278=VERTEX_POINT('',#594);
#279=VERTEX_POINT('',#595);
#280=VERTEX_POINT('',#596);
#281=VERTEX_POINT('',#597);
#282=VERTEX_POINT('',#598);
#283=VERTEX_POINT('',#599);
#284=VERTEX_POINT('',#600);
#285=VERTEX_POINT('',#601);
#286=VERTEX_POINT('',#602);
#287=VERTEX_POINT('',#603);
#288=VERTEX_POINT('',#604);
#289=VERTEX_POINT('',#605);
#290=VERTEX_POINT('',#606);
#291=VERTEX_POINT('',#607);
#292=VERTEX_POINT('',#608);
#293=VERTEX_POINT('',#609);
#294=VERTEX_POINT('',#610);
#295=VERTEX_POINT('',#611);
#296=VERTEX_POINT('',#612);
#297=VERTEX_POINT('',#613);
#298=VERTEX_POINT('',#614);
#299=VERTEX_POINT('',#615);
#300=VERTEX_POINT('',#616);
#301=VERTEX_POINT('',#617);
#302=VERTEX_POINT('',#618);
#303=VERTEX_POINT('',#619);
#304=VERTEX_POINT('',#620);
#305=VERTEX_POINT('',#621);
#306=VERTEX_POINT('',#622);
#307=B_SPLINE_SURFACE_WITH_KNOTS('',3,1,((#478,#479),(#480,#481),(#482,
#483),(#484,#485),(#486,#487),(#488,#489),(#490,#491),(#492,#493),(#494,
#495),(#496,#497),(#498,#499),(#500,#501),(#502,#503),(#504,#505),(#506,
#507),(#508,#509),(#510,#511),(#512,#513),(#514,#515),(#516,#517),(#518,
#519),(#520,#521),(#522,#523),(#524,#525),(#526,#527),(#528,#529)),
 .UNSPECIFIED.,.F.,.F.,.F.,(4,2,3,3,3,3,3,3,2,4),(2,2),(-35.7512958273425,
-34.80899010278,-34.7801438925119,-33.8401761616026,-33.8093788368118,-1.94191699053079,
-1.91112798704188,-0.971151934830674,-0.942323404406849,0.),(-0.999999999999992,
0.),.UNSPECIFIED.);
#308=B_SPLINE_SURFACE_WITH_KNOTS('',3,1,((#530,#531),(#532,#533),(#534,
#535),(#536,#537),(#538,#539),(#540,#541),(#542,#543),(#544,#545),(#546,
#547),(#548,#549),(#550,#551),(#552,#553),(#554,#555),(#556,#557),(#558,
#559),(#560,#561),(#562,#563),(#564,#565),(#566,#567),(#568,#569),(#570,
#571),(#572,#573),(#574,#575),(#576,#577),(#578,#579),(#580,#581),(#582,
#583),(#584,#585),(#586,#587),(#588,#589)),.UNSPECIFIED.,.F.,.F.,.F.,(4,
3,2,2,3,3,3,3,2,2,3,4),(2,2),(-0.00053952662315624,0.0371075322004273,1.00905583945509,
1.04457985236699,2.01877960323803,2.05218030023499,33.752180300235,33.7855809972319,
34.7597807481029,34.7953047610149,35.7672530682695,35.8049001270931),(0.,
0.999999999999992),.UNSPECIFIED.);
#309=PLANE('',#416);
#310=PLANE('',#417);
#311=PLANE('',#418);
#312=PLANE('',#419);
#313=PLANE('',#420);
#314=PLANE('',#421);
#315=PLANE('',#422);
#316=PLANE('',#423);
#317=PLANE('',#424);
#318=PLANE('',#425);
#319=PLANE('',#426);
#320=PLANE('',#427);
#321=PLANE('',#428);
#322=PLANE('',#429);
#323=PLANE('',#430);
#324=PLANE('',#431);
#325=PLANE('',#432);
#326=PLANE('',#433);
#327=PLANE('',#434);
#328=SHAPE_DEFINITION_REPRESENTATION(#329,#414);
#329=PRODUCT_DEFINITION_SHAPE($,$,#331);
#330=PRODUCT_DEFINITION_CONTEXT('3D Mechanical Parts',#403,'design');
#331=PRODUCT_DEFINITION('A','First version',#373,#330);
#332=DATE_TIME_ROLE('classification_date');
#333=DATE_TIME_ROLE('creation_date');
#334=APPLIED_DATE_AND_TIME_ASSIGNMENT(#358,#332,(#337));
#335=APPLIED_DATE_AND_TIME_ASSIGNMENT(#360,#333,(#331));
#336=SECURITY_CLASSIFICATION_LEVEL('unclassified');
#337=SECURITY_CLASSIFICATION('A','Security for version',#336);
#338=APPLIED_SECURITY_CLASSIFICATION_ASSIGNMENT(#337,(#373));
#339=APPROVAL_ROLE('Version approval');
#340=APPROVAL_ROLE('Version Security approval');
#341=APPROVAL_ROLE('Definition approval');
#342=APPROVAL_PERSON_ORGANIZATION(#391,#367,#339);
#343=APPROVAL_PERSON_ORGANIZATION(#392,#368,#340);
#344=APPROVAL_PERSON_ORGANIZATION(#395,#369,#341);
#345=COORDINATED_UNIVERSAL_TIME_OFFSET(5,0,.BEHIND.);
#346=LOCAL_TIME(0,0,0.,#345);
#347=LOCAL_TIME(0,0,0.,#345);
#348=LOCAL_TIME(0,0,0.,#345);
#349=LOCAL_TIME(0,0,0.,#345);
#350=LOCAL_TIME(0,0,0.,#345);
#351=CALENDAR_DATE(1999,1,1);
#352=CALENDAR_DATE(1999,1,1);
#353=CALENDAR_DATE(1999,1,1);
#354=CALENDAR_DATE(1999,1,1);
#355=CALENDAR_DATE(1999,1,1);
#356=DATE_AND_TIME(#351,#346);
#357=DATE_AND_TIME(#352,#347);
#358=DATE_AND_TIME(#353,#348);
#359=DATE_AND_TIME(#354,#349);
#360=DATE_AND_TIME(#355,#350);
#361=APPROVAL_DATE_TIME(#356,#367);
#362=APPROVAL_DATE_TIME(#357,#368);
#363=APPROVAL_DATE_TIME(#359,#369);
#364=APPROVAL_STATUS('not_yet_approved');
#365=APPROVAL_STATUS('not_yet_approved');
#366=APPROVAL_STATUS('approved');
#367=APPROVAL(#364,'Version approval');
#368=APPROVAL(#365,'Version Security approval');
#369=APPROVAL(#366,'Definition approval');
#370=APPLIED_APPROVAL_ASSIGNMENT(#367,(#373));
#371=APPLIED_APPROVAL_ASSIGNMENT(#368,(#337));
#372=APPLIED_APPROVAL_ASSIGNMENT(#369,(#331));
#373=PRODUCT_DEFINITION_FORMATION_WITH_SPECIFIED_SOURCE('A',
'First version',#405,.MADE.);
#374=PERSON_AND_ORGANIZATION_ROLE('design_owner');
#375=PERSON_AND_ORGANIZATION_ROLE('creator');
#376=PERSON_AND_ORGANIZATION_ROLE('design_supplier');
#377=PERSON_AND_ORGANIZATION_ROLE('classification_officer');
#378=PERSON_AND_ORGANIZATION_ROLE('creator');
#379=ORGANIZATION('STI','lab','lab');
#380=ORGANIZATION('STI','unknown','unknown');
#381=ORGANIZATION('STI','unknown','unknown');
#382=ORGANIZATION('STI','unknown','unknown');
#383=ORGANIZATION('STI','unknown','unknown');
#384=ORGANIZATION('STI','unknown','unknown');
#385=ORGANIZATION('STI','unknown','unknown');
#386=PERSON('1','Box','vc60',$,$,$);
#387=PERSON('2','last','first',$,$,$);
#388=PERSON('3','President','Mr.',$,$,$);
#389=PERSON_AND_ORGANIZATION(#386,#379);
#390=PERSON_AND_ORGANIZATION(#387,#380);
#391=PERSON_AND_ORGANIZATION(#388,#381);
#392=PERSON_AND_ORGANIZATION(#388,#382);
#393=PERSON_AND_ORGANIZATION(#388,#383);
#394=PERSON_AND_ORGANIZATION(#387,#384);
#395=PERSON_AND_ORGANIZATION(#388,#385);
#396=APPLIED_PERSON_AND_ORGANIZATION_ASSIGNMENT(#389,#374,(#405));
#397=APPLIED_PERSON_AND_ORGANIZATION_ASSIGNMENT(#390,#375,(#373));
#398=APPLIED_PERSON_AND_ORGANIZATION_ASSIGNMENT(#390,#376,(#373));
#399=APPLIED_PERSON_AND_ORGANIZATION_ASSIGNMENT(#393,#377,(#337));
#400=APPLIED_PERSON_AND_ORGANIZATION_ASSIGNMENT(#394,#378,(#331));
#401=PRODUCT_RELATED_PRODUCT_CATEGORY('detail','detail',(#405));
#402=APPLICATION_PROTOCOL_DEFINITION('International Standard',
'config_control_design',1994,#403);
#403=APPLICATION_CONTEXT(
'configuration controlled 3d designs of mechanical parts and assemblie
s');
#404=PRODUCT_CONTEXT('3D Mechanical Parts',#403,'mechanical');
#405=PRODUCT('Document','Document','',(#404));
#406=(
LENGTH_UNIT()
NAMED_UNIT(*)
SI_UNIT(.MILLI.,.METRE.)
);
#407=(
NAMED_UNIT(*)
PLANE_ANGLE_UNIT()
SI_UNIT($,.RADIAN.)
);
#408=DIMENSIONAL_EXPONENTS(0.,0.,0.,0.,0.,0.,0.);
#409=PLANE_ANGLE_MEASURE_WITH_UNIT(PLANE_ANGLE_MEASURE(0.01745329252),#407);
#410=(
CONVERSION_BASED_UNIT('DEGREES',#409)
NAMED_UNIT(#408)
PLANE_ANGLE_UNIT()
);
#411=(
NAMED_UNIT(*)
SI_UNIT($,.STERADIAN.)
SOLID_ANGLE_UNIT()
);
#412=UNCERTAINTY_MEASURE_WITH_UNIT(LENGTH_MEASURE(0.001),#406,
'DISTANCE_ACCURACY_VALUE',
'Maximum model space distance between geometric entities at asserted c
onnectivities');
#413=(
GEOMETRIC_REPRESENTATION_CONTEXT(3)
GLOBAL_UNCERTAINTY_ASSIGNED_CONTEXT((#412))
GLOBAL_UNIT_ASSIGNED_CONTEXT((#411,#410,#406))
REPRESENTATION_CONTEXT('ID1','3D')
);
#414=SHAPE_REPRESENTATION('Document',(#415,#435),#413);
#415=AXIS2_PLACEMENT_3D($,#459,#436,#437);
#416=AXIS2_PLACEMENT_3D('',#460,#438,$);
#417=AXIS2_PLACEMENT_3D('',#461,#439,$);
#418=AXIS2_PLACEMENT_3D('',#462,#440,$);
#419=AXIS2_PLACEMENT_3D('',#463,#441,$);
#420=AXIS2_PLACEMENT_3D('',#464,#442,$);
#421=AXIS2_PLACEMENT_3D('',#465,#443,$);
#422=AXIS2_PLACEMENT_3D('',#466,#444,$);
#423=AXIS2_PLACEMENT_3D('',#467,#445,$);
#424=AXIS2_PLACEMENT_3D('',#468,#446,$);
#425=AXIS2_PLACEMENT_3D('',#469,#447,$);
#426=AXIS2_PLACEMENT_3D('',#470,#448,$);
#427=AXIS2_PLACEMENT_3D('',#471,#449,$);
#428=AXIS2_PLACEMENT_3D('',#472,#450,$);
#429=AXIS2_PLACEMENT_3D('',#473,#451,$);
#430=AXIS2_PLACEMENT_3D('',#474,#452,$);
#431=AXIS2_PLACEMENT_3D('',#475,#453,$);
#432=AXIS2_PLACEMENT_3D('',#476,#454,$);
#433=AXIS2_PLACEMENT_3D('',#477,#455,$);
#434=AXIS2_PLACEMENT_3D('',#590,#456,$);
#435=AXIS2_PLACEMENT_3D($,#847,#457,#458);
#436=DIRECTION('',(0.,0.,1.));
#437=DIRECTION('',(1.,0.,0.));
#438=DIRECTION('',(0.,0.037620408541016,-0.999292101870723));
#439=DIRECTION('',(0.,0.0376204085410159,-0.999292101870723));
#440=DIRECTION('',(0.,1.,0.));
#441=DIRECTION('',(-1.,0.,0.));
#442=DIRECTION('',(0.,-1.,0.));
#443=DIRECTION('',(1.,0.,0.));
#444=DIRECTION('',(0.,0.0376204085410159,-0.999292101870723));
#445=DIRECTION('',(0.,1.,0.));
#446=DIRECTION('',(-1.,0.,0.));
#447=DIRECTION('',(0.,-1.,0.));
#448=DIRECTION('',(1.,0.,0.));
#449=DIRECTION('',(0.,-1.,0.));
#450=DIRECTION('',(0.,1.,0.));
#451=DIRECTION('',(1.,0.,0.));
#452=DIRECTION('',(0.,0.,-1.));
#453=DIRECTION('',(-1.,0.,0.));
#454=DIRECTION('',(1.,0.,0.));
#455=DIRECTION('',(-1.,0.,0.));
#456=DIRECTION('',(-2.82580155425491E-17,-0.0376204085410159,0.999292101870723));
#457=DIRECTION('',(0.,0.,1.));
#458=DIRECTION('',(1.,0.,0.));
#459=CARTESIAN_POINT('',(0.,0.,0.));
#460=CARTESIAN_POINT('',(31.0579999999999,5.07028738608081,13.6368086830356));
#461=CARTESIAN_POINT('',(31.0579999999998,-38.3133988959096,10.0021236943878));
#462=CARTESIAN_POINT('',(60.3494311668265,2.49999999999969,8.76135080462474));
#463=CARTESIAN_POINT('',(60.3494311668265,2.49999999999969,8.76135080462474));
#464=CARTESIAN_POINT('',(60.3494311668265,-36.,8.76135080462474));
#465=CARTESIAN_POINT('',(64.,-36.,8.76135080462474));
#466=CARTESIAN_POINT('',(3.70856883317324,-38.3133988959096,10.0021236943878));
#467=CARTESIAN_POINT('',(33.,2.49999999999969,8.76135080462474));
#468=CARTESIAN_POINT('',(33.,2.49999999999969,8.76135080462474));
#469=CARTESIAN_POINT('',(33.,-36.,8.76135080462474));
#470=CARTESIAN_POINT('',(36.6505688331735,-36.,8.76135080462474));
#471=CARTESIAN_POINT('',(46.1459526643464,-3.58889587091146,10.2862106875858));
#472=CARTESIAN_POINT('',(38.0130140443683,-11.8234962236394,10.2862106875858));
#473=CARTESIAN_POINT('',(38.0130140443683,-3.58889587091146,10.2862106875858));
#474=CARTESIAN_POINT('',(38.0130140443683,-3.58889587091146,13.7307074707805));
#475=CARTESIAN_POINT('',(46.1459526643464,-11.8234962236394,10.2862106875858));
#476=CARTESIAN_POINT('',(65.5999999999999,2.80589016678083,14.8912641323814));
#477=CARTESIAN_POINT('',(31.4000000000009,-36.7627441004107,13.4016214305579));
#478=CARTESIAN_POINT('',(65.5999999999999,2.85625467573254,13.5534568633519));
#479=CARTESIAN_POINT('',(65.5999999999999,2.80589016678083,14.8912641323814));
#480=CARTESIAN_POINT('',(65.5932755585683,3.16522532537158,13.5650886995736));
#481=CARTESIAN_POINT('',(65.5999999999999,3.11608322819871,14.9029419888113));
#482=CARTESIAN_POINT('',(65.4709881781761,3.4605369962211,13.5762063154173));
#483=CARTESIAN_POINT('',(65.4846772304947,3.41490505098521,14.9141917515515));
#484=CARTESIAN_POINT('',(65.2501309725714,3.69113640931055,13.5848877050866));
#485=CARTESIAN_POINT('',(65.2705805657143,3.65153880226755,14.9231003163056));
#486=CARTESIAN_POINT('',(65.243499931,3.69790293720523,13.5851424449602));
#487=CARTESIAN_POINT('',(65.264134630616,3.65850269086341,14.9233624862292));
#488=CARTESIAN_POINT('',(65.2367996304462,3.70458577082609,13.5853940339907));
#489=CARTESIAN_POINT('',(65.2576027494247,3.66540005575034,14.9236221517309));
#490=CARTESIAN_POINT('',(65.0184670921553,3.92234914065022,13.5935921843841));
#491=CARTESIAN_POINT('',(65.0447604946898,3.89015164740772,14.9320833881227));
#492=CARTESIAN_POINT('',(64.7265944117036,4.05124477680135,13.5984447259803));
#493=CARTESIAN_POINT('',(64.7563169996223,4.02772333434237,14.9372625575131));
#494=CARTESIAN_POINT('',(64.4179884012215,4.06678392861011,13.5990297293425));
#495=CARTESIAN_POINT('',(64.4483229604173,4.0520176047443,14.93817716534));
#496=CARTESIAN_POINT('',(64.4077601319726,4.06734107627837,13.5990507043136));
#497=CARTESIAN_POINT('',(64.4382317709571,4.05281358795896,14.938207131767));
#498=CARTESIAN_POINT('',(64.3975318407852,4.06789768654703,13.5990716590531));
#499=CARTESIAN_POINT('',(64.4281195940822,4.0534879684134,14.9382325202076));
#500=CARTESIAN_POINT('',(64.3873035277018,4.06845375941609,13.5990925935611));
#501=CARTESIAN_POINT('',(64.4179884012215,4.05403982819941,14.9382532961054));
#502=CARTESIAN_POINT('',(53.8035798065038,4.64384889710971,13.6207545281567));
#503=CARTESIAN_POINT('',(53.8138562627876,4.63166125671928,14.9599990440027));
#504=CARTESIAN_POINT('',(43.1964118903177,4.64384874686125,13.6207545225003));
#505=CARTESIAN_POINT('',(43.1861437372121,4.63166125671928,14.9599990440027));
#506=CARTESIAN_POINT('',(32.6126881813622,4.06845330867061,13.599092576592));
#507=CARTESIAN_POINT('',(32.5820115987783,4.05403982819944,14.9382532961055));
#508=CARTESIAN_POINT('',(32.6024626319359,4.06789738575967,13.5990716477295));
#509=CARTESIAN_POINT('',(32.5718831433214,4.05348811752351,14.9382325258213));
#510=CARTESIAN_POINT('',(32.5922371043938,4.06734092573949,13.5990506986463));
#511=CARTESIAN_POINT('',(32.5617736935755,4.05281395237932,14.9382071454864));
#512=CARTESIAN_POINT('',(32.5820115987783,4.06678392861008,13.5990297293427));
#513=CARTESIAN_POINT('',(32.5516852193722,4.0520182499312,14.9381771896295));
#514=CARTESIAN_POINT('',(32.2734030656534,4.05124754934773,13.5984448303587));
#515=CARTESIAN_POINT('',(32.2436881074212,4.02772577011187,14.9372626492128));
#516=CARTESIAN_POINT('',(31.9815260999473,3.92235335803337,13.5935923431563));
#517=CARTESIAN_POINT('',(31.9552413895498,3.8901536370781,14.932083463028));
#518=CARTESIAN_POINT('',(31.7631914878825,3.70458760061807,13.5853941028771));
#519=CARTESIAN_POINT('',(31.742397250575,3.66540005575045,14.923622151731));
#520=CARTESIAN_POINT('',(31.7564952896212,3.69790884880504,13.5851426675147));
#521=CARTESIAN_POINT('',(31.7358693727742,3.65850691825894,14.9233626453784));
#522=CARTESIAN_POINT('',(31.749868266326,3.69114650315437,13.5848880850902));
#523=CARTESIAN_POINT('',(31.7294273357459,3.6515473385783,14.9231006376727));
#524=CARTESIAN_POINT('',(31.5290080492,3.46054989353738,13.5762068009635));
#525=CARTESIAN_POINT('',(31.5153270969917,3.41491626416438,14.9141921736948));
#526=CARTESIAN_POINT('',(31.4067184916679,3.16523203106811,13.5650889520235));
#527=CARTESIAN_POINT('',(31.3999999999999,3.11608904814112,14.9029422079151));
#528=CARTESIAN_POINT('',(31.3999999999999,2.85625467573254,13.553456863352));
#529=CARTESIAN_POINT('',(31.3999999999999,2.80589016678084,14.8912641323816));
#530=CARTESIAN_POINT('',(65.6000000000009,-36.7627441004102,13.4016214305578));
#531=CARTESIAN_POINT('',(65.6000000000009,-36.7123795914585,12.0638141615282));
#532=CARTESIAN_POINT('',(65.6000000000009,-36.7751003459992,13.4011562542532));
#533=CARTESIAN_POINT('',(65.600000000001,-36.7249197276388,12.0633420622838));
#534=CARTESIAN_POINT('',(65.5998170446187,-36.7874378503359,13.4006917835017));
#535=CARTESIAN_POINT('',(65.600000000001,-36.7374598638192,12.0628699630393));
#536=CARTESIAN_POINT('',(65.599452626924,-36.7997529864091,13.4002281548496));
#537=CARTESIAN_POINT('',(65.6000000000011,-36.7499999999995,12.0623978637949));
#538=CARTESIAN_POINT('',(65.590044317947,-37.1176974961268,13.3882584791896));
#539=CARTESIAN_POINT('',(65.6,-37.0696780904478,12.0503629239192));
#540=CARTESIAN_POINT('',(65.4596846725536,-37.4207327316964,13.3768500938505));
#541=CARTESIAN_POINT('',(65.4775389802601,-37.3768117405856,12.0388002453258));
#542=CARTESIAN_POINT('',(65.2258206136394,-37.6546938231318,13.3680421468788));
#543=CARTESIAN_POINT('',(65.250466095784,-37.6170624455869,12.0297555129022));
#544=CARTESIAN_POINT('',(65.2174709470389,-37.6628163373065,13.3677363581099));
#545=CARTESIAN_POINT('',(65.2423303344182,-37.6254331518951,12.0294403804294));
#546=CARTESIAN_POINT('',(64.9772874167086,-37.8900400806622,13.3591820524777));
#547=CARTESIAN_POINT('',(65.0074497260503,-37.8604112145607,12.020594147482));
#548=CARTESIAN_POINT('',(64.6700101879022,-38.0127441004107,13.3545626070284));
#549=CARTESIAN_POINT('',(64.7026700805207,-37.9911481168927,12.0156722876295));
#550=CARTESIAN_POINT('',(64.35,-38.0127441004107,13.3545626070284));
#551=CARTESIAN_POINT('',(64.3829366253586,-37.9995665279547,12.0153553592131));
#552=CARTESIAN_POINT('',(64.3388898467546,-38.0127441004107,13.3545626070284));
#553=CARTESIAN_POINT('',(64.3719744789958,-37.9998551554121,12.0153444932382));
#554=CARTESIAN_POINT('',(64.3277796935093,-38.0127441004107,13.3545626070284));
#555=CARTESIAN_POINT('',(64.3609947547375,-38.,12.0153390402655));
#556=CARTESIAN_POINT('',(64.316669540264,-38.0127441004107,13.3545626070284));
#557=CARTESIAN_POINT('',(64.35,-38.,12.0153390402655));
#558=CARTESIAN_POINT('',(53.7722231800879,-38.0127441004107,13.3545626070284));
#559=CARTESIAN_POINT('',(53.7833333333333,-38.,12.0153390402655));
#560=CARTESIAN_POINT('',(43.2277768199119,-38.0127441004107,13.3545626070284));
#561=CARTESIAN_POINT('',(43.2166666666666,-38.,12.0153390402656));
#562=CARTESIAN_POINT('',(32.6833304597359,-38.0127441004107,13.3545626070285));
#563=CARTESIAN_POINT('',(32.65,-38.,12.0153390402656));
#564=CARTESIAN_POINT('',(32.6722203064906,-38.0127441004107,13.3545626070285));
#565=CARTESIAN_POINT('',(32.6390052452625,-38.,12.0153390402656));
#566=CARTESIAN_POINT('',(32.6611101532453,-38.0127441004107,13.3545626070285));
#567=CARTESIAN_POINT('',(32.6280255210042,-37.9998551554121,12.0153444932383));
#568=CARTESIAN_POINT('',(32.65,-38.0127441004107,13.3545626070285));
#569=CARTESIAN_POINT('',(32.6170633746414,-37.9995665279547,12.0153553592132));
#570=CARTESIAN_POINT('',(32.3299898120978,-38.0127441004107,13.3545626070285));
#571=CARTESIAN_POINT('',(32.2973299194793,-37.9911481168927,12.0156722876296));
#572=CARTESIAN_POINT('',(32.0227125832914,-37.8900400806622,13.3591820524778));
#573=CARTESIAN_POINT('',(31.9925502739497,-37.8604112145607,12.0205941474821));
#574=CARTESIAN_POINT('',(31.7825290529611,-37.6628163373066,13.36773635811));
#575=CARTESIAN_POINT('',(31.7576696655817,-37.6254331518951,12.0294403804296));
#576=CARTESIAN_POINT('',(31.7741793863605,-37.6546938231318,13.368042146879));
#577=CARTESIAN_POINT('',(31.7495339042159,-37.6170624455868,12.0297555129023));
#578=CARTESIAN_POINT('',(31.5403153274464,-37.4207327316965,13.3768500938507));
#579=CARTESIAN_POINT('',(31.5224610197398,-37.3768117405856,12.0388002453259));
#580=CARTESIAN_POINT('',(31.409955682053,-37.1176974961268,13.3882584791898));
#581=CARTESIAN_POINT('',(31.4,-37.0696780904478,12.0503629239193));
#582=CARTESIAN_POINT('',(31.4005473730776,-36.7997529864096,13.4002281548497));
#583=CARTESIAN_POINT('',(31.4000000000011,-36.75,12.062397863795));
#584=CARTESIAN_POINT('',(31.400182955383,-36.7874378503364,13.4006917835019));
#585=CARTESIAN_POINT('',(31.400000000001,-36.7374598638197,12.0628699630395));
#586=CARTESIAN_POINT('',(31.4000000000009,-36.7751003459997,13.4011562542534));
#587=CARTESIAN_POINT('',(31.400000000001,-36.7249197276393,12.0633420622839));
#588=CARTESIAN_POINT('',(31.4000000000009,-36.7627441004107,13.4016214305579));
#589=CARTESIAN_POINT('',(31.4000000000009,-36.712379591459,12.0638141615283));
#590=CARTESIAN_POINT('',(31.0579999999998,-38.4390042219434,13.3385151671588));
#591=CARTESIAN_POINT('',(64.,2.49999999999969,13.5400449226184));
#592=CARTESIAN_POINT('',(60.3494311668265,2.49999999999969,13.5400449226184));
#593=CARTESIAN_POINT('',(60.3494311668265,-36.,12.0906331579125));
#594=CARTESIAN_POINT('',(64.,-36.,12.0906331579125));
#595=CARTESIAN_POINT('',(36.6505688331735,2.49999999999968,13.5400449226184));
#596=CARTESIAN_POINT('',(33.,2.49999999999968,13.5400449226184));
#597=CARTESIAN_POINT('',(33.,-36.,12.0906331579125));
#598=CARTESIAN_POINT('',(36.6505688331735,-36.,12.0906331579125));
#599=CARTESIAN_POINT('',(46.1459526643464,-3.58889587091146,13.3108159015958));
#600=CARTESIAN_POINT('',(38.0130140443683,-3.58889587091145,13.3108159015958));
#601=CARTESIAN_POINT('',(46.1459526643464,-11.8234962236394,13.0008074177284));
#602=CARTESIAN_POINT('',(38.0130140443683,-11.8234962236394,13.0008074177284));
#603=CARTESIAN_POINT('',(65.5999999999999,2.85625467573254,13.5534568633519));
#604=CARTESIAN_POINT('',(65.6000000000009,-36.7123795914585,12.0638141615282));
#605=CARTESIAN_POINT('',(31.3999999999999,2.85625467573254,13.553456863352));
#606=CARTESIAN_POINT('',(31.4000000000009,-36.712379591459,12.0638141615283));
#607=CARTESIAN_POINT('',(64.,2.49999999999969,11.5386281234103));
#608=CARTESIAN_POINT('',(64.,-36.,10.0892163587044));
#609=CARTESIAN_POINT('',(60.3494311668265,-36.,10.0892163587044));
#610=CARTESIAN_POINT('',(60.3494311668265,2.49999999999969,11.5386281234103));
#611=CARTESIAN_POINT('',(36.6505688331735,2.49999999999969,11.5386281234103));
#612=CARTESIAN_POINT('',(36.6505688331735,-36.,10.0892163587044));
#613=CARTESIAN_POINT('',(33.,-36.,10.0892163587044));
#614=CARTESIAN_POINT('',(33.,2.49999999999969,11.5386281234103));
#615=CARTESIAN_POINT('',(38.0130140443683,-3.58889587091146,13.7307074707805));
#616=CARTESIAN_POINT('',(46.1459526643464,-3.58889587091146,13.7307074707805));
#617=CARTESIAN_POINT('',(38.0130140443683,-11.8234962236394,13.7307074707805));
#618=CARTESIAN_POINT('',(46.1459526643464,-11.8234962236394,13.7307074707805));
#619=CARTESIAN_POINT('',(65.6000000000009,-36.7627441004102,13.4016214305578));
#620=CARTESIAN_POINT('',(31.4000000000009,-36.7627441004107,13.4016214305578));
#621=CARTESIAN_POINT('',(65.5999999999999,2.80589016678083,14.8912641323814));
#622=CARTESIAN_POINT('',(31.3999999999999,2.80589016678084,14.8912641323815));
#623=CARTESIAN_POINT('',(60.3494311668265,2.49999999999969,13.5400449226184));
#624=CARTESIAN_POINT('',(64.,2.49999999999969,13.5400449226184));
#625=CARTESIAN_POINT('',(60.3494311668265,-36.,12.0906331579125));
#626=CARTESIAN_POINT('',(64.,-36.,12.0906331579125));
#627=CARTESIAN_POINT('',(33.,2.49999999999968,13.5400449226184));
#628=CARTESIAN_POINT('',(36.6505688331735,2.49999999999968,13.5400449226184));
#629=CARTESIAN_POINT('',(33.,-36.,12.0906331579125));
#630=CARTESIAN_POINT('',(36.6505688331735,-36.,12.0906331579125));
#631=CARTESIAN_POINT('',(65.5999999999999,2.85625467573254,13.5534568633519));
#632=CARTESIAN_POINT('',(65.6,2.84732932863216,13.5531208502846));
#633=CARTESIAN_POINT('',(65.6,2.83840398153178,13.5527848372172));
#634=CARTESIAN_POINT('',(65.6,2.82947863443139,13.5524488241499));
#635=CARTESIAN_POINT('',(65.6000000000003,-10.3511407741986,13.0562372699427));
#636=CARTESIAN_POINT('',(65.6000000000006,-23.5317601828285,12.5600257157354));
#637=CARTESIAN_POINT('',(65.6000000000009,-36.7123795914585,12.0638141615282));
#638=CARTESIAN_POINT('',(60.3494311668265,2.49999999999969,13.5400449226184));
#639=CARTESIAN_POINT('',(60.3494311668265,-36.,12.0906331579125));
#640=CARTESIAN_POINT('',(64.,-36.,12.0906331579125));
#641=CARTESIAN_POINT('',(64.,2.49999999999969,13.5400449226184));
#642=CARTESIAN_POINT('',(36.6505688331735,-36.,12.0906331579125));
#643=CARTESIAN_POINT('',(36.6505688331735,2.49999999999968,13.5400449226184));
#644=CARTESIAN_POINT('',(33.,2.49999999999968,13.5400449226184));
#645=CARTESIAN_POINT('',(33.,-36.,12.0906331579125));
#646=CARTESIAN_POINT('',(38.0130140443683,-11.8234962236394,13.0008074177284));
#647=CARTESIAN_POINT('',(38.0130140443683,-3.58889587091145,13.3108159015958));
#648=CARTESIAN_POINT('',(46.1459526643464,-3.58889587091146,13.3108159015958));
#649=CARTESIAN_POINT('',(46.1459526643464,-11.8234962236394,13.0008074177284));
#650=CARTESIAN_POINT('',(31.4000000000009,-36.712379591459,12.0638141615283));
#651=CARTESIAN_POINT('',(31.4000000000022,-23.531751908241,12.5600260272494));
#652=CARTESIAN_POINT('',(31.4000000000035,-10.351124225023,13.0562378929706));
#653=CARTESIAN_POINT('',(31.4000000000048,2.82950345819497,13.5524497586917));
#654=CARTESIAN_POINT('',(31.4000000000032,2.8384205307075,13.5527854602451));
#655=CARTESIAN_POINT('',(31.4000000000015,2.84733760322002,13.5531211617985));
#656=CARTESIAN_POINT('',(31.3999999999999,2.85625467573254,13.553456863352));
#657=CARTESIAN_POINT('',(38.0130140443683,-3.58889587091145,13.3108159015958));
#658=CARTESIAN_POINT('',(45.2,-3.58889587091146,13.3108159015958));
#659=CARTESIAN_POINT('',(46.1459526643464,-3.58889587091146,13.3108159015958));
#660=CARTESIAN_POINT('',(46.1459526643464,-11.8234962236394,13.0008074177284));
#661=CARTESIAN_POINT('',(45.2,-11.8234962236394,13.0008074177284));
#662=CARTESIAN_POINT('',(38.0130140443683,-11.8234962236394,13.0008074177284));
#663=CARTESIAN_POINT('',(64.,-36.,10.0892163587044));
#664=CARTESIAN_POINT('',(60.3494311668265,-36.,10.0892163587044));
#665=CARTESIAN_POINT('',(64.,2.49999999999969,11.5386281234103));
#666=CARTESIAN_POINT('',(60.3494311668265,2.49999999999969,11.5386281234103));
#667=CARTESIAN_POINT('',(64.,2.49999999999969,11.5386281234103));
#668=CARTESIAN_POINT('',(64.,-36.,10.0892163587044));
#669=CARTESIAN_POINT('',(60.3494311668265,-36.,10.0892163587044));
#670=CARTESIAN_POINT('',(60.3494311668265,2.49999999999969,11.5386281234103));
#671=CARTESIAN_POINT('',(64.,2.49999999999969,11.5386281234103));
#672=CARTESIAN_POINT('',(64.,2.49999999999969,13.5400449226184));
#673=CARTESIAN_POINT('',(60.3494311668265,2.49999999999969,11.5386281234103));
#674=CARTESIAN_POINT('',(60.3494311668265,2.49999999999969,13.5400449226184));
#675=CARTESIAN_POINT('',(60.3494311668265,-36.,10.0892163587044));
#676=CARTESIAN_POINT('',(60.3494311668265,-36.,12.0906331579125));
#677=CARTESIAN_POINT('',(64.,-36.,10.0892163587044));
#678=CARTESIAN_POINT('',(64.,-36.,12.0906331579125));
#679=CARTESIAN_POINT('',(36.6505688331735,-36.,10.0892163587044));
#680=CARTESIAN_POINT('',(33.,-36.,10.0892163587044));
#681=CARTESIAN_POINT('',(36.6505688331735,2.49999999999969,11.5386281234103));
#682=CARTESIAN_POINT('',(33.,2.49999999999969,11.5386281234103));
#683=CARTESIAN_POINT('',(36.6505688331735,2.49999999999969,11.5386281234103));
#684=CARTESIAN_POINT('',(36.6505688331735,-36.,10.0892163587044));
#685=CARTESIAN_POINT('',(33.,-36.,10.0892163587044));
#686=CARTESIAN_POINT('',(33.,2.49999999999969,11.5386281234103));
#687=CARTESIAN_POINT('',(36.6505688331735,2.49999999999969,11.5386281234103));
#688=CARTESIAN_POINT('',(36.6505688331735,2.49999999999968,13.5400449226184));
#689=CARTESIAN_POINT('',(33.,2.49999999999969,11.5386281234103));
#690=CARTESIAN_POINT('',(33.,2.49999999999968,13.5400449226184));
#691=CARTESIAN_POINT('',(33.,-36.,10.0892163587044));
#692=CARTESIAN_POINT('',(33.,-36.,12.0906331579125));
#693=CARTESIAN_POINT('',(36.6505688331735,-36.,10.0892163587044));
#694=CARTESIAN_POINT('',(36.6505688331735,-36.,12.0906331579125));
#695=CARTESIAN_POINT('',(46.1459526643464,-3.58889587091146,13.7307074707805));
#696=CARTESIAN_POINT('',(38.0130140443683,-3.58889587091146,13.7307074707805));
#697=CARTESIAN_POINT('',(46.1459526643464,-3.58889587091146,13.3108159015958));
#698=CARTESIAN_POINT('',(46.1459526643464,-3.58889587091146,13.7307074707805));
#699=CARTESIAN_POINT('',(38.0130140443683,-3.58889587091145,13.3108159015958));
#700=CARTESIAN_POINT('',(38.0130140443683,-3.58889587091146,13.7307074707805));
#701=CARTESIAN_POINT('',(38.0130140443683,-11.8234962236394,13.7307074707805));
#702=CARTESIAN_POINT('',(46.1459526643464,-11.8234962236394,13.7307074707805));
#703=CARTESIAN_POINT('',(46.1459526643464,-11.8234962236394,13.0008074177284));
#704=CARTESIAN_POINT('',(46.1459526643464,-11.8234962236394,13.7307074707805));
#705=CARTESIAN_POINT('',(38.0130140443683,-11.8234962236394,13.0008074177284));
#706=CARTESIAN_POINT('',(38.0130140443683,-11.8234962236394,13.7307074707805));
#707=CARTESIAN_POINT('',(38.0130140443683,-3.58889587091146,13.7307074707805));
#708=CARTESIAN_POINT('',(38.0130140443683,-11.8234962236394,13.7307074707805));
#709=CARTESIAN_POINT('',(46.1459526643464,-11.8234962236394,13.7307074707805));
#710=CARTESIAN_POINT('',(46.1459526643464,-3.58889587091146,13.7307074707805));
#711=CARTESIAN_POINT('',(65.5999999999999,2.80589016678083,14.8912641323814));
#712=CARTESIAN_POINT('',(65.6000000000002,-11.8765042219419,14.3385151671589));
#713=CARTESIAN_POINT('',(65.6000000000009,-36.7627441004102,13.4016214305578));
#714=CARTESIAN_POINT('',(65.5999999999999,2.80589016678083,14.8912641323814));
#715=CARTESIAN_POINT('',(65.5999999999999,2.85625467573254,13.5534568633519));
#716=CARTESIAN_POINT('',(65.6000000000009,-36.7627441004102,13.4016214305578));
#717=CARTESIAN_POINT('',(65.6000000000009,-36.7123795914585,12.0638141615282));
#718=CARTESIAN_POINT('',(31.3999999999999,2.80589016678084,14.8912641323815));
#719=CARTESIAN_POINT('',(31.3999999999999,2.85625467573254,13.553456863352));
#720=CARTESIAN_POINT('',(31.4000000000009,-36.7627441004107,13.4016214305578));
#721=CARTESIAN_POINT('',(31.4000000000008,-28.4673308075885,13.7139193427582));
#722=CARTESIAN_POINT('',(31.4000000000007,-20.1719175147663,14.0262172549586));
#723=CARTESIAN_POINT('',(31.4000000000005,-11.8765042219441,14.3385151671589));
#724=CARTESIAN_POINT('',(31.4,-7.14903942570258,14.5164903124292));
#725=CARTESIAN_POINT('',(31.4,-2.42157462946087,14.6944654576995));
#726=CARTESIAN_POINT('',(31.4,2.30589016678084,14.8724406029697));
#727=CARTESIAN_POINT('',(31.4000485048861,2.3148808322695,14.8727790750823));
#728=CARTESIAN_POINT('',(31.4000970097722,2.32387149775817,14.8731175471948));
#729=CARTESIAN_POINT('',(31.4001455146583,2.33286216324683,14.8734560193073));
#730=CARTESIAN_POINT('',(31.4000970097721,2.49053816442482,14.8793920569987));
#731=CARTESIAN_POINT('',(31.400048504886,2.64821416560283,14.8853280946901));
#732=CARTESIAN_POINT('',(31.3999999999999,2.80589016678084,14.8912641323815));
#733=CARTESIAN_POINT('',(31.4000000000009,-36.7627441004107,13.4016214305578));
#734=CARTESIAN_POINT('',(31.4000000000009,-36.712379591459,12.0638141615283));
#735=CARTESIAN_POINT('',(31.3999999999999,2.80589016678084,14.8912641323815));
#736=CARTESIAN_POINT('',(31.3999999999999,3.11608904814113,14.9029422079151));
#737=CARTESIAN_POINT('',(31.5153270969918,3.41491626416438,14.9141921736948));
#738=CARTESIAN_POINT('',(31.7294273357459,3.6515473385783,14.9231006376727));
#739=CARTESIAN_POINT('',(31.7358693727742,3.65850691825895,14.9233626453783));
#740=CARTESIAN_POINT('',(31.742397250575,3.66540005575045,14.9236221517309));
#741=CARTESIAN_POINT('',(31.9552413895498,3.8901536370781,14.932083463028));
#742=CARTESIAN_POINT('',(32.2436881074212,4.02772577011187,14.9372626492128));
#743=CARTESIAN_POINT('',(32.5516852193722,4.0520182499312,14.9381771896295));
#744=CARTESIAN_POINT('',(32.5617736935755,4.05281395237932,14.9382071454864));
#745=CARTESIAN_POINT('',(32.5718831433214,4.05348811752351,14.9382325258212));
#746=CARTESIAN_POINT('',(32.5820115987783,4.05403982819944,14.9382532961055));
#747=CARTESIAN_POINT('',(43.1861437372121,4.63166125671929,14.9599990440027));
#748=CARTESIAN_POINT('',(53.8138562627876,4.63166125671928,14.9599990440027));
#749=CARTESIAN_POINT('',(64.4179884012215,4.05403982819941,14.9382532961054));
#750=CARTESIAN_POINT('',(64.4281195940822,4.0534879684134,14.9382325202076));
#751=CARTESIAN_POINT('',(64.4382317709571,4.05281358795896,14.938207131767));
#752=CARTESIAN_POINT('',(64.4483229604173,4.0520176047443,14.93817716534));
#753=CARTESIAN_POINT('',(64.7563169996223,4.02772333434237,14.9372625575131));
#754=CARTESIAN_POINT('',(65.0447604946898,3.89015164740772,14.9320833881227));
#755=CARTESIAN_POINT('',(65.2576027494247,3.66540005575034,14.9236221517309));
#756=CARTESIAN_POINT('',(65.264134630616,3.65850269086341,14.9233624862292));
#757=CARTESIAN_POINT('',(65.2705805657143,3.65153880226755,14.9231003163056));
#758=CARTESIAN_POINT('',(65.4846772304947,3.41490505098521,14.9141917515515));
#759=CARTESIAN_POINT('',(65.5999999999999,3.11608322819871,14.9029419888113));
#760=CARTESIAN_POINT('',(65.5999999999999,2.80589016678083,14.8912641323814));
#761=CARTESIAN_POINT('',(65.6000000000009,-36.7627441004102,13.4016214305578));
#762=CARTESIAN_POINT('',(65.6000000000009,-36.7751003459992,13.4011562542532));
#763=CARTESIAN_POINT('',(65.5998170446187,-36.7874378503359,13.4006917835017));
#764=CARTESIAN_POINT('',(65.599452626924,-36.7997529864091,13.4002281548496));
#765=CARTESIAN_POINT('',(65.590044317947,-37.1176974961268,13.3882584791896));
#766=CARTESIAN_POINT('',(65.4596846725536,-37.4207327316964,13.3768500938505));
#767=CARTESIAN_POINT('',(65.2258206136394,-37.6546938231318,13.3680421468788));
#768=CARTESIAN_POINT('',(65.2174709470389,-37.6628163373065,13.3677363581099));
#769=CARTESIAN_POINT('',(64.9772874167086,-37.8900400806622,13.3591820524777));
#770=CARTESIAN_POINT('',(64.6700101879022,-38.0127441004107,13.3545626070283));
#771=CARTESIAN_POINT('',(64.35,-38.0127441004107,13.3545626070283));
#772=CARTESIAN_POINT('',(64.3388898467546,-38.0127441004107,13.3545626070283));
#773=CARTESIAN_POINT('',(64.3277796935093,-38.0127441004107,13.3545626070283));
#774=CARTESIAN_POINT('',(64.316669540264,-38.0127441004107,13.3545626070283));
#775=CARTESIAN_POINT('',(53.7722231800879,-38.0127441004107,13.3545626070284));
#776=CARTESIAN_POINT('',(43.2277768199119,-38.0127441004107,13.3545626070284));
#777=CARTESIAN_POINT('',(32.6833304597359,-38.0127441004107,13.3545626070284));
#778=CARTESIAN_POINT('',(32.6722203064906,-38.0127441004107,13.3545626070284));
#779=CARTESIAN_POINT('',(32.6611101532453,-38.0127441004107,13.3545626070284));
#780=CARTESIAN_POINT('',(32.65,-38.0127441004107,13.3545626070284));
#781=CARTESIAN_POINT('',(32.3299898120978,-38.0127441004107,13.3545626070284));
#782=CARTESIAN_POINT('',(32.0227125832914,-37.8900400806622,13.3591820524778));
#783=CARTESIAN_POINT('',(31.7825290529611,-37.6628163373066,13.36773635811));
#784=CARTESIAN_POINT('',(31.7741793863605,-37.6546938231318,13.3680421468789));
#785=CARTESIAN_POINT('',(31.5403153274464,-37.4207327316965,13.3768500938506));
#786=CARTESIAN_POINT('',(31.409955682053,-37.1176974961268,13.3882584791897));
#787=CARTESIAN_POINT('',(31.4005473730776,-36.7997529864096,13.4002281548496));
#788=CARTESIAN_POINT('',(31.400182955383,-36.7874378503364,13.4006917835018));
#789=CARTESIAN_POINT('',(31.4000000000009,-36.7751003459997,13.4011562542533));
#790=CARTESIAN_POINT('',(31.4000000000009,-36.7627441004107,13.4016214305578));
#791=CARTESIAN_POINT('',(65.6000000000009,-36.7123795914585,12.0638141615282));
#792=CARTESIAN_POINT('',(65.600000000001,-36.7249197276388,12.0633420622838));
#793=CARTESIAN_POINT('',(65.600000000001,-36.7374598638192,12.0628699630393));
#794=CARTESIAN_POINT('',(65.6000000000011,-36.7499999999995,12.0623978637949));
#795=CARTESIAN_POINT('',(65.6,-37.0696780904478,12.0503629239192));
#796=CARTESIAN_POINT('',(65.4775389802601,-37.3768117405856,12.0388002453258));
#797=CARTESIAN_POINT('',(65.250466095784,-37.6170624455869,12.0297555129022));
#798=CARTESIAN_POINT('',(65.2423303344182,-37.6254331518951,12.0294403804294));
#799=CARTESIAN_POINT('',(65.0074497260503,-37.8604112145607,12.020594147482));
#800=CARTESIAN_POINT('',(64.7026700805207,-37.9911481168927,12.0156722876295));
#801=CARTESIAN_POINT('',(64.3829366253586,-37.9995665279547,12.015355359213));
#802=CARTESIAN_POINT('',(64.3719744789958,-37.9998551554121,12.0153444932382));
#803=CARTESIAN_POINT('',(64.3609947547375,-38.,12.0153390402655));
#804=CARTESIAN_POINT('',(64.35,-38.,12.0153390402655));
#805=CARTESIAN_POINT('',(53.7833333333333,-38.,12.0153390402655));
#806=CARTESIAN_POINT('',(43.2166666666667,-38.,12.0153390402655));
#807=CARTESIAN_POINT('',(32.65,-38.,12.0153390402655));
#808=CARTESIAN_POINT('',(32.6390052452625,-38.,12.0153390402655));
#809=CARTESIAN_POINT('',(32.6280255210042,-37.9998551554121,12.0153444932383));
#810=CARTESIAN_POINT('',(32.6170633746414,-37.9995665279547,12.0153553592131));
#811=CARTESIAN_POINT('',(32.2973299194793,-37.9911481168927,12.0156722876296));
#812=CARTESIAN_POINT('',(31.9925502739497,-37.8604112145607,12.0205941474821));
#813=CARTESIAN_POINT('',(31.7576696655817,-37.6254331518951,12.0294403804295));
#814=CARTESIAN_POINT('',(31.7495339042159,-37.6170624455868,12.0297555129023));
#815=CARTESIAN_POINT('',(31.5224610197398,-37.3768117405856,12.0388002453259));
#816=CARTESIAN_POINT('',(31.4,-37.0696780904478,12.0503629239193));
#817=CARTESIAN_POINT('',(31.4000000000011,-36.75,12.062397863795));
#818=CARTESIAN_POINT('',(31.400000000001,-36.7374598638197,12.0628699630394));
#819=CARTESIAN_POINT('',(31.400000000001,-36.7249197276393,12.0633420622838));
#820=CARTESIAN_POINT('',(31.4000000000009,-36.712379591459,12.0638141615283));
#821=CARTESIAN_POINT('',(65.5999999999999,2.85625467573254,13.5534568633519));
#822=CARTESIAN_POINT('',(65.5932755585683,3.16522532537158,13.5650886995736));
#823=CARTESIAN_POINT('',(65.4709881781761,3.46053699622111,13.5762063154173));
#824=CARTESIAN_POINT('',(65.2501309725714,3.69113640931055,13.5848877050866));
#825=CARTESIAN_POINT('',(65.243499931,3.69790293720523,13.5851424449602));
#826=CARTESIAN_POINT('',(65.2367996304463,3.70458577082609,13.5853940339907));
#827=CARTESIAN_POINT('',(65.0184670921553,3.92234914065022,13.5935921843841));
#828=CARTESIAN_POINT('',(64.7265944117036,4.05124477680135,13.5984447259803));
#829=CARTESIAN_POINT('',(64.4179884012215,4.06678392861011,13.5990297293426));
#830=CARTESIAN_POINT('',(64.4077601319726,4.06734107627837,13.5990507043136));
#831=CARTESIAN_POINT('',(64.3975318407852,4.06789768654703,13.5990716590531));
#832=CARTESIAN_POINT('',(64.3873035277018,4.06845375941609,13.5990925935611));
#833=CARTESIAN_POINT('',(53.8035798065038,4.64384889710971,13.6207545281567));
#834=CARTESIAN_POINT('',(43.1964118903178,4.64384874686125,13.6207545225003));
#835=CARTESIAN_POINT('',(32.6126881813622,4.06845330867061,13.599092576592));
#836=CARTESIAN_POINT('',(32.6024626319359,4.06789738575967,13.5990716477294));
#837=CARTESIAN_POINT('',(32.5922371043938,4.06734092573949,13.5990506986463));
#838=CARTESIAN_POINT('',(32.5820115987783,4.06678392861009,13.5990297293426));
#839=CARTESIAN_POINT('',(32.2734030656534,4.05124754934773,13.5984448303586));
#840=CARTESIAN_POINT('',(31.9815260999473,3.92235335803337,13.5935923431562));
#841=CARTESIAN_POINT('',(31.7631914878825,3.70458760061808,13.5853941028771));
#842=CARTESIAN_POINT('',(31.7564952896212,3.69790884880504,13.5851426675147));
#843=CARTESIAN_POINT('',(31.749868266326,3.69114650315438,13.5848880850902));
#844=CARTESIAN_POINT('',(31.5290080492001,3.46054989353739,13.5762068009634));
#845=CARTESIAN_POINT('',(31.4067184916679,3.16523203106812,13.5650889520234));
#846=CARTESIAN_POINT('',(31.3999999999999,2.85625467573254,13.553456863352));
#847=CARTESIAN_POINT('',(0.,0.,0.));
ENDSEC;
END-ISO-10303-21;
