ISO-10303-21;
HEADER;
/* Generated by software containing ST-Developer
 * from STEP Tools, Inc. (www.steptools.com) 
 */
/* OPTION: using custom schema-name function */

FILE_DESCRIPTION(
/* description */ (''),
/* implementation_level */ '2;1');

FILE_NAME(
/* name */ 'Deckel',
/* time_stamp */ '2026-05-20T20:18:37+02:00',
/* author */ (''),
/* organization */ (''),
/* preprocessor_version */ 'ST-DEVELOPER v19.2',
/* originating_system */ 'Rhino 8.31',
/* authorisation */ '');

FILE_SCHEMA (('CONFIG_CONTROL_DESIGN'));
ENDSEC;

DATA;
#10=SHAPE_REPRESENTATION_RELATIONSHIP('','',#336,#12);
#11=MANIFOLD_SOLID_BREP('brep_1',#13);
#12=ADVANCED_BREP_SHAPE_REPRESENTATION('brep_rep_0',(#11,#352),#335);
#13=CLOSED_SHELL('',(#16,#17,#18,#19,#20,#21,#22,#23,#24,#25,#26,#27,#28,
#29,#30,#31));
#14=FACE_BOUND('',#60,.T.);
#15=FACE_BOUND('',#61,.T.);
#16=ADVANCED_FACE('',(#32),#236,.T.);
#17=ADVANCED_FACE('',(#33),#237,.T.);
#18=ADVANCED_FACE('',(#34),#238,.T.);
#19=ADVANCED_FACE('',(#35),#239,.T.);
#20=ADVANCED_FACE('',(#36),#240,.T.);
#21=ADVANCED_FACE('',(#37),#241,.T.);
#22=ADVANCED_FACE('',(#38),#242,.T.);
#23=ADVANCED_FACE('',(#39),#243,.T.);
#24=ADVANCED_FACE('',(#40),#244,.T.);
#25=ADVANCED_FACE('',(#41),#245,.T.);
#26=ADVANCED_FACE('',(#42),#246,.T.);
#27=ADVANCED_FACE('',(#43,#14,#15),#247,.T.);
#28=ADVANCED_FACE('',(#44),#248,.T.);
#29=ADVANCED_FACE('',(#45),#249,.T.);
#30=ADVANCED_FACE('',(#46),#234,.T.);
#31=ADVANCED_FACE('',(#47),#235,.T.);
#32=FACE_OUTER_BOUND('',#48,.T.);
#33=FACE_OUTER_BOUND('',#49,.T.);
#34=FACE_OUTER_BOUND('',#50,.T.);
#35=FACE_OUTER_BOUND('',#51,.T.);
#36=FACE_OUTER_BOUND('',#52,.T.);
#37=FACE_OUTER_BOUND('',#53,.T.);
#38=FACE_OUTER_BOUND('',#54,.T.);
#39=FACE_OUTER_BOUND('',#55,.T.);
#40=FACE_OUTER_BOUND('',#56,.T.);
#41=FACE_OUTER_BOUND('',#57,.T.);
#42=FACE_OUTER_BOUND('',#58,.T.);
#43=FACE_OUTER_BOUND('',#59,.T.);
#44=FACE_OUTER_BOUND('',#62,.T.);
#45=FACE_OUTER_BOUND('',#63,.T.);
#46=FACE_OUTER_BOUND('',#64,.T.);
#47=FACE_OUTER_BOUND('',#65,.T.);
#48=EDGE_LOOP('',(#66,#67,#68,#69));
#49=EDGE_LOOP('',(#70,#71,#72,#73));
#50=EDGE_LOOP('',(#74,#75,#76,#77));
#51=EDGE_LOOP('',(#78,#79,#80,#81));
#52=EDGE_LOOP('',(#82,#83,#84,#85));
#53=EDGE_LOOP('',(#86,#87,#88,#89));
#54=EDGE_LOOP('',(#90,#91,#92,#93));
#55=EDGE_LOOP('',(#94,#95,#96,#97));
#56=EDGE_LOOP('',(#98,#99,#100,#101));
#57=EDGE_LOOP('',(#102,#103,#104,#105));
#58=EDGE_LOOP('',(#106,#107,#108,#109));
#59=EDGE_LOOP('',(#110,#111,#112,#113));
#60=EDGE_LOOP('',(#114,#115,#116,#117));
#61=EDGE_LOOP('',(#118,#119,#120,#121));
#62=EDGE_LOOP('',(#122,#123,#124,#125));
#63=EDGE_LOOP('',(#126,#127,#128,#129));
#64=EDGE_LOOP('',(#130,#131,#132,#133));
#65=EDGE_LOOP('',(#134,#135,#136,#137));
#66=ORIENTED_EDGE('',*,*,#141,.F.);
#67=ORIENTED_EDGE('',*,*,#138,.F.);
#68=ORIENTED_EDGE('',*,*,#139,.T.);
#69=ORIENTED_EDGE('',*,*,#140,.F.);
#70=ORIENTED_EDGE('',*,*,#142,.F.);
#71=ORIENTED_EDGE('',*,*,#156,.F.);
#72=ORIENTED_EDGE('',*,*,#141,.T.);
#73=ORIENTED_EDGE('',*,*,#161,.F.);
#74=ORIENTED_EDGE('',*,*,#139,.F.);
#75=ORIENTED_EDGE('',*,*,#157,.F.);
#76=ORIENTED_EDGE('',*,*,#143,.T.);
#77=ORIENTED_EDGE('',*,*,#162,.F.);
#78=ORIENTED_EDGE('',*,*,#143,.F.);
#79=ORIENTED_EDGE('',*,*,#144,.F.);
#80=ORIENTED_EDGE('',*,*,#142,.T.);
#81=ORIENTED_EDGE('',*,*,#145,.F.);
#82=ORIENTED_EDGE('',*,*,#148,.F.);
#83=ORIENTED_EDGE('',*,*,#154,.F.);
#84=ORIENTED_EDGE('',*,*,#146,.T.);
#85=ORIENTED_EDGE('',*,*,#159,.F.);
#86=ORIENTED_EDGE('',*,*,#150,.F.);
#87=ORIENTED_EDGE('',*,*,#149,.F.);
#88=ORIENTED_EDGE('',*,*,#148,.T.);
#89=ORIENTED_EDGE('',*,*,#147,.F.);
#90=ORIENTED_EDGE('',*,*,#151,.F.);
#91=ORIENTED_EDGE('',*,*,#155,.F.);
#92=ORIENTED_EDGE('',*,*,#150,.T.);
#93=ORIENTED_EDGE('',*,*,#160,.F.);
#94=ORIENTED_EDGE('',*,*,#153,.T.);
#95=ORIENTED_EDGE('',*,*,#146,.F.);
#96=ORIENTED_EDGE('',*,*,#152,.T.);
#97=ORIENTED_EDGE('',*,*,#151,.T.);
#98=ORIENTED_EDGE('',*,*,#154,.T.);
#99=ORIENTED_EDGE('',*,*,#149,.T.);
#100=ORIENTED_EDGE('',*,*,#155,.T.);
#101=ORIENTED_EDGE('',*,*,#152,.F.);
#102=ORIENTED_EDGE('',*,*,#138,.T.);
#103=ORIENTED_EDGE('',*,*,#156,.T.);
#104=ORIENTED_EDGE('',*,*,#144,.T.);
#105=ORIENTED_EDGE('',*,*,#157,.T.);
#106=ORIENTED_EDGE('',*,*,#171,.F.);
#107=ORIENTED_EDGE('',*,*,#166,.F.);
#108=ORIENTED_EDGE('',*,*,#173,.F.);
#109=ORIENTED_EDGE('',*,*,#158,.F.);
#110=ORIENTED_EDGE('',*,*,#172,.T.);
#111=ORIENTED_EDGE('',*,*,#168,.T.);
#112=ORIENTED_EDGE('',*,*,#170,.F.);
#113=ORIENTED_EDGE('',*,*,#169,.T.);
#114=ORIENTED_EDGE('',*,*,#145,.T.);
#115=ORIENTED_EDGE('',*,*,#161,.T.);
#116=ORIENTED_EDGE('',*,*,#140,.T.);
#117=ORIENTED_EDGE('',*,*,#162,.T.);
#118=ORIENTED_EDGE('',*,*,#147,.T.);
#119=ORIENTED_EDGE('',*,*,#159,.T.);
#120=ORIENTED_EDGE('',*,*,#153,.F.);
#121=ORIENTED_EDGE('',*,*,#160,.T.);
#122=ORIENTED_EDGE('',*,*,#158,.T.);
#123=ORIENTED_EDGE('',*,*,#164,.T.);
#124=ORIENTED_EDGE('',*,*,#169,.F.);
#125=ORIENTED_EDGE('',*,*,#163,.F.);
#126=ORIENTED_EDGE('',*,*,#166,.T.);
#127=ORIENTED_EDGE('',*,*,#165,.T.);
#128=ORIENTED_EDGE('',*,*,#168,.F.);
#129=ORIENTED_EDGE('',*,*,#167,.F.);
#130=ORIENTED_EDGE('',*,*,#170,.T.);
#131=ORIENTED_EDGE('',*,*,#165,.F.);
#132=ORIENTED_EDGE('',*,*,#171,.T.);
#133=ORIENTED_EDGE('',*,*,#163,.T.);
#134=ORIENTED_EDGE('',*,*,#173,.T.);
#135=ORIENTED_EDGE('',*,*,#167,.T.);
#136=ORIENTED_EDGE('',*,*,#172,.F.);
#137=ORIENTED_EDGE('',*,*,#164,.F.);
#138=EDGE_CURVE('',#210,#211,#174,.T.);
#139=EDGE_CURVE('',#210,#215,#175,.T.);
#140=EDGE_CURVE('',#214,#215,#176,.T.);
#141=EDGE_CURVE('',#211,#214,#177,.T.);
#142=EDGE_CURVE('',#212,#216,#178,.T.);
#143=EDGE_CURVE('',#213,#217,#179,.T.);
#144=EDGE_CURVE('',#212,#213,#180,.T.);
#145=EDGE_CURVE('',#217,#216,#181,.T.);
#146=EDGE_CURVE('',#218,#223,#182,.T.);
#147=EDGE_CURVE('',#224,#222,#183,.T.);
#148=EDGE_CURVE('',#219,#222,#184,.T.);
#149=EDGE_CURVE('',#219,#220,#185,.T.);
#150=EDGE_CURVE('',#220,#224,#186,.T.);
#151=EDGE_CURVE('',#221,#225,#187,.T.);
#152=EDGE_CURVE('',#218,#221,#188,.T.);
#153=EDGE_CURVE('',#225,#223,#189,.T.);
#154=EDGE_CURVE('',#218,#219,#190,.T.);
#155=EDGE_CURVE('',#220,#221,#191,.T.);
#156=EDGE_CURVE('',#211,#212,#192,.T.);
#157=EDGE_CURVE('',#213,#210,#193,.T.);
#158=EDGE_CURVE('',#228,#226,#194,.T.);
#159=EDGE_CURVE('',#222,#223,#195,.T.);
#160=EDGE_CURVE('',#225,#224,#196,.T.);
#161=EDGE_CURVE('',#216,#214,#197,.T.);
#162=EDGE_CURVE('',#215,#217,#198,.T.);
#163=EDGE_CURVE('',#228,#230,#199,.T.);
#164=EDGE_CURVE('',#226,#231,#200,.T.);
#165=EDGE_CURVE('',#229,#232,#201,.T.);
#166=EDGE_CURVE('',#227,#229,#202,.T.);
#167=EDGE_CURVE('',#227,#233,#203,.T.);
#168=EDGE_CURVE('',#233,#232,#204,.T.);
#169=EDGE_CURVE('',#230,#231,#205,.T.);
#170=EDGE_CURVE('',#230,#232,#206,.T.);
#171=EDGE_CURVE('',#229,#228,#207,.T.);
#172=EDGE_CURVE('',#231,#233,#208,.T.);
#173=EDGE_CURVE('',#226,#227,#209,.T.);
#174=B_SPLINE_CURVE_WITH_KNOTS('',1,(#522,#523),.UNSPECIFIED.,.F.,.F.,(2,
2),(20.4,32.6),.UNSPECIFIED.);
#175=B_SPLINE_CURVE_WITH_KNOTS('',1,(#524,#525),.UNSPECIFIED.,.F.,.F.,(2,
2),(1.32786555407969,3.32928235328776),.UNSPECIFIED.);
#176=B_SPLINE_CURVE_WITH_KNOTS('',1,(#526,#527),.UNSPECIFIED.,.F.,.F.,(2,
2),(-32.6,-20.4),.UNSPECIFIED.);
#177=B_SPLINE_CURVE_WITH_KNOTS('',1,(#528,#529),.UNSPECIFIED.,.F.,.F.,(2,
2),(1.32786555407969,3.32928235328776),.UNSPECIFIED.);
#178=B_SPLINE_CURVE_WITH_KNOTS('',1,(#530,#531),.UNSPECIFIED.,.F.,.F.,(2,
2),(2.77727731878558,4.77869411799364),.UNSPECIFIED.);
#179=B_SPLINE_CURVE_WITH_KNOTS('',1,(#532,#533),.UNSPECIFIED.,.F.,.F.,(2,
2),(2.77727731878558,4.77869411799365),.UNSPECIFIED.);
#180=B_SPLINE_CURVE_WITH_KNOTS('',1,(#534,#535),.UNSPECIFIED.,.F.,.F.,(2,
2),(0.,12.2),.UNSPECIFIED.);
#181=B_SPLINE_CURVE_WITH_KNOTS('',1,(#536,#537),.UNSPECIFIED.,.F.,.F.,(2,
2),(-12.2,0.),.UNSPECIFIED.);
#182=B_SPLINE_CURVE_WITH_KNOTS('',1,(#538,#539),.UNSPECIFIED.,.F.,.F.,(2,
2),(2.77727731878558,4.77869411799365),.UNSPECIFIED.);
#183=B_SPLINE_CURVE_WITH_KNOTS('',1,(#540,#541),.UNSPECIFIED.,.F.,.F.,(2,
2),(-5.25056883317346,-1.59999999999998),.UNSPECIFIED.);
#184=B_SPLINE_CURVE_WITH_KNOTS('',1,(#542,#543),.UNSPECIFIED.,.F.,.F.,(2,
2),(1.32786555407969,3.32928235328776),.UNSPECIFIED.);
#185=B_SPLINE_CURVE_WITH_KNOTS('',1,(#544,#545),.UNSPECIFIED.,.F.,.F.,(2,
2),(1.59999999999998,5.25056883317348),.UNSPECIFIED.);
#186=B_SPLINE_CURVE_WITH_KNOTS('',1,(#546,#547),.UNSPECIFIED.,.F.,.F.,(2,
2),(1.32786555407969,3.32928235328776),.UNSPECIFIED.);
#187=B_SPLINE_CURVE_WITH_KNOTS('',1,(#548,#549),.UNSPECIFIED.,.F.,.F.,(2,
2),(2.77727731878558,4.77869411799364),.UNSPECIFIED.);
#188=B_SPLINE_CURVE_WITH_KNOTS('',1,(#550,#551),.UNSPECIFIED.,.F.,.F.,(2,
2),(-30.,-26.3494311668265),.UNSPECIFIED.);
#189=B_SPLINE_CURVE_WITH_KNOTS('',1,(#552,#553),.UNSPECIFIED.,.F.,.F.,(2,
2),(26.3494311668265,30.),.UNSPECIFIED.);
#190=B_SPLINE_CURVE_WITH_KNOTS('',1,(#554,#555),.UNSPECIFIED.,.F.,.F.,(2,
2),(-39.16540303461,-0.638129649855152),.UNSPECIFIED.);
#191=B_SPLINE_CURVE_WITH_KNOTS('',1,(#556,#557),.UNSPECIFIED.,.F.,.F.,(2,
2),(0.638129649855142,39.16540303461),.UNSPECIFIED.);
#192=B_SPLINE_CURVE_WITH_KNOTS('',1,(#558,#559),.UNSPECIFIED.,.F.,.F.,(2,
2),(0.638129649855147,39.16540303461),.UNSPECIFIED.);
#193=B_SPLINE_CURVE_WITH_KNOTS('',1,(#560,#561),.UNSPECIFIED.,.F.,.F.,(2,
2),(-39.16540303461,-0.638129649855152),.UNSPECIFIED.);
#194=B_SPLINE_CURVE_WITH_KNOTS('',1,(#562,#563,#564),.UNSPECIFIED.,.F.,
 .F.,(2,1,2),(-39.5972041986612,-24.9044088075664,-0.000539526623147157),
 .UNSPECIFIED.);
#195=B_SPLINE_CURVE_WITH_KNOTS('',1,(#565,#566),.UNSPECIFIED.,.F.,.F.,(2,
2),(0.713423767502214,39.2406971522571),.UNSPECIFIED.);
#196=B_SPLINE_CURVE_WITH_KNOTS('',1,(#567,#568),.UNSPECIFIED.,.F.,.F.,(2,
2),(-39.2406971522571,-0.713423767502204),.UNSPECIFIED.);
#197=B_SPLINE_CURVE_WITH_KNOTS('',1,(#569,#570),.UNSPECIFIED.,.F.,.F.,(2,
2),(-39.2406971522571,-0.713423767502209),.UNSPECIFIED.);
#198=B_SPLINE_CURVE_WITH_KNOTS('',1,(#571,#572),.UNSPECIFIED.,.F.,.F.,(2,
2),(0.713423767502209,39.2406971522571),.UNSPECIFIED.);
#199=B_SPLINE_CURVE_WITH_KNOTS('',1,(#573,#574),.UNSPECIFIED.,.F.,.F.,(2,
2),(0.,0.999999999999992),.UNSPECIFIED.);
#200=B_SPLINE_CURVE_WITH_KNOTS('',1,(#575,#576),.UNSPECIFIED.,.F.,.F.,(2,
2),(0.,0.999999999999992),.UNSPECIFIED.);
#201=B_SPLINE_CURVE_WITH_KNOTS('',1,(#577,#578),.UNSPECIFIED.,.F.,.F.,(2,
2),(0.,0.999999999999992),.UNSPECIFIED.);
#202=B_SPLINE_CURVE_WITH_KNOTS('',3,(#579,#580,#581,#582,#583,#584,#585,
#586,#587,#588,#589,#590,#591),.UNSPECIFIED.,.F.,.F.,(4,3,3,3,4),(0.000539526622716835,
24.9044088075664,39.0968499988607,39.1238414945254,39.5972046132758),
 .UNSPECIFIED.);
#203=B_SPLINE_CURVE_WITH_KNOTS('',1,(#592,#593),.UNSPECIFIED.,.F.,.F.,(2,
2),(0.,0.999999999999992),.UNSPECIFIED.);
#204=B_SPLINE_CURVE_WITH_KNOTS('',3,(#594,#595,#596,#597,#598,#599,#600),
 .UNSPECIFIED.,.F.,.F.,(4,3,4),(0.000539526622713428,39.5704340305717,39.5972041973963),
 .UNSPECIFIED.);
#205=B_SPLINE_CURVE_WITH_KNOTS('',1,(#601,#602,#603),.UNSPECIFIED.,.F.,
 .F.,(2,1,2),(-39.5972041986612,-39.570409189223,-0.00053952662315624),
 .UNSPECIFIED.);
#206=B_SPLINE_CURVE_WITH_KNOTS('',3,(#604,#605,#606,#607,#608,#609,#610,
#611,#612,#613,#614,#615,#616,#617,#618,#619,#620,#621,#622,#623,#624,#625,
#626,#627,#628,#629),.UNSPECIFIED.,.F.,.F.,(4,2,3,3,3,3,3,3,2,4),(-35.7512958273425,
-34.80899010278,-34.7801438925119,-33.8401761616026,-33.8093788368118,-1.94191699053079,
-1.91112798704188,-0.971151934830674,-0.942323404406849,0.),
 .UNSPECIFIED.);
#207=B_SPLINE_CURVE_WITH_KNOTS('',3,(#630,#631,#632,#633,#634,#635,#636,
#637,#638,#639,#640,#641,#642,#643,#644,#645,#646,#647,#648,#649,#650,#651,
#652,#653,#654,#655),.UNSPECIFIED.,.F.,.F.,(4,2,3,3,3,3,3,3,2,4),(0.,0.942323404406849,
0.971151934830674,1.91112798704188,1.94191699053079,33.8093788368118,33.8401761616026,
34.7801438925119,34.80899010278,35.7512958273425),.UNSPECIFIED.);
#208=B_SPLINE_CURVE_WITH_KNOTS('',3,(#656,#657,#658,#659,#660,#661,#662,
#663,#664,#665,#666,#667,#668,#669,#670,#671,#672,#673,#674,#675,#676,#677,
#678,#679,#680,#681,#682,#683,#684,#685),.UNSPECIFIED.,.F.,.F.,(4,3,2,2,
3,3,3,3,2,2,3,4),(-0.00053952662315624,0.0371075322004273,1.00905583945509,
1.04457985236699,2.01877960323803,2.05218030023499,33.752180300235,33.7855809972319,
34.7597807481029,34.7953047610149,35.7672530682695,35.8049001270931),
 .UNSPECIFIED.);
#209=B_SPLINE_CURVE_WITH_KNOTS('',3,(#686,#687,#688,#689,#690,#691,#692,
#693,#694,#695,#696,#697,#698,#699,#700,#701,#702,#703,#704,#705,#706,#707,
#708,#709,#710,#711,#712,#713,#714,#715),.UNSPECIFIED.,.F.,.F.,(4,3,2,2,
3,3,3,3,2,2,3,4),(-0.00053952662315624,0.0371075322004273,1.00905583945509,
1.04457985236699,2.01877960323803,2.05218030023499,33.752180300235,33.7855809972319,
34.7597807481029,34.7953047610149,35.7672530682695,35.8049001270931),
 .UNSPECIFIED.);
#210=VERTEX_POINT('',#498);
#211=VERTEX_POINT('',#499);
#212=VERTEX_POINT('',#500);
#213=VERTEX_POINT('',#501);
#214=VERTEX_POINT('',#502);
#215=VERTEX_POINT('',#503);
#216=VERTEX_POINT('',#504);
#217=VERTEX_POINT('',#505);
#218=VERTEX_POINT('',#506);
#219=VERTEX_POINT('',#507);
#220=VERTEX_POINT('',#508);
#221=VERTEX_POINT('',#509);
#222=VERTEX_POINT('',#510);
#223=VERTEX_POINT('',#511);
#224=VERTEX_POINT('',#512);
#225=VERTEX_POINT('',#513);
#226=VERTEX_POINT('',#514);
#227=VERTEX_POINT('',#515);
#228=VERTEX_POINT('',#516);
#229=VERTEX_POINT('',#517);
#230=VERTEX_POINT('',#518);
#231=VERTEX_POINT('',#519);
#232=VERTEX_POINT('',#520);
#233=VERTEX_POINT('',#521);
#234=B_SPLINE_SURFACE_WITH_KNOTS('',3,1,((#386,#387),(#388,#389),(#390,
#391),(#392,#393),(#394,#395),(#396,#397),(#398,#399),(#400,#401),(#402,
#403),(#404,#405),(#406,#407),(#408,#409),(#410,#411),(#412,#413),(#414,
#415),(#416,#417),(#418,#419),(#420,#421),(#422,#423),(#424,#425),(#426,
#427),(#428,#429),(#430,#431),(#432,#433),(#434,#435),(#436,#437)),
 .UNSPECIFIED.,.F.,.F.,.F.,(4,2,3,3,3,3,3,3,2,4),(2,2),(-35.7512958273425,
-34.80899010278,-34.7801438925119,-33.8401761616026,-33.8093788368118,-1.94191699053079,
-1.91112798704188,-0.971151934830674,-0.942323404406849,0.),(-0.999999999999992,
0.),.UNSPECIFIED.);
#235=B_SPLINE_SURFACE_WITH_KNOTS('',3,1,((#438,#439),(#440,#441),(#442,
#443),(#444,#445),(#446,#447),(#448,#449),(#450,#451),(#452,#453),(#454,
#455),(#456,#457),(#458,#459),(#460,#461),(#462,#463),(#464,#465),(#466,
#467),(#468,#469),(#470,#471),(#472,#473),(#474,#475),(#476,#477),(#478,
#479),(#480,#481),(#482,#483),(#484,#485),(#486,#487),(#488,#489),(#490,
#491),(#492,#493),(#494,#495),(#496,#497)),.UNSPECIFIED.,.F.,.F.,.F.,(4,
3,2,2,3,3,3,3,2,2,3,4),(2,2),(-0.00053952662315624,0.0371075322004273,1.00905583945509,
1.04457985236699,2.01877960323803,2.05218030023499,33.752180300235,33.7855809972319,
34.7597807481029,34.7953047610149,35.7672530682695,35.8049001270931),(0.,
0.999999999999992),.UNSPECIFIED.);
#236=PLANE('',#338);
#237=PLANE('',#339);
#238=PLANE('',#340);
#239=PLANE('',#341);
#240=PLANE('',#342);
#241=PLANE('',#343);
#242=PLANE('',#344);
#243=PLANE('',#345);
#244=PLANE('',#346);
#245=PLANE('',#347);
#246=PLANE('',#348);
#247=PLANE('',#349);
#248=PLANE('',#350);
#249=PLANE('',#351);
#250=SHAPE_DEFINITION_REPRESENTATION(#251,#336);
#251=PRODUCT_DEFINITION_SHAPE($,$,#253);
#252=PRODUCT_DEFINITION_CONTEXT('3D Mechanical Parts',#325,'design');
#253=PRODUCT_DEFINITION('A','First version',#295,#252);
#254=DATE_TIME_ROLE('classification_date');
#255=DATE_TIME_ROLE('creation_date');
#256=APPLIED_DATE_AND_TIME_ASSIGNMENT(#280,#254,(#259));
#257=APPLIED_DATE_AND_TIME_ASSIGNMENT(#282,#255,(#253));
#258=SECURITY_CLASSIFICATION_LEVEL('unclassified');
#259=SECURITY_CLASSIFICATION('A','Security for version',#258);
#260=APPLIED_SECURITY_CLASSIFICATION_ASSIGNMENT(#259,(#295));
#261=APPROVAL_ROLE('Version approval');
#262=APPROVAL_ROLE('Version Security approval');
#263=APPROVAL_ROLE('Definition approval');
#264=APPROVAL_PERSON_ORGANIZATION(#313,#289,#261);
#265=APPROVAL_PERSON_ORGANIZATION(#314,#290,#262);
#266=APPROVAL_PERSON_ORGANIZATION(#317,#291,#263);
#267=COORDINATED_UNIVERSAL_TIME_OFFSET(5,0,.BEHIND.);
#268=LOCAL_TIME(0,0,0.,#267);
#269=LOCAL_TIME(0,0,0.,#267);
#270=LOCAL_TIME(0,0,0.,#267);
#271=LOCAL_TIME(0,0,0.,#267);
#272=LOCAL_TIME(0,0,0.,#267);
#273=CALENDAR_DATE(1999,1,1);
#274=CALENDAR_DATE(1999,1,1);
#275=CALENDAR_DATE(1999,1,1);
#276=CALENDAR_DATE(1999,1,1);
#277=CALENDAR_DATE(1999,1,1);
#278=DATE_AND_TIME(#273,#268);
#279=DATE_AND_TIME(#274,#269);
#280=DATE_AND_TIME(#275,#270);
#281=DATE_AND_TIME(#276,#271);
#282=DATE_AND_TIME(#277,#272);
#283=APPROVAL_DATE_TIME(#278,#289);
#284=APPROVAL_DATE_TIME(#279,#290);
#285=APPROVAL_DATE_TIME(#281,#291);
#286=APPROVAL_STATUS('not_yet_approved');
#287=APPROVAL_STATUS('not_yet_approved');
#288=APPROVAL_STATUS('approved');
#289=APPROVAL(#286,'Version approval');
#290=APPROVAL(#287,'Version Security approval');
#291=APPROVAL(#288,'Definition approval');
#292=APPLIED_APPROVAL_ASSIGNMENT(#289,(#295));
#293=APPLIED_APPROVAL_ASSIGNMENT(#290,(#259));
#294=APPLIED_APPROVAL_ASSIGNMENT(#291,(#253));
#295=PRODUCT_DEFINITION_FORMATION_WITH_SPECIFIED_SOURCE('A',
'First version',#327,.MADE.);
#296=PERSON_AND_ORGANIZATION_ROLE('design_owner');
#297=PERSON_AND_ORGANIZATION_ROLE('creator');
#298=PERSON_AND_ORGANIZATION_ROLE('design_supplier');
#299=PERSON_AND_ORGANIZATION_ROLE('classification_officer');
#300=PERSON_AND_ORGANIZATION_ROLE('creator');
#301=ORGANIZATION('STI','lab','lab');
#302=ORGANIZATION('STI','unknown','unknown');
#303=ORGANIZATION('STI','unknown','unknown');
#304=ORGANIZATION('STI','unknown','unknown');
#305=ORGANIZATION('STI','unknown','unknown');
#306=ORGANIZATION('STI','unknown','unknown');
#307=ORGANIZATION('STI','unknown','unknown');
#308=PERSON('1','Box','vc60',$,$,$);
#309=PERSON('2','last','first',$,$,$);
#310=PERSON('3','President','Mr.',$,$,$);
#311=PERSON_AND_ORGANIZATION(#308,#301);
#312=PERSON_AND_ORGANIZATION(#309,#302);
#313=PERSON_AND_ORGANIZATION(#310,#303);
#314=PERSON_AND_ORGANIZATION(#310,#304);
#315=PERSON_AND_ORGANIZATION(#310,#305);
#316=PERSON_AND_ORGANIZATION(#309,#306);
#317=PERSON_AND_ORGANIZATION(#310,#307);
#318=APPLIED_PERSON_AND_ORGANIZATION_ASSIGNMENT(#311,#296,(#327));
#319=APPLIED_PERSON_AND_ORGANIZATION_ASSIGNMENT(#312,#297,(#295));
#320=APPLIED_PERSON_AND_ORGANIZATION_ASSIGNMENT(#312,#298,(#295));
#321=APPLIED_PERSON_AND_ORGANIZATION_ASSIGNMENT(#315,#299,(#259));
#322=APPLIED_PERSON_AND_ORGANIZATION_ASSIGNMENT(#316,#300,(#253));
#323=PRODUCT_RELATED_PRODUCT_CATEGORY('detail','detail',(#327));
#324=APPLICATION_PROTOCOL_DEFINITION('International Standard',
'config_control_design',1994,#325);
#325=APPLICATION_CONTEXT(
'configuration controlled 3d designs of mechanical parts and assemblie
s');
#326=PRODUCT_CONTEXT('3D Mechanical Parts',#325,'mechanical');
#327=PRODUCT('Document','Document','',(#326));
#328=(
LENGTH_UNIT()
NAMED_UNIT(*)
SI_UNIT(.MILLI.,.METRE.)
);
#329=(
NAMED_UNIT(*)
PLANE_ANGLE_UNIT()
SI_UNIT($,.RADIAN.)
);
#330=DIMENSIONAL_EXPONENTS(0.,0.,0.,0.,0.,0.,0.);
#331=PLANE_ANGLE_MEASURE_WITH_UNIT(PLANE_ANGLE_MEASURE(0.01745329252),#329);
#332=(
CONVERSION_BASED_UNIT('DEGREES',#331)
NAMED_UNIT(#330)
PLANE_ANGLE_UNIT()
);
#333=(
NAMED_UNIT(*)
SI_UNIT($,.STERADIAN.)
SOLID_ANGLE_UNIT()
);
#334=UNCERTAINTY_MEASURE_WITH_UNIT(LENGTH_MEASURE(0.001),#328,
'DISTANCE_ACCURACY_VALUE',
'Maximum model space distance between geometric entities at asserted c
onnectivities');
#335=(
GEOMETRIC_REPRESENTATION_CONTEXT(3)
GLOBAL_UNCERTAINTY_ASSIGNED_CONTEXT((#334))
GLOBAL_UNIT_ASSIGNED_CONTEXT((#333,#332,#328))
REPRESENTATION_CONTEXT('ID1','3D')
);
#336=SHAPE_REPRESENTATION('Document',(#337,#352),#335);
#337=AXIS2_PLACEMENT_3D($,#371,#353,#354);
#338=AXIS2_PLACEMENT_3D('',#372,#355,$);
#339=AXIS2_PLACEMENT_3D('',#373,#356,$);
#340=AXIS2_PLACEMENT_3D('',#374,#357,$);
#341=AXIS2_PLACEMENT_3D('',#375,#358,$);
#342=AXIS2_PLACEMENT_3D('',#376,#359,$);
#343=AXIS2_PLACEMENT_3D('',#377,#360,$);
#344=AXIS2_PLACEMENT_3D('',#378,#361,$);
#345=AXIS2_PLACEMENT_3D('',#379,#362,$);
#346=AXIS2_PLACEMENT_3D('',#380,#363,$);
#347=AXIS2_PLACEMENT_3D('',#381,#364,$);
#348=AXIS2_PLACEMENT_3D('',#382,#365,$);
#349=AXIS2_PLACEMENT_3D('',#383,#366,$);
#350=AXIS2_PLACEMENT_3D('',#384,#367,$);
#351=AXIS2_PLACEMENT_3D('',#385,#368,$);
#352=AXIS2_PLACEMENT_3D($,#716,#369,#370);
#353=DIRECTION('',(0.,0.,1.));
#354=DIRECTION('',(1.,0.,0.));
#355=DIRECTION('',(0.,-1.,0.));
#356=DIRECTION('',(-1.,0.,0.));
#357=DIRECTION('',(1.,0.,0.));
#358=DIRECTION('',(0.,1.,0.));
#359=DIRECTION('',(1.,0.,0.));
#360=DIRECTION('',(0.,-1.,0.));
#361=DIRECTION('',(-1.,0.,0.));
#362=DIRECTION('',(0.,1.,0.));
#363=DIRECTION('',(0.,0.0376204085410159,-0.999292101870723));
#364=DIRECTION('',(0.,0.0376204085410159,-0.999292101870723));
#365=DIRECTION('',(-2.82580155425491E-17,-0.0376204085410159,0.999292101870723));
#366=DIRECTION('',(0.,0.037620408541016,-0.999292101870723));
#367=DIRECTION('',(1.,0.,0.));
#368=DIRECTION('',(-1.,0.,0.));
#369=DIRECTION('',(0.,0.,1.));
#370=DIRECTION('',(1.,0.,0.));
#371=CARTESIAN_POINT('',(0.,0.,0.));
#372=CARTESIAN_POINT('',(33.,-36.,8.76135080462474));
#373=CARTESIAN_POINT('',(33.,2.49999999999967,8.76135080462474));
#374=CARTESIAN_POINT('',(45.2,-36.,8.76135080462474));
#375=CARTESIAN_POINT('',(45.2,2.49999999999967,8.76135080462474));
#376=CARTESIAN_POINT('',(64.,-36.,8.76135080462474));
#377=CARTESIAN_POINT('',(60.3494311668265,-36.,8.76135080462474));
#378=CARTESIAN_POINT('',(60.3494311668265,2.49999999999969,8.76135080462474));
#379=CARTESIAN_POINT('',(60.3494311668265,2.49999999999969,8.76135080462474));
#380=CARTESIAN_POINT('',(31.0579999999998,-38.3133988959096,10.0021236943878));
#381=CARTESIAN_POINT('',(31.0579999999998,-38.3133988959096,10.0021236943878));
#382=CARTESIAN_POINT('',(31.0579999999998,-38.4262601215327,13.));
#383=CARTESIAN_POINT('',(31.0579999999998,-38.3886397129917,12.0007078981293));
#384=CARTESIAN_POINT('',(65.5999999999999,2.81863426719152,14.5527489652226));
#385=CARTESIAN_POINT('',(31.4000000000009,-36.75,13.0631062633989));
#386=CARTESIAN_POINT('',(65.5999999999999,2.85625467573254,13.5534568633519));
#387=CARTESIAN_POINT('',(65.5999999999999,2.81863426719152,14.5527489652226));
#388=CARTESIAN_POINT('',(65.5932755585683,3.16522532537158,13.5650886995736));
#389=CARTESIAN_POINT('',(65.5999999999999,3.1288273286094,14.5644268216524));
#390=CARTESIAN_POINT('',(65.4709881781761,3.4605369962211,13.5762063154173));
#391=CARTESIAN_POINT('',(65.4846772304947,3.4276491513959,14.5756765843926));
#392=CARTESIAN_POINT('',(65.2501309725714,3.69113640931055,13.5848877050866));
#393=CARTESIAN_POINT('',(65.2705805657143,3.66428290267824,14.5845851491468));
#394=CARTESIAN_POINT('',(65.243499931,3.69790293720523,13.5851424449602));
#395=CARTESIAN_POINT('',(65.264134630616,3.67124679127409,14.5848473190704));
#396=CARTESIAN_POINT('',(65.2367996304462,3.70458577082609,13.5853940339907));
#397=CARTESIAN_POINT('',(65.2576027494247,3.67814415616103,14.585106984572));
#398=CARTESIAN_POINT('',(65.0184670921553,3.92234914065022,13.5935921843841));
#399=CARTESIAN_POINT('',(65.0447604946898,3.9028957478184,14.5935682209638));
#400=CARTESIAN_POINT('',(64.7265944117036,4.05124477680135,13.5984447259803));
#401=CARTESIAN_POINT('',(64.7563169996223,4.04046743475306,14.5987473903543));
#402=CARTESIAN_POINT('',(64.4179884012215,4.06678392861011,13.5990297293425));
#403=CARTESIAN_POINT('',(64.4483229604173,4.06476170515499,14.5996619981812));
#404=CARTESIAN_POINT('',(64.4077601319726,4.06734107627837,13.5990507043136));
#405=CARTESIAN_POINT('',(64.4382317709572,4.06555768836965,14.5996919646081));
#406=CARTESIAN_POINT('',(64.3975318407852,4.06789768654703,13.5990716590531));
#407=CARTESIAN_POINT('',(64.4281195940822,4.06623206882408,14.5997173530487));
#408=CARTESIAN_POINT('',(64.3873035277018,4.06845375941609,13.5990925935611));
#409=CARTESIAN_POINT('',(64.4179884012215,4.0667839286101,14.5997381289466));
#410=CARTESIAN_POINT('',(53.8035798065038,4.64384889710971,13.6207545281566));
#411=CARTESIAN_POINT('',(53.8138562627876,4.64440535712997,14.6214838768438));
#412=CARTESIAN_POINT('',(43.1964118903177,4.64384874686125,13.6207545225002));
#413=CARTESIAN_POINT('',(43.1861437372121,4.64440535712997,14.6214838768438));
#414=CARTESIAN_POINT('',(32.6126881813622,4.06845330867061,13.5990925765919));
#415=CARTESIAN_POINT('',(32.5820115987783,4.06678392861013,14.5997381289466));
#416=CARTESIAN_POINT('',(32.6024626319359,4.06789738575967,13.5990716477293));
#417=CARTESIAN_POINT('',(32.5718831433214,4.0662322179342,14.5997173586623));
#418=CARTESIAN_POINT('',(32.5922371043938,4.06734092573949,13.5990506986462));
#419=CARTESIAN_POINT('',(32.5617736935755,4.06555805279001,14.5996919783275));
#420=CARTESIAN_POINT('',(32.5820115987783,4.06678392861009,13.5990297293425));
#421=CARTESIAN_POINT('',(32.5516852193723,4.06476235034189,14.5996620224706));
#422=CARTESIAN_POINT('',(32.2734030656534,4.05124754934773,13.5984448303586));
#423=CARTESIAN_POINT('',(32.2436881074212,4.04046987052256,14.5987474820539));
#424=CARTESIAN_POINT('',(31.9815260999473,3.92235335803337,13.5935923431561));
#425=CARTESIAN_POINT('',(31.9552413895498,3.90289773748879,14.5935682958691));
#426=CARTESIAN_POINT('',(31.7631914878825,3.70458760061808,13.585394102877));
#427=CARTESIAN_POINT('',(31.7423972505751,3.67814415616114,14.585106984572));
#428=CARTESIAN_POINT('',(31.7564952896212,3.69790884880504,13.5851426675146));
#429=CARTESIAN_POINT('',(31.7358693727742,3.67125101866964,14.5848474782194));
#430=CARTESIAN_POINT('',(31.749868266326,3.69114650315438,13.5848880850901));
#431=CARTESIAN_POINT('',(31.7294273357459,3.66429143898899,14.5845854705138));
#432=CARTESIAN_POINT('',(31.5290080492001,3.46054989353739,13.5762068009633));
#433=CARTESIAN_POINT('',(31.5153270969918,3.42766036457507,14.5756770065359));
#434=CARTESIAN_POINT('',(31.4067184916679,3.16523203106812,13.5650889520233));
#435=CARTESIAN_POINT('',(31.3999999999999,3.12883314855182,14.5644270407562));
#436=CARTESIAN_POINT('',(31.3999999999999,2.85625467573254,13.5534568633519));
#437=CARTESIAN_POINT('',(31.3999999999999,2.81863426719153,14.5527489652226));
#438=CARTESIAN_POINT('',(65.6000000000009,-36.7499999999995,13.0631062633989));
#439=CARTESIAN_POINT('',(65.6000000000009,-36.7123795914585,12.0638141615282));
#440=CARTESIAN_POINT('',(65.6000000000009,-36.7623562455885,13.0626410870944));
#441=CARTESIAN_POINT('',(65.600000000001,-36.7249197276388,12.0633420622837));
#442=CARTESIAN_POINT('',(65.5998170446187,-36.7746937499252,13.0621766163429));
#443=CARTESIAN_POINT('',(65.600000000001,-36.7374598638192,12.0628699630393));
#444=CARTESIAN_POINT('',(65.599452626924,-36.7870088859985,13.0617129876907));
#445=CARTESIAN_POINT('',(65.6000000000011,-36.7499999999995,12.0623978637949));
#446=CARTESIAN_POINT('',(65.590044317947,-37.1049533957161,13.0497433120307));
#447=CARTESIAN_POINT('',(65.6,-37.0696780904477,12.0503629239192));
#448=CARTESIAN_POINT('',(65.4596846725536,-37.4079886312857,13.0383349266916));
#449=CARTESIAN_POINT('',(65.4775389802601,-37.3768117405856,12.0388002453257));
#450=CARTESIAN_POINT('',(65.2258206136394,-37.6419497227211,13.02952697972));
#451=CARTESIAN_POINT('',(65.250466095784,-37.6170624455869,12.0297555129022));
#452=CARTESIAN_POINT('',(65.2174709470389,-37.6500722368958,13.029221190951));
#453=CARTESIAN_POINT('',(65.2423303344182,-37.6254331518951,12.0294403804294));
#454=CARTESIAN_POINT('',(64.9772874167086,-37.8772959802515,13.0206668853188));
#455=CARTESIAN_POINT('',(65.0074497260503,-37.8604112145607,12.020594147482));
#456=CARTESIAN_POINT('',(64.6700101879022,-38.,13.0160474398695));
#457=CARTESIAN_POINT('',(64.7026700805207,-37.9911481168927,12.0156722876295));
#458=CARTESIAN_POINT('',(64.35,-38.,13.0160474398695));
#459=CARTESIAN_POINT('',(64.3829366253586,-37.9995665279547,12.015355359213));
#460=CARTESIAN_POINT('',(64.3388898467546,-38.,13.0160474398695));
#461=CARTESIAN_POINT('',(64.3719744789958,-37.9998551554121,12.0153444932382));
#462=CARTESIAN_POINT('',(64.3277796935093,-38.,13.0160474398695));
#463=CARTESIAN_POINT('',(64.3609947547375,-38.,12.0153390402654));
#464=CARTESIAN_POINT('',(64.316669540264,-38.,13.0160474398695));
#465=CARTESIAN_POINT('',(64.35,-38.,12.0153390402654));
#466=CARTESIAN_POINT('',(53.772223180088,-38.,13.0160474398695));
#467=CARTESIAN_POINT('',(53.7833333333333,-38.,12.0153390402654));
#468=CARTESIAN_POINT('',(43.2277768199119,-38.,13.0160474398695));
#469=CARTESIAN_POINT('',(43.2166666666667,-38.,12.0153390402654));
#470=CARTESIAN_POINT('',(32.6833304597359,-38.,13.0160474398695));
#471=CARTESIAN_POINT('',(32.65,-38.,12.0153390402654));
#472=CARTESIAN_POINT('',(32.6722203064906,-38.,13.0160474398695));
#473=CARTESIAN_POINT('',(32.6390052452625,-38.,12.0153390402654));
#474=CARTESIAN_POINT('',(32.6611101532453,-38.,13.0160474398695));
#475=CARTESIAN_POINT('',(32.6280255210042,-37.9998551554121,12.0153444932382));
#476=CARTESIAN_POINT('',(32.65,-38.,13.0160474398695));
#477=CARTESIAN_POINT('',(32.6170633746414,-37.9995665279547,12.015355359213));
#478=CARTESIAN_POINT('',(32.3299898120978,-38.,13.0160474398695));
#479=CARTESIAN_POINT('',(32.2973299194793,-37.9911481168927,12.0156722876295));
#480=CARTESIAN_POINT('',(32.0227125832914,-37.8772959802515,13.0206668853188));
#481=CARTESIAN_POINT('',(31.9925502739497,-37.8604112145607,12.020594147482));
#482=CARTESIAN_POINT('',(31.7825290529611,-37.6500722368959,13.029221190951));
#483=CARTESIAN_POINT('',(31.7576696655817,-37.6254331518951,12.0294403804294));
#484=CARTESIAN_POINT('',(31.7741793863606,-37.6419497227211,13.02952697972));
#485=CARTESIAN_POINT('',(31.7495339042159,-37.6170624455868,12.0297555129022));
#486=CARTESIAN_POINT('',(31.5403153274464,-37.4079886312858,13.0383349266916));
#487=CARTESIAN_POINT('',(31.5224610197398,-37.3768117405856,12.0388002453257));
#488=CARTESIAN_POINT('',(31.409955682053,-37.1049533957161,13.0497433120307));
#489=CARTESIAN_POINT('',(31.4,-37.0696780904478,12.0503629239192));
#490=CARTESIAN_POINT('',(31.4005473730776,-36.7870088859989,13.0617129876907));
#491=CARTESIAN_POINT('',(31.4000000000011,-36.75,12.0623978637948));
#492=CARTESIAN_POINT('',(31.400182955383,-36.7746937499257,13.0621766163429));
#493=CARTESIAN_POINT('',(31.400000000001,-36.7374598638197,12.0628699630393));
#494=CARTESIAN_POINT('',(31.4000000000009,-36.762356245589,13.0626410870944));
#495=CARTESIAN_POINT('',(31.400000000001,-36.7249197276393,12.0633420622837));
#496=CARTESIAN_POINT('',(31.4000000000009,-36.75,13.0631062633989));
#497=CARTESIAN_POINT('',(31.4000000000009,-36.712379591459,12.0638141615282));
#498=CARTESIAN_POINT('',(45.2,-36.,10.0892163587044));
#499=CARTESIAN_POINT('',(33.,-36.,10.0892163587044));
#500=CARTESIAN_POINT('',(33.,2.49999999999967,11.5386281234103));
#501=CARTESIAN_POINT('',(45.2,2.49999999999967,11.5386281234103));
#502=CARTESIAN_POINT('',(33.,-36.,12.0906331579125));
#503=CARTESIAN_POINT('',(45.2,-36.,12.0906331579125));
#504=CARTESIAN_POINT('',(33.,2.49999999999967,13.5400449226184));
#505=CARTESIAN_POINT('',(45.2,2.49999999999967,13.5400449226184));
#506=CARTESIAN_POINT('',(64.,2.49999999999969,11.5386281234103));
#507=CARTESIAN_POINT('',(64.,-36.,10.0892163587044));
#508=CARTESIAN_POINT('',(60.3494311668265,-36.,10.0892163587044));
#509=CARTESIAN_POINT('',(60.3494311668265,2.49999999999969,11.5386281234103));
#510=CARTESIAN_POINT('',(64.,-36.,12.0906331579125));
#511=CARTESIAN_POINT('',(64.,2.49999999999969,13.5400449226184));
#512=CARTESIAN_POINT('',(60.3494311668265,-36.,12.0906331579125));
#513=CARTESIAN_POINT('',(60.3494311668265,2.49999999999969,13.5400449226184));
#514=CARTESIAN_POINT('',(65.6000000000009,-36.7499999999995,13.0631062633989));
#515=CARTESIAN_POINT('',(31.4000000000009,-36.75,13.0631062633989));
#516=CARTESIAN_POINT('',(65.5999999999999,2.81863426719152,14.5527489652226));
#517=CARTESIAN_POINT('',(31.3999999999999,2.81863426719153,14.5527489652226));
#518=CARTESIAN_POINT('',(65.5999999999999,2.85625467573254,13.5534568633519));
#519=CARTESIAN_POINT('',(65.6000000000009,-36.7123795914585,12.0638141615282));
#520=CARTESIAN_POINT('',(31.3999999999999,2.85625467573254,13.5534568633519));
#521=CARTESIAN_POINT('',(31.4000000000009,-36.712379591459,12.0638141615282));
#522=CARTESIAN_POINT('',(45.2,-36.,10.0892163587044));
#523=CARTESIAN_POINT('',(33.,-36.,10.0892163587044));
#524=CARTESIAN_POINT('',(45.2,-36.,10.0892163587044));
#525=CARTESIAN_POINT('',(45.2,-36.,12.0906331579125));
#526=CARTESIAN_POINT('',(33.,-36.,12.0906331579125));
#527=CARTESIAN_POINT('',(45.2,-36.,12.0906331579125));
#528=CARTESIAN_POINT('',(33.,-36.,10.0892163587044));
#529=CARTESIAN_POINT('',(33.,-36.,12.0906331579125));
#530=CARTESIAN_POINT('',(33.,2.49999999999967,11.5386281234103));
#531=CARTESIAN_POINT('',(33.,2.49999999999967,13.5400449226184));
#532=CARTESIAN_POINT('',(45.2,2.49999999999967,11.5386281234103));
#533=CARTESIAN_POINT('',(45.2,2.49999999999967,13.5400449226184));
#534=CARTESIAN_POINT('',(33.,2.49999999999967,11.5386281234103));
#535=CARTESIAN_POINT('',(45.2,2.49999999999967,11.5386281234103));
#536=CARTESIAN_POINT('',(45.2,2.49999999999967,13.5400449226184));
#537=CARTESIAN_POINT('',(33.,2.49999999999967,13.5400449226184));
#538=CARTESIAN_POINT('',(64.,2.49999999999969,11.5386281234103));
#539=CARTESIAN_POINT('',(64.,2.49999999999969,13.5400449226184));
#540=CARTESIAN_POINT('',(60.3494311668265,-36.,12.0906331579125));
#541=CARTESIAN_POINT('',(64.,-36.,12.0906331579125));
#542=CARTESIAN_POINT('',(64.,-36.,10.0892163587044));
#543=CARTESIAN_POINT('',(64.,-36.,12.0906331579125));
#544=CARTESIAN_POINT('',(64.,-36.,10.0892163587044));
#545=CARTESIAN_POINT('',(60.3494311668265,-36.,10.0892163587044));
#546=CARTESIAN_POINT('',(60.3494311668265,-36.,10.0892163587044));
#547=CARTESIAN_POINT('',(60.3494311668265,-36.,12.0906331579125));
#548=CARTESIAN_POINT('',(60.3494311668265,2.49999999999969,11.5386281234103));
#549=CARTESIAN_POINT('',(60.3494311668265,2.49999999999969,13.5400449226184));
#550=CARTESIAN_POINT('',(64.,2.49999999999969,11.5386281234103));
#551=CARTESIAN_POINT('',(60.3494311668265,2.49999999999969,11.5386281234103));
#552=CARTESIAN_POINT('',(60.3494311668265,2.49999999999969,13.5400449226184));
#553=CARTESIAN_POINT('',(64.,2.49999999999969,13.5400449226184));
#554=CARTESIAN_POINT('',(64.,2.49999999999969,11.5386281234103));
#555=CARTESIAN_POINT('',(64.,-36.,10.0892163587044));
#556=CARTESIAN_POINT('',(60.3494311668265,-36.,10.0892163587044));
#557=CARTESIAN_POINT('',(60.3494311668265,2.49999999999969,11.5386281234103));
#558=CARTESIAN_POINT('',(33.,-36.,10.0892163587044));
#559=CARTESIAN_POINT('',(33.,2.49999999999967,11.5386281234103));
#560=CARTESIAN_POINT('',(45.2,2.49999999999967,11.5386281234103));
#561=CARTESIAN_POINT('',(45.2,-36.,10.0892163587044));
#562=CARTESIAN_POINT('',(65.5999999999999,2.81863426719152,14.5527489652226));
#563=CARTESIAN_POINT('',(65.6000000000002,-11.8637601215313,14.0000000000001));
#564=CARTESIAN_POINT('',(65.6000000000009,-36.7499999999995,13.0631062633989));
#565=CARTESIAN_POINT('',(64.,-36.,12.0906331579125));
#566=CARTESIAN_POINT('',(64.,2.49999999999969,13.5400449226184));
#567=CARTESIAN_POINT('',(60.3494311668265,2.49999999999969,13.5400449226184));
#568=CARTESIAN_POINT('',(60.3494311668265,-36.,12.0906331579125));
#569=CARTESIAN_POINT('',(33.,2.49999999999967,13.5400449226184));
#570=CARTESIAN_POINT('',(33.,-36.,12.0906331579125));
#571=CARTESIAN_POINT('',(45.2,-36.,12.0906331579125));
#572=CARTESIAN_POINT('',(45.2,2.49999999999967,13.5400449226184));
#573=CARTESIAN_POINT('',(65.5999999999999,2.81863426719152,14.5527489652226));
#574=CARTESIAN_POINT('',(65.5999999999999,2.85625467573254,13.5534568633519));
#575=CARTESIAN_POINT('',(65.6000000000009,-36.7499999999995,13.0631062633989));
#576=CARTESIAN_POINT('',(65.6000000000009,-36.7123795914585,12.0638141615282));
#577=CARTESIAN_POINT('',(31.3999999999999,2.81863426719153,14.5527489652226));
#578=CARTESIAN_POINT('',(31.3999999999999,2.85625467573254,13.5534568633519));
#579=CARTESIAN_POINT('',(31.4000000000009,-36.75,13.0631062633989));
#580=CARTESIAN_POINT('',(31.4000000000008,-28.4545867071778,13.3754041755993));
#581=CARTESIAN_POINT('',(31.4000000000007,-20.1591734143556,13.6877020877996));
#582=CARTESIAN_POINT('',(31.4000000000006,-11.8637601215334,14.));
#583=CARTESIAN_POINT('',(31.4,-7.13629532529189,14.1779751452703));
#584=CARTESIAN_POINT('',(31.4,-2.40883052905018,14.3559502905405));
#585=CARTESIAN_POINT('',(31.4,2.31863426719153,14.5339254358108));
#586=CARTESIAN_POINT('',(31.4000485048861,2.32762493268019,14.5342639079233));
#587=CARTESIAN_POINT('',(31.4000970097722,2.33661559816886,14.5346023800359));
#588=CARTESIAN_POINT('',(31.4001455146583,2.34560626365752,14.5349408521484));
#589=CARTESIAN_POINT('',(31.4000970097721,2.50328226483551,14.5408768898398));
#590=CARTESIAN_POINT('',(31.400048504886,2.66095826601352,14.5468129275312));
#591=CARTESIAN_POINT('',(31.3999999999999,2.81863426719153,14.5527489652226));
#592=CARTESIAN_POINT('',(31.4000000000009,-36.75,13.0631062633989));
#593=CARTESIAN_POINT('',(31.4000000000009,-36.712379591459,12.0638141615282));
#594=CARTESIAN_POINT('',(31.4000000000009,-36.712379591459,12.0638141615282));
#595=CARTESIAN_POINT('',(31.4000000000022,-23.531751908241,12.5600260272493));
#596=CARTESIAN_POINT('',(31.4000000000035,-10.351124225023,13.0562378929705));
#597=CARTESIAN_POINT('',(31.4000000000048,2.82950345819497,13.5524497586916));
#598=CARTESIAN_POINT('',(31.4000000000032,2.8384205307075,13.552785460245));
#599=CARTESIAN_POINT('',(31.4000000000015,2.84733760322002,13.5531211617985));
#600=CARTESIAN_POINT('',(31.3999999999999,2.85625467573254,13.5534568633519));
#601=CARTESIAN_POINT('',(65.5999999999999,2.85625467573254,13.5534568633519));
#602=CARTESIAN_POINT('',(65.6,2.82947863443139,13.5524488241499));
#603=CARTESIAN_POINT('',(65.6000000000009,-36.7123795914585,12.0638141615282));
#604=CARTESIAN_POINT('',(65.5999999999999,2.85625467573254,13.5534568633519));
#605=CARTESIAN_POINT('',(65.5932755585683,3.16522532537158,13.5650886995736));
#606=CARTESIAN_POINT('',(65.4709881781761,3.4605369962211,13.5762063154173));
#607=CARTESIAN_POINT('',(65.2501309725714,3.69113640931055,13.5848877050866));
#608=CARTESIAN_POINT('',(65.243499931,3.69790293720523,13.5851424449602));
#609=CARTESIAN_POINT('',(65.2367996304462,3.70458577082609,13.5853940339907));
#610=CARTESIAN_POINT('',(65.0184670921553,3.92234914065022,13.5935921843841));
#611=CARTESIAN_POINT('',(64.7265944117036,4.05124477680135,13.5984447259803));
#612=CARTESIAN_POINT('',(64.4179884012215,4.06678392861011,13.5990297293425));
#613=CARTESIAN_POINT('',(64.4077601319726,4.06734107627837,13.5990507043136));
#614=CARTESIAN_POINT('',(64.3975318407852,4.06789768654703,13.5990716590531));
#615=CARTESIAN_POINT('',(64.3873035277018,4.06845375941609,13.5990925935611));
#616=CARTESIAN_POINT('',(53.8035798065038,4.64384889710971,13.6207545281566));
#617=CARTESIAN_POINT('',(43.1964118903177,4.64384874686125,13.6207545225002));
#618=CARTESIAN_POINT('',(32.6126881813622,4.06845330867061,13.5990925765919));
#619=CARTESIAN_POINT('',(32.6024626319359,4.06789738575967,13.5990716477293));
#620=CARTESIAN_POINT('',(32.5922371043938,4.06734092573949,13.5990506986462));
#621=CARTESIAN_POINT('',(32.5820115987783,4.06678392861009,13.5990297293425));
#622=CARTESIAN_POINT('',(32.2734030656534,4.05124754934773,13.5984448303586));
#623=CARTESIAN_POINT('',(31.9815260999473,3.92235335803337,13.5935923431561));
#624=CARTESIAN_POINT('',(31.7631914878825,3.70458760061808,13.585394102877));
#625=CARTESIAN_POINT('',(31.7564952896212,3.69790884880504,13.5851426675146));
#626=CARTESIAN_POINT('',(31.749868266326,3.69114650315438,13.5848880850901));
#627=CARTESIAN_POINT('',(31.5290080492001,3.46054989353739,13.5762068009633));
#628=CARTESIAN_POINT('',(31.4067184916679,3.16523203106812,13.5650889520233));
#629=CARTESIAN_POINT('',(31.3999999999999,2.85625467573254,13.5534568633519));
#630=CARTESIAN_POINT('',(31.3999999999999,2.81863426719153,14.5527489652226));
#631=CARTESIAN_POINT('',(31.3999999999999,3.12883314855182,14.5644270407562));
#632=CARTESIAN_POINT('',(31.5153270969918,3.42766036457507,14.5756770065359));
#633=CARTESIAN_POINT('',(31.7294273357459,3.66429143898899,14.5845854705138));
#634=CARTESIAN_POINT('',(31.7358693727742,3.67125101866964,14.5848474782194));
#635=CARTESIAN_POINT('',(31.7423972505751,3.67814415616114,14.585106984572));
#636=CARTESIAN_POINT('',(31.9552413895498,3.90289773748879,14.5935682958691));
#637=CARTESIAN_POINT('',(32.2436881074212,4.04046987052256,14.5987474820539));
#638=CARTESIAN_POINT('',(32.5516852193723,4.06476235034189,14.5996620224706));
#639=CARTESIAN_POINT('',(32.5617736935755,4.06555805279001,14.5996919783275));
#640=CARTESIAN_POINT('',(32.5718831433214,4.0662322179342,14.5997173586623));
#641=CARTESIAN_POINT('',(32.5820115987783,4.06678392861013,14.5997381289466));
#642=CARTESIAN_POINT('',(43.1861437372121,4.64440535712997,14.6214838768438));
#643=CARTESIAN_POINT('',(53.8138562627876,4.64440535712997,14.6214838768438));
#644=CARTESIAN_POINT('',(64.4179884012215,4.0667839286101,14.5997381289466));
#645=CARTESIAN_POINT('',(64.4281195940822,4.06623206882408,14.5997173530487));
#646=CARTESIAN_POINT('',(64.4382317709572,4.06555768836965,14.5996919646081));
#647=CARTESIAN_POINT('',(64.4483229604173,4.06476170515499,14.5996619981812));
#648=CARTESIAN_POINT('',(64.7563169996223,4.04046743475306,14.5987473903543));
#649=CARTESIAN_POINT('',(65.0447604946898,3.9028957478184,14.5935682209638));
#650=CARTESIAN_POINT('',(65.2576027494247,3.67814415616103,14.585106984572));
#651=CARTESIAN_POINT('',(65.264134630616,3.67124679127409,14.5848473190704));
#652=CARTESIAN_POINT('',(65.2705805657143,3.66428290267824,14.5845851491468));
#653=CARTESIAN_POINT('',(65.4846772304947,3.4276491513959,14.5756765843926));
#654=CARTESIAN_POINT('',(65.5999999999999,3.1288273286094,14.5644268216524));
#655=CARTESIAN_POINT('',(65.5999999999999,2.81863426719152,14.5527489652226));
#656=CARTESIAN_POINT('',(65.6000000000009,-36.7123795914585,12.0638141615282));
#657=CARTESIAN_POINT('',(65.600000000001,-36.7249197276388,12.0633420622837));
#658=CARTESIAN_POINT('',(65.600000000001,-36.7374598638192,12.0628699630393));
#659=CARTESIAN_POINT('',(65.6000000000011,-36.7499999999995,12.0623978637949));
#660=CARTESIAN_POINT('',(65.6,-37.0696780904477,12.0503629239192));
#661=CARTESIAN_POINT('',(65.4775389802601,-37.3768117405856,12.0388002453257));
#662=CARTESIAN_POINT('',(65.250466095784,-37.6170624455869,12.0297555129022));
#663=CARTESIAN_POINT('',(65.2423303344182,-37.6254331518951,12.0294403804294));
#664=CARTESIAN_POINT('',(65.0074497260503,-37.8604112145607,12.020594147482));
#665=CARTESIAN_POINT('',(64.7026700805207,-37.9911481168927,12.0156722876295));
#666=CARTESIAN_POINT('',(64.3829366253586,-37.9995665279547,12.015355359213));
#667=CARTESIAN_POINT('',(64.3719744789958,-37.9998551554121,12.0153444932382));
#668=CARTESIAN_POINT('',(64.3609947547375,-38.,12.0153390402654));
#669=CARTESIAN_POINT('',(64.35,-38.,12.0153390402654));
#670=CARTESIAN_POINT('',(53.7833333333333,-38.,12.0153390402654));
#671=CARTESIAN_POINT('',(43.2166666666667,-38.,12.0153390402654));
#672=CARTESIAN_POINT('',(32.65,-38.,12.0153390402654));
#673=CARTESIAN_POINT('',(32.6390052452625,-38.,12.0153390402654));
#674=CARTESIAN_POINT('',(32.6280255210042,-37.9998551554121,12.0153444932382));
#675=CARTESIAN_POINT('',(32.6170633746414,-37.9995665279547,12.015355359213));
#676=CARTESIAN_POINT('',(32.2973299194793,-37.9911481168927,12.0156722876295));
#677=CARTESIAN_POINT('',(31.9925502739497,-37.8604112145607,12.020594147482));
#678=CARTESIAN_POINT('',(31.7576696655817,-37.6254331518951,12.0294403804294));
#679=CARTESIAN_POINT('',(31.7495339042159,-37.6170624455868,12.0297555129022));
#680=CARTESIAN_POINT('',(31.5224610197398,-37.3768117405856,12.0388002453257));
#681=CARTESIAN_POINT('',(31.4,-37.0696780904478,12.0503629239192));
#682=CARTESIAN_POINT('',(31.4000000000011,-36.75,12.0623978637948));
#683=CARTESIAN_POINT('',(31.400000000001,-36.7374598638197,12.0628699630393));
#684=CARTESIAN_POINT('',(31.400000000001,-36.7249197276393,12.0633420622837));
#685=CARTESIAN_POINT('',(31.4000000000009,-36.712379591459,12.0638141615282));
#686=CARTESIAN_POINT('',(65.6000000000009,-36.7499999999995,13.0631062633989));
#687=CARTESIAN_POINT('',(65.6000000000009,-36.7623562455885,13.0626410870944));
#688=CARTESIAN_POINT('',(65.5998170446187,-36.7746937499252,13.0621766163429));
#689=CARTESIAN_POINT('',(65.599452626924,-36.7870088859985,13.0617129876907));
#690=CARTESIAN_POINT('',(65.590044317947,-37.1049533957161,13.0497433120307));
#691=CARTESIAN_POINT('',(65.4596846725536,-37.4079886312857,13.0383349266916));
#692=CARTESIAN_POINT('',(65.2258206136394,-37.6419497227211,13.02952697972));
#693=CARTESIAN_POINT('',(65.2174709470389,-37.6500722368958,13.029221190951));
#694=CARTESIAN_POINT('',(64.9772874167086,-37.8772959802515,13.0206668853188));
#695=CARTESIAN_POINT('',(64.6700101879022,-38.,13.0160474398695));
#696=CARTESIAN_POINT('',(64.35,-38.,13.0160474398695));
#697=CARTESIAN_POINT('',(64.3388898467546,-38.,13.0160474398695));
#698=CARTESIAN_POINT('',(64.3277796935093,-38.,13.0160474398695));
#699=CARTESIAN_POINT('',(64.316669540264,-38.,13.0160474398695));
#700=CARTESIAN_POINT('',(53.772223180088,-38.,13.0160474398695));
#701=CARTESIAN_POINT('',(43.2277768199119,-38.,13.0160474398695));
#702=CARTESIAN_POINT('',(32.6833304597359,-38.,13.0160474398695));
#703=CARTESIAN_POINT('',(32.6722203064906,-38.,13.0160474398695));
#704=CARTESIAN_POINT('',(32.6611101532453,-38.,13.0160474398695));
#705=CARTESIAN_POINT('',(32.65,-38.,13.0160474398695));
#706=CARTESIAN_POINT('',(32.3299898120978,-38.,13.0160474398695));
#707=CARTESIAN_POINT('',(32.0227125832914,-37.8772959802515,13.0206668853188));
#708=CARTESIAN_POINT('',(31.7825290529611,-37.6500722368959,13.029221190951));
#709=CARTESIAN_POINT('',(31.7741793863606,-37.6419497227211,13.02952697972));
#710=CARTESIAN_POINT('',(31.5403153274464,-37.4079886312858,13.0383349266916));
#711=CARTESIAN_POINT('',(31.409955682053,-37.1049533957161,13.0497433120307));
#712=CARTESIAN_POINT('',(31.4005473730776,-36.7870088859989,13.0617129876907));
#713=CARTESIAN_POINT('',(31.400182955383,-36.7746937499257,13.0621766163429));
#714=CARTESIAN_POINT('',(31.4000000000009,-36.762356245589,13.0626410870944));
#715=CARTESIAN_POINT('',(31.4000000000009,-36.75,13.0631062633989));
#716=CARTESIAN_POINT('',(0.,0.,0.));
ENDSEC;
END-ISO-10303-21;
