ISO-10303-21;
HEADER;
/* Generated by software containing ST-Developer
 * from STEP Tools, Inc. (www.steptools.com) 
 */
/* OPTION: using custom schema-name function */

FILE_DESCRIPTION(
/* description */ (''),
/* implementation_level */ '2;1');

FILE_NAME(
/* name */ 'RN4871U_Deckel',
/* time_stamp */ '2026-04-06T16:25:40+02:00',
/* author */ (''),
/* organization */ (''),
/* preprocessor_version */ 'ST-DEVELOPER v19.2',
/* originating_system */ 'Rhino 8.30',
/* authorisation */ '');

FILE_SCHEMA (('CONFIG_CONTROL_DESIGN'));
ENDSEC;

DATA;
#10=SHAPE_REPRESENTATION_RELATIONSHIP('','',#600,#12);
#11=MANIFOLD_SOLID_BREP('brep_1',#13);
#12=ADVANCED_BREP_SHAPE_REPRESENTATION('brep_rep_0',(#11,#647),#599);
#13=CLOSED_SHELL('',(#14,#15,#16,#17,#18,#19,#20,#21,#22,#23,#24,#25,#26,
#27,#28,#29,#30,#31,#32,#33,#34,#35,#36,#37,#38,#39,#40,#41,#42,#43,#44));
#14=ADVANCED_FACE('',(#52,#45),#490,.T.);
#15=ADVANCED_FACE('',(#53),#491,.T.);
#16=ADVANCED_FACE('',(#54),#492,.T.);
#17=ADVANCED_FACE('',(#55),#493,.T.);
#18=ADVANCED_FACE('',(#56),#494,.T.);
#19=ADVANCED_FACE('',(#57),#495,.T.);
#20=ADVANCED_FACE('',(#58),#496,.T.);
#21=ADVANCED_FACE('',(#59,#46),#497,.T.);
#22=ADVANCED_FACE('',(#60),#483,.F.);
#23=ADVANCED_FACE('',(#61),#498,.T.);
#24=ADVANCED_FACE('',(#62),#484,.F.);
#25=ADVANCED_FACE('',(#63),#499,.T.);
#26=ADVANCED_FACE('',(#64),#500,.T.);
#27=ADVANCED_FACE('',(#65),#501,.T.);
#28=ADVANCED_FACE('',(#66),#485,.F.);
#29=ADVANCED_FACE('',(#67,#47),#502,.T.);
#30=ADVANCED_FACE('',(#68,#48),#503,.T.);
#31=ADVANCED_FACE('',(#69),#486,.T.);
#32=ADVANCED_FACE('',(#70),#487,.T.);
#33=ADVANCED_FACE('',(#71),#504,.T.);
#34=ADVANCED_FACE('',(#72),#505,.T.);
#35=ADVANCED_FACE('',(#73),#506,.T.);
#36=ADVANCED_FACE('',(#74),#507,.T.);
#37=ADVANCED_FACE('',(#75),#508,.T.);
#38=ADVANCED_FACE('',(#76,#49),#509,.T.);
#39=ADVANCED_FACE('',(#77),#510,.T.);
#40=ADVANCED_FACE('',(#78),#511,.T.);
#41=ADVANCED_FACE('',(#79,#50),#512,.T.);
#42=ADVANCED_FACE('',(#80),#488,.F.);
#43=ADVANCED_FACE('',(#81,#51),#513,.T.);
#44=ADVANCED_FACE('',(#82),#489,.F.);
#45=FACE_BOUND('',#84,.T.);
#46=FACE_BOUND('',#92,.T.);
#47=FACE_BOUND('',#101,.T.);
#48=FACE_BOUND('',#103,.T.);
#49=FACE_BOUND('',#112,.T.);
#50=FACE_BOUND('',#116,.T.);
#51=FACE_BOUND('',#119,.T.);
#52=FACE_OUTER_BOUND('',#83,.T.);
#53=FACE_OUTER_BOUND('',#85,.T.);
#54=FACE_OUTER_BOUND('',#86,.T.);
#55=FACE_OUTER_BOUND('',#87,.T.);
#56=FACE_OUTER_BOUND('',#88,.T.);
#57=FACE_OUTER_BOUND('',#89,.T.);
#58=FACE_OUTER_BOUND('',#90,.T.);
#59=FACE_OUTER_BOUND('',#91,.T.);
#60=FACE_OUTER_BOUND('',#93,.T.);
#61=FACE_OUTER_BOUND('',#94,.T.);
#62=FACE_OUTER_BOUND('',#95,.T.);
#63=FACE_OUTER_BOUND('',#96,.T.);
#64=FACE_OUTER_BOUND('',#97,.T.);
#65=FACE_OUTER_BOUND('',#98,.T.);
#66=FACE_OUTER_BOUND('',#99,.T.);
#67=FACE_OUTER_BOUND('',#100,.T.);
#68=FACE_OUTER_BOUND('',#102,.T.);
#69=FACE_OUTER_BOUND('',#104,.T.);
#70=FACE_OUTER_BOUND('',#105,.T.);
#71=FACE_OUTER_BOUND('',#106,.T.);
#72=FACE_OUTER_BOUND('',#107,.T.);
#73=FACE_OUTER_BOUND('',#108,.T.);
#74=FACE_OUTER_BOUND('',#109,.T.);
#75=FACE_OUTER_BOUND('',#110,.T.);
#76=FACE_OUTER_BOUND('',#111,.T.);
#77=FACE_OUTER_BOUND('',#113,.T.);
#78=FACE_OUTER_BOUND('',#114,.T.);
#79=FACE_OUTER_BOUND('',#115,.T.);
#80=FACE_OUTER_BOUND('',#117,.T.);
#81=FACE_OUTER_BOUND('',#118,.T.);
#82=FACE_OUTER_BOUND('',#120,.T.);
#83=EDGE_LOOP('',(#121,#122,#123,#124,#125,#126));
#84=EDGE_LOOP('',(#127));
#85=EDGE_LOOP('',(#128,#129,#130,#131));
#86=EDGE_LOOP('',(#132,#133,#134,#135));
#87=EDGE_LOOP('',(#136,#137,#138,#139));
#88=EDGE_LOOP('',(#140,#141,#142,#143));
#89=EDGE_LOOP('',(#144,#145,#146,#147));
#90=EDGE_LOOP('',(#148,#149,#150,#151));
#91=EDGE_LOOP('',(#152,#153,#154,#155));
#92=EDGE_LOOP('',(#156,#157,#158,#159,#160,#161));
#93=EDGE_LOOP('',(#162,#163,#164,#165));
#94=EDGE_LOOP('',(#166,#167,#168,#169));
#95=EDGE_LOOP('',(#170,#171,#172,#173));
#96=EDGE_LOOP('',(#174,#175,#176,#177));
#97=EDGE_LOOP('',(#178,#179,#180,#181));
#98=EDGE_LOOP('',(#182,#183,#184,#185));
#99=EDGE_LOOP('',(#186,#187,#188,#189,#190,#191));
#100=EDGE_LOOP('',(#192,#193,#194,#195));
#101=EDGE_LOOP('',(#196));
#102=EDGE_LOOP('',(#197,#198,#199,#200));
#103=EDGE_LOOP('',(#201));
#104=EDGE_LOOP('',(#202,#203,#204,#205));
#105=EDGE_LOOP('',(#206,#207,#208,#209));
#106=EDGE_LOOP('',(#210,#211,#212,#213));
#107=EDGE_LOOP('',(#214,#215,#216,#217));
#108=EDGE_LOOP('',(#218,#219,#220,#221));
#109=EDGE_LOOP('',(#222,#223,#224,#225));
#110=EDGE_LOOP('',(#226,#227,#228,#229));
#111=EDGE_LOOP('',(#230,#231,#232,#233));
#112=EDGE_LOOP('',(#234,#235,#236,#237));
#113=EDGE_LOOP('',(#238,#239,#240,#241,#242,#243,#244,#245));
#114=EDGE_LOOP('',(#246,#247,#248,#249,#250,#251,#252,#253,#254,#255,#256,
#257));
#115=EDGE_LOOP('',(#258,#259,#260,#261));
#116=EDGE_LOOP('',(#262));
#117=EDGE_LOOP('',(#263,#264,#265,#266));
#118=EDGE_LOOP('',(#267));
#119=EDGE_LOOP('',(#268));
#120=EDGE_LOOP('',(#269,#270,#271,#272));
#121=ORIENTED_EDGE('',*,*,#274,.F.);
#122=ORIENTED_EDGE('',*,*,#278,.F.);
#123=ORIENTED_EDGE('',*,*,#289,.F.);
#124=ORIENTED_EDGE('',*,*,#273,.F.);
#125=ORIENTED_EDGE('',*,*,#286,.F.);
#126=ORIENTED_EDGE('',*,*,#283,.F.);
#127=ORIENTED_EDGE('',*,*,#347,.F.);
#128=ORIENTED_EDGE('',*,*,#278,.T.);
#129=ORIENTED_EDGE('',*,*,#276,.T.);
#130=ORIENTED_EDGE('',*,*,#277,.F.);
#131=ORIENTED_EDGE('',*,*,#275,.T.);
#132=ORIENTED_EDGE('',*,*,#280,.F.);
#133=ORIENTED_EDGE('',*,*,#276,.F.);
#134=ORIENTED_EDGE('',*,*,#274,.T.);
#135=ORIENTED_EDGE('',*,*,#279,.T.);
#136=ORIENTED_EDGE('',*,*,#282,.F.);
#137=ORIENTED_EDGE('',*,*,#279,.F.);
#138=ORIENTED_EDGE('',*,*,#283,.T.);
#139=ORIENTED_EDGE('',*,*,#281,.T.);
#140=ORIENTED_EDGE('',*,*,#285,.F.);
#141=ORIENTED_EDGE('',*,*,#281,.F.);
#142=ORIENTED_EDGE('',*,*,#286,.T.);
#143=ORIENTED_EDGE('',*,*,#284,.T.);
#144=ORIENTED_EDGE('',*,*,#288,.F.);
#145=ORIENTED_EDGE('',*,*,#284,.F.);
#146=ORIENTED_EDGE('',*,*,#273,.T.);
#147=ORIENTED_EDGE('',*,*,#287,.T.);
#148=ORIENTED_EDGE('',*,*,#287,.F.);
#149=ORIENTED_EDGE('',*,*,#289,.T.);
#150=ORIENTED_EDGE('',*,*,#275,.F.);
#151=ORIENTED_EDGE('',*,*,#290,.T.);
#152=ORIENTED_EDGE('',*,*,#339,.T.);
#153=ORIENTED_EDGE('',*,*,#293,.T.);
#154=ORIENTED_EDGE('',*,*,#291,.T.);
#155=ORIENTED_EDGE('',*,*,#292,.T.);
#156=ORIENTED_EDGE('',*,*,#277,.T.);
#157=ORIENTED_EDGE('',*,*,#280,.T.);
#158=ORIENTED_EDGE('',*,*,#282,.T.);
#159=ORIENTED_EDGE('',*,*,#285,.T.);
#160=ORIENTED_EDGE('',*,*,#288,.T.);
#161=ORIENTED_EDGE('',*,*,#290,.F.);
#162=ORIENTED_EDGE('',*,*,#347,.T.);
#163=ORIENTED_EDGE('',*,*,#295,.F.);
#164=ORIENTED_EDGE('',*,*,#294,.T.);
#165=ORIENTED_EDGE('',*,*,#295,.T.);
#166=ORIENTED_EDGE('',*,*,#296,.T.);
#167=ORIENTED_EDGE('',*,*,#297,.T.);
#168=ORIENTED_EDGE('',*,*,#298,.F.);
#169=ORIENTED_EDGE('',*,*,#299,.F.);
#170=ORIENTED_EDGE('',*,*,#300,.T.);
#171=ORIENTED_EDGE('',*,*,#301,.T.);
#172=ORIENTED_EDGE('',*,*,#302,.F.);
#173=ORIENTED_EDGE('',*,*,#297,.F.);
#174=ORIENTED_EDGE('',*,*,#303,.T.);
#175=ORIENTED_EDGE('',*,*,#304,.T.);
#176=ORIENTED_EDGE('',*,*,#305,.F.);
#177=ORIENTED_EDGE('',*,*,#301,.F.);
#178=ORIENTED_EDGE('',*,*,#300,.F.);
#179=ORIENTED_EDGE('',*,*,#296,.F.);
#180=ORIENTED_EDGE('',*,*,#306,.T.);
#181=ORIENTED_EDGE('',*,*,#303,.F.);
#182=ORIENTED_EDGE('',*,*,#305,.T.);
#183=ORIENTED_EDGE('',*,*,#307,.F.);
#184=ORIENTED_EDGE('',*,*,#298,.T.);
#185=ORIENTED_EDGE('',*,*,#302,.T.);
#186=ORIENTED_EDGE('',*,*,#311,.T.);
#187=ORIENTED_EDGE('',*,*,#308,.F.);
#188=ORIENTED_EDGE('',*,*,#315,.T.);
#189=ORIENTED_EDGE('',*,*,#309,.T.);
#190=ORIENTED_EDGE('',*,*,#314,.T.);
#191=ORIENTED_EDGE('',*,*,#310,.T.);
#192=ORIENTED_EDGE('',*,*,#312,.T.);
#193=ORIENTED_EDGE('',*,*,#308,.T.);
#194=ORIENTED_EDGE('',*,*,#340,.T.);
#195=ORIENTED_EDGE('',*,*,#317,.F.);
#196=ORIENTED_EDGE('',*,*,#342,.F.);
#197=ORIENTED_EDGE('',*,*,#338,.F.);
#198=ORIENTED_EDGE('',*,*,#341,.T.);
#199=ORIENTED_EDGE('',*,*,#310,.F.);
#200=ORIENTED_EDGE('',*,*,#313,.T.);
#201=ORIENTED_EDGE('',*,*,#294,.F.);
#202=ORIENTED_EDGE('',*,*,#337,.T.);
#203=ORIENTED_EDGE('',*,*,#338,.T.);
#204=ORIENTED_EDGE('',*,*,#316,.T.);
#205=ORIENTED_EDGE('',*,*,#339,.F.);
#206=ORIENTED_EDGE('',*,*,#336,.T.);
#207=ORIENTED_EDGE('',*,*,#319,.F.);
#208=ORIENTED_EDGE('',*,*,#318,.F.);
#209=ORIENTED_EDGE('',*,*,#317,.T.);
#210=ORIENTED_EDGE('',*,*,#323,.T.);
#211=ORIENTED_EDGE('',*,*,#324,.T.);
#212=ORIENTED_EDGE('',*,*,#325,.T.);
#213=ORIENTED_EDGE('',*,*,#320,.F.);
#214=ORIENTED_EDGE('',*,*,#325,.F.);
#215=ORIENTED_EDGE('',*,*,#326,.T.);
#216=ORIENTED_EDGE('',*,*,#327,.T.);
#217=ORIENTED_EDGE('',*,*,#321,.F.);
#218=ORIENTED_EDGE('',*,*,#327,.F.);
#219=ORIENTED_EDGE('',*,*,#328,.T.);
#220=ORIENTED_EDGE('',*,*,#329,.T.);
#221=ORIENTED_EDGE('',*,*,#309,.F.);
#222=ORIENTED_EDGE('',*,*,#329,.F.);
#223=ORIENTED_EDGE('',*,*,#330,.T.);
#224=ORIENTED_EDGE('',*,*,#323,.F.);
#225=ORIENTED_EDGE('',*,*,#322,.F.);
#226=ORIENTED_EDGE('',*,*,#330,.F.);
#227=ORIENTED_EDGE('',*,*,#328,.F.);
#228=ORIENTED_EDGE('',*,*,#326,.F.);
#229=ORIENTED_EDGE('',*,*,#324,.F.);
#230=ORIENTED_EDGE('',*,*,#331,.T.);
#231=ORIENTED_EDGE('',*,*,#333,.T.);
#232=ORIENTED_EDGE('',*,*,#334,.F.);
#233=ORIENTED_EDGE('',*,*,#291,.F.);
#234=ORIENTED_EDGE('',*,*,#299,.T.);
#235=ORIENTED_EDGE('',*,*,#307,.T.);
#236=ORIENTED_EDGE('',*,*,#304,.F.);
#237=ORIENTED_EDGE('',*,*,#306,.F.);
#238=ORIENTED_EDGE('',*,*,#311,.F.);
#239=ORIENTED_EDGE('',*,*,#341,.F.);
#240=ORIENTED_EDGE('',*,*,#337,.F.);
#241=ORIENTED_EDGE('',*,*,#292,.F.);
#242=ORIENTED_EDGE('',*,*,#334,.T.);
#243=ORIENTED_EDGE('',*,*,#335,.F.);
#244=ORIENTED_EDGE('',*,*,#336,.F.);
#245=ORIENTED_EDGE('',*,*,#340,.F.);
#246=ORIENTED_EDGE('',*,*,#312,.F.);
#247=ORIENTED_EDGE('',*,*,#318,.T.);
#248=ORIENTED_EDGE('',*,*,#332,.F.);
#249=ORIENTED_EDGE('',*,*,#331,.F.);
#250=ORIENTED_EDGE('',*,*,#293,.F.);
#251=ORIENTED_EDGE('',*,*,#316,.F.);
#252=ORIENTED_EDGE('',*,*,#313,.F.);
#253=ORIENTED_EDGE('',*,*,#314,.F.);
#254=ORIENTED_EDGE('',*,*,#322,.T.);
#255=ORIENTED_EDGE('',*,*,#320,.T.);
#256=ORIENTED_EDGE('',*,*,#321,.T.);
#257=ORIENTED_EDGE('',*,*,#315,.F.);
#258=ORIENTED_EDGE('',*,*,#319,.T.);
#259=ORIENTED_EDGE('',*,*,#335,.T.);
#260=ORIENTED_EDGE('',*,*,#333,.F.);
#261=ORIENTED_EDGE('',*,*,#332,.T.);
#262=ORIENTED_EDGE('',*,*,#346,.F.);
#263=ORIENTED_EDGE('',*,*,#342,.T.);
#264=ORIENTED_EDGE('',*,*,#343,.F.);
#265=ORIENTED_EDGE('',*,*,#348,.F.);
#266=ORIENTED_EDGE('',*,*,#343,.T.);
#267=ORIENTED_EDGE('',*,*,#344,.T.);
#268=ORIENTED_EDGE('',*,*,#348,.T.);
#269=ORIENTED_EDGE('',*,*,#345,.T.);
#270=ORIENTED_EDGE('',*,*,#346,.T.);
#271=ORIENTED_EDGE('',*,*,#345,.F.);
#272=ORIENTED_EDGE('',*,*,#344,.F.);
#273=EDGE_CURVE('',#435,#433,#380,.T.);
#274=EDGE_CURVE('',#438,#437,#381,.T.);
#275=EDGE_CURVE('',#439,#434,#382,.T.);
#276=EDGE_CURVE('',#438,#440,#383,.T.);
#277=EDGE_CURVE('',#439,#440,#384,.T.);
#278=EDGE_CURVE('',#434,#438,#385,.T.);
#279=EDGE_CURVE('',#437,#441,#386,.T.);
#280=EDGE_CURVE('',#440,#441,#387,.T.);
#281=EDGE_CURVE('',#436,#442,#388,.T.);
#282=EDGE_CURVE('',#441,#442,#389,.T.);
#283=EDGE_CURVE('',#437,#436,#390,.T.);
#284=EDGE_CURVE('',#435,#443,#391,.T.);
#285=EDGE_CURVE('',#442,#443,#392,.T.);
#286=EDGE_CURVE('',#436,#435,#393,.T.);
#287=EDGE_CURVE('',#433,#444,#394,.T.);
#288=EDGE_CURVE('',#443,#444,#395,.T.);
#289=EDGE_CURVE('',#433,#434,#396,.T.);
#290=EDGE_CURVE('',#439,#444,#397,.T.);
#291=EDGE_CURVE('',#446,#447,#398,.T.);
#292=EDGE_CURVE('',#447,#448,#399,.T.);
#293=EDGE_CURVE('',#445,#446,#400,.T.);
#294=EDGE_CURVE('',#449,#449,#366,.T.);
#295=EDGE_CURVE('',#449,#450,#357,.T.);
#296=EDGE_CURVE('',#452,#453,#401,.T.);
#297=EDGE_CURVE('',#453,#454,#402,.T.);
#298=EDGE_CURVE('',#455,#454,#403,.T.);
#299=EDGE_CURVE('',#452,#455,#404,.T.);
#300=EDGE_CURVE('',#453,#456,#349,.T.);
#301=EDGE_CURVE('',#456,#457,#358,.T.);
#302=EDGE_CURVE('',#454,#457,#350,.T.);
#303=EDGE_CURVE('',#456,#458,#405,.T.);
#304=EDGE_CURVE('',#458,#459,#406,.T.);
#305=EDGE_CURVE('',#457,#459,#407,.T.);
#306=EDGE_CURVE('',#452,#458,#408,.T.);
#307=EDGE_CURVE('',#455,#459,#409,.T.);
#308=EDGE_CURVE('',#460,#465,#351,.T.);
#309=EDGE_CURVE('',#462,#463,#359,.T.);
#310=EDGE_CURVE('',#461,#464,#352,.T.);
#311=EDGE_CURVE('',#464,#465,#410,.T.);
#312=EDGE_CURVE('',#466,#460,#411,.T.);
#313=EDGE_CURVE('',#461,#467,#412,.T.);
#314=EDGE_CURVE('',#463,#461,#360,.T.);
#315=EDGE_CURVE('',#460,#462,#361,.T.);
#316=EDGE_CURVE('',#467,#445,#362,.T.);
#317=EDGE_CURVE('',#466,#477,#353,.T.);
#318=EDGE_CURVE('',#466,#468,#363,.T.);
#319=EDGE_CURVE('',#468,#478,#354,.T.);
#320=EDGE_CURVE('',#469,#470,#413,.T.);
#321=EDGE_CURVE('',#470,#462,#414,.T.);
#322=EDGE_CURVE('',#463,#469,#415,.T.);
#323=EDGE_CURVE('',#469,#471,#416,.T.);
#324=EDGE_CURVE('',#471,#472,#417,.T.);
#325=EDGE_CURVE('',#472,#470,#418,.T.);
#326=EDGE_CURVE('',#472,#473,#419,.T.);
#327=EDGE_CURVE('',#473,#462,#420,.T.);
#328=EDGE_CURVE('',#473,#474,#421,.T.);
#329=EDGE_CURVE('',#474,#463,#422,.T.);
#330=EDGE_CURVE('',#474,#471,#423,.T.);
#331=EDGE_CURVE('',#446,#475,#424,.T.);
#332=EDGE_CURVE('',#475,#468,#425,.T.);
#333=EDGE_CURVE('',#475,#476,#426,.T.);
#334=EDGE_CURVE('',#447,#476,#427,.T.);
#335=EDGE_CURVE('',#478,#476,#428,.T.);
#336=EDGE_CURVE('',#477,#478,#429,.T.);
#337=EDGE_CURVE('',#448,#479,#430,.T.);
#338=EDGE_CURVE('',#479,#467,#355,.T.);
#339=EDGE_CURVE('',#448,#445,#356,.T.);
#340=EDGE_CURVE('',#465,#477,#431,.T.);
#341=EDGE_CURVE('',#479,#464,#432,.T.);
#342=EDGE_CURVE('',#451,#451,#375,.T.);
#343=EDGE_CURVE('',#481,#451,#364,.T.);
#344=EDGE_CURVE('',#482,#482,#376,.T.);
#345=EDGE_CURVE('',#482,#480,#365,.T.);
#346=EDGE_CURVE('',#480,#480,#377,.T.);
#347=EDGE_CURVE('',#450,#450,#378,.T.);
#348=EDGE_CURVE('',#481,#481,#379,.T.);
#349=TRIMMED_CURVE($,#367,(#847),(#848),.T.,.CARTESIAN.);
#350=TRIMMED_CURVE($,#368,(#852),(#853),.T.,.CARTESIAN.);
#351=TRIMMED_CURVE($,#369,(#865),(#866),.T.,.CARTESIAN.);
#352=TRIMMED_CURVE($,#370,(#870),(#871),.T.,.CARTESIAN.);
#353=TRIMMED_CURVE($,#371,(#885),(#886),.T.,.CARTESIAN.);
#354=TRIMMED_CURVE($,#372,(#890),(#891),.T.,.CARTESIAN.);
#355=TRIMMED_CURVE($,#373,(#929),(#930),.T.,.CARTESIAN.);
#356=TRIMMED_CURVE($,#374,(#932),(#933),.T.,.CARTESIAN.);
#357=(
BOUNDED_CURVE()
B_SPLINE_CURVE(1,(#836,#837),.UNSPECIFIED.,.F.,.F.)
B_SPLINE_CURVE_WITH_KNOTS((2,2),(12.9173159473894,15.0673159473924),
 .UNSPECIFIED.)
CURVE()
GEOMETRIC_REPRESENTATION_ITEM()
RATIONAL_B_SPLINE_CURVE((1.,1.))
REPRESENTATION_ITEM('')
);
#358=(
BOUNDED_CURVE()
B_SPLINE_CURVE(1,(#849,#850),.UNSPECIFIED.,.F.,.F.)
B_SPLINE_CURVE_WITH_KNOTS((2,2),(0.,0.899999999999999),.UNSPECIFIED.)
CURVE()
GEOMETRIC_REPRESENTATION_ITEM()
RATIONAL_B_SPLINE_CURVE((1.,1.))
REPRESENTATION_ITEM('')
);
#359=(
BOUNDED_CURVE()
B_SPLINE_CURVE(1,(#867,#868),.UNSPECIFIED.,.F.,.F.)
B_SPLINE_CURVE_WITH_KNOTS((2,2),(0.2,6.49999999999999),.UNSPECIFIED.)
CURVE()
GEOMETRIC_REPRESENTATION_ITEM()
RATIONAL_B_SPLINE_CURVE((1.,1.))
REPRESENTATION_ITEM('')
);
#360=(
BOUNDED_CURVE()
B_SPLINE_CURVE(1,(#878,#879),.UNSPECIFIED.,.F.,.F.)
B_SPLINE_CURVE_WITH_KNOTS((2,2),(6.49999999999999,6.69999999999999),
 .UNSPECIFIED.)
CURVE()
GEOMETRIC_REPRESENTATION_ITEM()
RATIONAL_B_SPLINE_CURVE((1.,1.))
REPRESENTATION_ITEM('')
);
#361=(
BOUNDED_CURVE()
B_SPLINE_CURVE(1,(#880,#881),.UNSPECIFIED.,.F.,.F.)
B_SPLINE_CURVE_WITH_KNOTS((2,2),(0.,0.2),.UNSPECIFIED.)
CURVE()
GEOMETRIC_REPRESENTATION_ITEM()
RATIONAL_B_SPLINE_CURVE((1.,1.))
REPRESENTATION_ITEM('')
);
#362=(
BOUNDED_CURVE()
B_SPLINE_CURVE(1,(#882,#883),.UNSPECIFIED.,.F.,.F.)
B_SPLINE_CURVE_WITH_KNOTS((2,2),(0.,5.15000000000005),.UNSPECIFIED.)
CURVE()
GEOMETRIC_REPRESENTATION_ITEM()
RATIONAL_B_SPLINE_CURVE((1.,1.))
REPRESENTATION_ITEM('')
);
#363=(
BOUNDED_CURVE()
B_SPLINE_CURVE(1,(#887,#888),.UNSPECIFIED.,.F.,.F.)
B_SPLINE_CURVE_WITH_KNOTS((2,2),(0.,5.15000000000007),.UNSPECIFIED.)
CURVE()
GEOMETRIC_REPRESENTATION_ITEM()
RATIONAL_B_SPLINE_CURVE((1.,1.))
REPRESENTATION_ITEM('')
);
#364=(
BOUNDED_CURVE()
B_SPLINE_CURVE(1,(#939,#940),.UNSPECIFIED.,.F.,.F.)
B_SPLINE_CURVE_WITH_KNOTS((2,2),(3.06731594738893,6.21731594738942),
 .UNSPECIFIED.)
CURVE()
GEOMETRIC_REPRESENTATION_ITEM()
RATIONAL_B_SPLINE_CURVE((1.,1.))
REPRESENTATION_ITEM('')
);
#365=(
BOUNDED_CURVE()
B_SPLINE_CURVE(1,(#942,#943),.UNSPECIFIED.,.F.,.F.)
B_SPLINE_CURVE_WITH_KNOTS((2,2),(0.,2.00000000000279),.UNSPECIFIED.)
CURVE()
GEOMETRIC_REPRESENTATION_ITEM()
RATIONAL_B_SPLINE_CURVE((1.,1.))
REPRESENTATION_ITEM('')
);
#366=CIRCLE('',#633,1.6);
#367=CIRCLE('',#634,2.1);
#368=CIRCLE('',#635,2.1);
#369=CIRCLE('',#636,5.92000000000003);
#370=CIRCLE('',#637,5.92000000000001);
#371=CIRCLE('',#638,5.72000000000005);
#372=CIRCLE('',#639,5.72000000000005);
#373=CIRCLE('',#640,5.72000000000005);
#374=CIRCLE('',#641,5.72000000000005);
#375=CIRCLE('',#642,1.6);
#376=CIRCLE('',#643,3.2);
#377=CIRCLE('',#644,3.2);
#378=CIRCLE('',#645,1.6);
#379=CIRCLE('',#646,1.6);
#380=B_SPLINE_CURVE_WITH_KNOTS('',1,(#793,#794),.UNSPECIFIED.,.F.,.F.,(2,
2),(19.0688602868562,22.3311397131439),.UNSPECIFIED.);
#381=B_SPLINE_CURVE_WITH_KNOTS('',1,(#795,#796),.UNSPECIFIED.,.F.,.F.,(2,
2),(5.26886028685616,8.53113971314382),.UNSPECIFIED.);
#382=B_SPLINE_CURVE_WITH_KNOTS('',1,(#797,#798),.UNSPECIFIED.,.F.,.F.,(2,
2),(-2.20000000000146,2.04999999999662),.UNSPECIFIED.);
#383=B_SPLINE_CURVE_WITH_KNOTS('',1,(#799,#800),.UNSPECIFIED.,.F.,.F.,(2,
2),(-2.04999999999662,2.20000000000146),.UNSPECIFIED.);
#384=B_SPLINE_CURVE_WITH_KNOTS('',1,(#801,#802),.UNSPECIFIED.,.F.,.F.,(2,
2),(0.66886028685616,3.93113971314378),.UNSPECIFIED.);
#385=B_SPLINE_CURVE_WITH_KNOTS('',1,(#803,#804),.UNSPECIFIED.,.F.,.F.,(2,
2),(0.668860286856159,3.93113971314379),.UNSPECIFIED.);
#386=B_SPLINE_CURVE_WITH_KNOTS('',1,(#805,#806),.UNSPECIFIED.,.F.,.F.,(2,
2),(-2.04999999999887,2.20000000000034),.UNSPECIFIED.);
#387=B_SPLINE_CURVE_WITH_KNOTS('',1,(#807,#808),.UNSPECIFIED.,.F.,.F.,(2,
2),(5.26886028685617,8.53113971314382),.UNSPECIFIED.);
#388=B_SPLINE_CURVE_WITH_KNOTS('',1,(#809,#810),.UNSPECIFIED.,.F.,.F.,(2,
2),(-2.05,2.19999999999808),.UNSPECIFIED.);
#389=B_SPLINE_CURVE_WITH_KNOTS('',1,(#811,#812),.UNSPECIFIED.,.F.,.F.,(2,
2),(9.86886028685619,13.1311397131439),.UNSPECIFIED.);
#390=B_SPLINE_CURVE_WITH_KNOTS('',1,(#813,#814),.UNSPECIFIED.,.F.,.F.,(2,
2),(9.86886028685618,13.1311397131439),.UNSPECIFIED.);
#391=B_SPLINE_CURVE_WITH_KNOTS('',1,(#815,#816),.UNSPECIFIED.,.F.,.F.,(2,
2),(-2.05,2.19999999999808),.UNSPECIFIED.);
#392=B_SPLINE_CURVE_WITH_KNOTS('',1,(#817,#818),.UNSPECIFIED.,.F.,.F.,(2,
2),(14.4688602868562,17.7311397131438),.UNSPECIFIED.);
#393=B_SPLINE_CURVE_WITH_KNOTS('',1,(#819,#820),.UNSPECIFIED.,.F.,.F.,(2,
2),(14.4688602868562,17.7311397131438),.UNSPECIFIED.);
#394=B_SPLINE_CURVE_WITH_KNOTS('',1,(#821,#822),.UNSPECIFIED.,.F.,.F.,(2,
2),(-2.04999999999887,2.20000000000034),.UNSPECIFIED.);
#395=B_SPLINE_CURVE_WITH_KNOTS('',1,(#823,#824),.UNSPECIFIED.,.F.,.F.,(2,
2),(19.0688602868562,22.3311397131439),.UNSPECIFIED.);
#396=B_SPLINE_CURVE_WITH_KNOTS('',1,(#825,#826),.UNSPECIFIED.,.F.,.F.,(2,
2),(0.,3.26227942628768),.UNSPECIFIED.);
#397=B_SPLINE_CURVE_WITH_KNOTS('',1,(#827,#828),.UNSPECIFIED.,.F.,.F.,(2,
2),(-3.26227942628768,0.),.UNSPECIFIED.);
#398=B_SPLINE_CURVE_WITH_KNOTS('',1,(#829,#830),.UNSPECIFIED.,.F.,.F.,(2,
2),(0.,5.72000000000005),.UNSPECIFIED.);
#399=B_SPLINE_CURVE_WITH_KNOTS('',1,(#831,#832),.UNSPECIFIED.,.F.,.F.,(2,
2),(0.,19.5400000000001),.UNSPECIFIED.);
#400=B_SPLINE_CURVE_WITH_KNOTS('',1,(#833,#834),.UNSPECIFIED.,.F.,.F.,(2,
2),(2.69469567429714,16.5146956742972),.UNSPECIFIED.);
#401=B_SPLINE_CURVE_WITH_KNOTS('',1,(#838,#839),.UNSPECIFIED.,.F.,.F.,(2,
2),(-2.58999999998266,0.),.UNSPECIFIED.);
#402=B_SPLINE_CURVE_WITH_KNOTS('',1,(#840,#841),.UNSPECIFIED.,.F.,.F.,(2,
2),(0.,0.899999999999999),.UNSPECIFIED.);
#403=B_SPLINE_CURVE_WITH_KNOTS('',1,(#842,#843),.UNSPECIFIED.,.F.,.F.,(2,
2),(-2.58999999998266,0.),.UNSPECIFIED.);
#404=B_SPLINE_CURVE_WITH_KNOTS('',1,(#844,#845),.UNSPECIFIED.,.F.,.F.,(2,
2),(0.,0.899999999999999),.UNSPECIFIED.);
#405=B_SPLINE_CURVE_WITH_KNOTS('',1,(#854,#855),.UNSPECIFIED.,.F.,.F.,(2,
2),(6.59734457253857,9.18734457253842),.UNSPECIFIED.);
#406=B_SPLINE_CURVE_WITH_KNOTS('',1,(#856,#857),.UNSPECIFIED.,.F.,.F.,(2,
2),(0.,0.899999999999999),.UNSPECIFIED.);
#407=B_SPLINE_CURVE_WITH_KNOTS('',1,(#858,#859),.UNSPECIFIED.,.F.,.F.,(2,
2),(6.59734457253857,9.18734457253842),.UNSPECIFIED.);
#408=B_SPLINE_CURVE_WITH_KNOTS('',1,(#860,#861),.UNSPECIFIED.,.F.,.F.,(2,
2),(0.,4.2),.UNSPECIFIED.);
#409=B_SPLINE_CURVE_WITH_KNOTS('',1,(#862,#863),.UNSPECIFIED.,.F.,.F.,(2,
2),(0.,4.2),.UNSPECIFIED.);
#410=B_SPLINE_CURVE_WITH_KNOTS('',1,(#872,#873),.UNSPECIFIED.,.F.,.F.,(2,
2),(5.15000000000005,11.85),.UNSPECIFIED.);
#411=B_SPLINE_CURVE_WITH_KNOTS('',1,(#874,#875),.UNSPECIFIED.,.F.,.F.,(2,
2),(-0.199999999999999,-2.34534613952064E-15),.UNSPECIFIED.);
#412=B_SPLINE_CURVE_WITH_KNOTS('',1,(#876,#877),.UNSPECIFIED.,.F.,.F.,(2,
2),(-2.35922392732846E-16,0.2),.UNSPECIFIED.);
#413=B_SPLINE_CURVE_WITH_KNOTS('',1,(#892,#893),.UNSPECIFIED.,.F.,.F.,(2,
2),(0.,6.),.UNSPECIFIED.);
#414=B_SPLINE_CURVE_WITH_KNOTS('',1,(#894,#895),.UNSPECIFIED.,.F.,.F.,(2,
2),(6.,14.),.UNSPECIFIED.);
#415=B_SPLINE_CURVE_WITH_KNOTS('',1,(#896,#897),.UNSPECIFIED.,.F.,.F.,(2,
2),(20.,28.),.UNSPECIFIED.);
#416=B_SPLINE_CURVE_WITH_KNOTS('',1,(#898,#899),.UNSPECIFIED.,.F.,.F.,(2,
2),(0.,1.012465125788),.UNSPECIFIED.);
#417=B_SPLINE_CURVE_WITH_KNOTS('',1,(#900,#901),.UNSPECIFIED.,.F.,.F.,(2,
2),(0.,6.),.UNSPECIFIED.);
#418=B_SPLINE_CURVE_WITH_KNOTS('',1,(#902,#903),.UNSPECIFIED.,.F.,.F.,(2,
2),(-1.012465125788,0.),.UNSPECIFIED.);
#419=B_SPLINE_CURVE_WITH_KNOTS('',1,(#904,#905),.UNSPECIFIED.,.F.,.F.,(2,
2),(6.,14.),.UNSPECIFIED.);
#420=B_SPLINE_CURVE_WITH_KNOTS('',1,(#906,#907),.UNSPECIFIED.,.F.,.F.,(2,
2),(-1.012465125788,0.),.UNSPECIFIED.);
#421=B_SPLINE_CURVE_WITH_KNOTS('',1,(#908,#909),.UNSPECIFIED.,.F.,.F.,(2,
2),(14.,20.),.UNSPECIFIED.);
#422=B_SPLINE_CURVE_WITH_KNOTS('',1,(#910,#911),.UNSPECIFIED.,.F.,.F.,(2,
2),(-1.012465125788,0.),.UNSPECIFIED.);
#423=B_SPLINE_CURVE_WITH_KNOTS('',1,(#912,#913),.UNSPECIFIED.,.F.,.F.,(2,
2),(20.,28.),.UNSPECIFIED.);
#424=B_SPLINE_CURVE_WITH_KNOTS('',1,(#914,#915),.UNSPECIFIED.,.F.,.F.,(2,
2),(0.,17.0000000000001),.UNSPECIFIED.);
#425=B_SPLINE_CURVE_WITH_KNOTS('',1,(#916,#917),.UNSPECIFIED.,.F.,.F.,(2,
2),(0.,13.8200000000001),.UNSPECIFIED.);
#426=B_SPLINE_CURVE_WITH_KNOTS('',1,(#918,#919),.UNSPECIFIED.,.F.,.F.,(2,
2),(0.,5.72000000000005),.UNSPECIFIED.);
#427=B_SPLINE_CURVE_WITH_KNOTS('',1,(#920,#921),.UNSPECIFIED.,.F.,.F.,(2,
2),(0.,17.0000000000001),.UNSPECIFIED.);
#428=B_SPLINE_CURVE_WITH_KNOTS('',1,(#922,#923),.UNSPECIFIED.,.F.,.F.,(2,
2),(0.,19.5400000000001),.UNSPECIFIED.);
#429=B_SPLINE_CURVE_WITH_KNOTS('',1,(#924,#925),.UNSPECIFIED.,.F.,.F.,(2,
2),(11.85,17.0000000000001),.UNSPECIFIED.);
#430=B_SPLINE_CURVE_WITH_KNOTS('',1,(#926,#927),.UNSPECIFIED.,.F.,.F.,(2,
2),(0.,5.15000000000005),.UNSPECIFIED.);
#431=B_SPLINE_CURVE_WITH_KNOTS('',1,(#934,#935),.UNSPECIFIED.,.F.,.F.,(2,
2),(4.39422151015213,5.92000000000005),.UNSPECIFIED.);
#432=B_SPLINE_CURVE_WITH_KNOTS('',1,(#936,#937),.UNSPECIFIED.,.F.,.F.,(2,
2),(0.,1.52577848984792),.UNSPECIFIED.);
#433=VERTEX_POINT('',#743);
#434=VERTEX_POINT('',#744);
#435=VERTEX_POINT('',#745);
#436=VERTEX_POINT('',#746);
#437=VERTEX_POINT('',#747);
#438=VERTEX_POINT('',#748);
#439=VERTEX_POINT('',#749);
#440=VERTEX_POINT('',#750);
#441=VERTEX_POINT('',#751);
#442=VERTEX_POINT('',#752);
#443=VERTEX_POINT('',#753);
#444=VERTEX_POINT('',#754);
#445=VERTEX_POINT('',#755);
#446=VERTEX_POINT('',#756);
#447=VERTEX_POINT('',#757);
#448=VERTEX_POINT('',#758);
#449=VERTEX_POINT('',#759);
#450=VERTEX_POINT('',#760);
#451=VERTEX_POINT('',#761);
#452=VERTEX_POINT('',#762);
#453=VERTEX_POINT('',#763);
#454=VERTEX_POINT('',#764);
#455=VERTEX_POINT('',#765);
#456=VERTEX_POINT('',#766);
#457=VERTEX_POINT('',#767);
#458=VERTEX_POINT('',#768);
#459=VERTEX_POINT('',#769);
#460=VERTEX_POINT('',#770);
#461=VERTEX_POINT('',#771);
#462=VERTEX_POINT('',#772);
#463=VERTEX_POINT('',#773);
#464=VERTEX_POINT('',#774);
#465=VERTEX_POINT('',#775);
#466=VERTEX_POINT('',#776);
#467=VERTEX_POINT('',#777);
#468=VERTEX_POINT('',#778);
#469=VERTEX_POINT('',#779);
#470=VERTEX_POINT('',#780);
#471=VERTEX_POINT('',#781);
#472=VERTEX_POINT('',#782);
#473=VERTEX_POINT('',#783);
#474=VERTEX_POINT('',#784);
#475=VERTEX_POINT('',#785);
#476=VERTEX_POINT('',#786);
#477=VERTEX_POINT('',#787);
#478=VERTEX_POINT('',#788);
#479=VERTEX_POINT('',#789);
#480=VERTEX_POINT('',#790);
#481=VERTEX_POINT('',#791);
#482=VERTEX_POINT('',#792);
#483=CYLINDRICAL_SURFACE('',#610,1.6);
#484=CYLINDRICAL_SURFACE('',#612,2.1);
#485=CYLINDRICAL_SURFACE('',#616,5.92000000000005);
#486=CYLINDRICAL_SURFACE('',#619,5.72000000000005);
#487=CYLINDRICAL_SURFACE('',#620,5.72000000000005);
#488=CYLINDRICAL_SURFACE('',#630,1.6);
#489=CYLINDRICAL_SURFACE('',#632,3.2);
#490=PLANE('',#602);
#491=PLANE('',#603);
#492=PLANE('',#604);
#493=PLANE('',#605);
#494=PLANE('',#606);
#495=PLANE('',#607);
#496=PLANE('',#608);
#497=PLANE('',#609);
#498=PLANE('',#611);
#499=PLANE('',#613);
#500=PLANE('',#614);
#501=PLANE('',#615);
#502=PLANE('',#617);
#503=PLANE('',#618);
#504=PLANE('',#621);
#505=PLANE('',#622);
#506=PLANE('',#623);
#507=PLANE('',#624);
#508=PLANE('',#625);
#509=PLANE('',#626);
#510=PLANE('',#627);
#511=PLANE('',#628);
#512=PLANE('',#629);
#513=PLANE('',#631);
#514=SHAPE_DEFINITION_REPRESENTATION(#515,#600);
#515=PRODUCT_DEFINITION_SHAPE($,$,#517);
#516=PRODUCT_DEFINITION_CONTEXT('3D Mechanical Parts',#589,'design');
#517=PRODUCT_DEFINITION('A','First version',#559,#516);
#518=DATE_TIME_ROLE('classification_date');
#519=DATE_TIME_ROLE('creation_date');
#520=APPLIED_DATE_AND_TIME_ASSIGNMENT(#544,#518,(#523));
#521=APPLIED_DATE_AND_TIME_ASSIGNMENT(#546,#519,(#517));
#522=SECURITY_CLASSIFICATION_LEVEL('unclassified');
#523=SECURITY_CLASSIFICATION('A','Security for version',#522);
#524=APPLIED_SECURITY_CLASSIFICATION_ASSIGNMENT(#523,(#559));
#525=APPROVAL_ROLE('Version approval');
#526=APPROVAL_ROLE('Version Security approval');
#527=APPROVAL_ROLE('Definition approval');
#528=APPROVAL_PERSON_ORGANIZATION(#577,#553,#525);
#529=APPROVAL_PERSON_ORGANIZATION(#578,#554,#526);
#530=APPROVAL_PERSON_ORGANIZATION(#581,#555,#527);
#531=COORDINATED_UNIVERSAL_TIME_OFFSET(5,0,.BEHIND.);
#532=LOCAL_TIME(0,0,0.,#531);
#533=LOCAL_TIME(0,0,0.,#531);
#534=LOCAL_TIME(0,0,0.,#531);
#535=LOCAL_TIME(0,0,0.,#531);
#536=LOCAL_TIME(0,0,0.,#531);
#537=CALENDAR_DATE(1999,1,1);
#538=CALENDAR_DATE(1999,1,1);
#539=CALENDAR_DATE(1999,1,1);
#540=CALENDAR_DATE(1999,1,1);
#541=CALENDAR_DATE(1999,1,1);
#542=DATE_AND_TIME(#537,#532);
#543=DATE_AND_TIME(#538,#533);
#544=DATE_AND_TIME(#539,#534);
#545=DATE_AND_TIME(#540,#535);
#546=DATE_AND_TIME(#541,#536);
#547=APPROVAL_DATE_TIME(#542,#553);
#548=APPROVAL_DATE_TIME(#543,#554);
#549=APPROVAL_DATE_TIME(#545,#555);
#550=APPROVAL_STATUS('not_yet_approved');
#551=APPROVAL_STATUS('not_yet_approved');
#552=APPROVAL_STATUS('approved');
#553=APPROVAL(#550,'Version approval');
#554=APPROVAL(#551,'Version Security approval');
#555=APPROVAL(#552,'Definition approval');
#556=APPLIED_APPROVAL_ASSIGNMENT(#553,(#559));
#557=APPLIED_APPROVAL_ASSIGNMENT(#554,(#523));
#558=APPLIED_APPROVAL_ASSIGNMENT(#555,(#517));
#559=PRODUCT_DEFINITION_FORMATION_WITH_SPECIFIED_SOURCE('A',
'First version',#591,.MADE.);
#560=PERSON_AND_ORGANIZATION_ROLE('design_owner');
#561=PERSON_AND_ORGANIZATION_ROLE('creator');
#562=PERSON_AND_ORGANIZATION_ROLE('design_supplier');
#563=PERSON_AND_ORGANIZATION_ROLE('classification_officer');
#564=PERSON_AND_ORGANIZATION_ROLE('creator');
#565=ORGANIZATION('STI','lab','lab');
#566=ORGANIZATION('STI','unknown','unknown');
#567=ORGANIZATION('STI','unknown','unknown');
#568=ORGANIZATION('STI','unknown','unknown');
#569=ORGANIZATION('STI','unknown','unknown');
#570=ORGANIZATION('STI','unknown','unknown');
#571=ORGANIZATION('STI','unknown','unknown');
#572=PERSON('1','Box','vc60',$,$,$);
#573=PERSON('2','last','first',$,$,$);
#574=PERSON('3','President','Mr.',$,$,$);
#575=PERSON_AND_ORGANIZATION(#572,#565);
#576=PERSON_AND_ORGANIZATION(#573,#566);
#577=PERSON_AND_ORGANIZATION(#574,#567);
#578=PERSON_AND_ORGANIZATION(#574,#568);
#579=PERSON_AND_ORGANIZATION(#574,#569);
#580=PERSON_AND_ORGANIZATION(#573,#570);
#581=PERSON_AND_ORGANIZATION(#574,#571);
#582=APPLIED_PERSON_AND_ORGANIZATION_ASSIGNMENT(#575,#560,(#591));
#583=APPLIED_PERSON_AND_ORGANIZATION_ASSIGNMENT(#576,#561,(#559));
#584=APPLIED_PERSON_AND_ORGANIZATION_ASSIGNMENT(#576,#562,(#559));
#585=APPLIED_PERSON_AND_ORGANIZATION_ASSIGNMENT(#579,#563,(#523));
#586=APPLIED_PERSON_AND_ORGANIZATION_ASSIGNMENT(#580,#564,(#517));
#587=PRODUCT_RELATED_PRODUCT_CATEGORY('detail','detail',(#591));
#588=APPLICATION_PROTOCOL_DEFINITION('International Standard',
'config_control_design',1994,#589);
#589=APPLICATION_CONTEXT(
'configuration controlled 3d designs of mechanical parts and assemblie
s');
#590=PRODUCT_CONTEXT('3D Mechanical Parts',#589,'mechanical');
#591=PRODUCT('Document','Document','',(#590));
#592=(
LENGTH_UNIT()
NAMED_UNIT(*)
SI_UNIT(.MILLI.,.METRE.)
);
#593=(
NAMED_UNIT(*)
PLANE_ANGLE_UNIT()
SI_UNIT($,.RADIAN.)
);
#594=DIMENSIONAL_EXPONENTS(0.,0.,0.,0.,0.,0.,0.);
#595=PLANE_ANGLE_MEASURE_WITH_UNIT(PLANE_ANGLE_MEASURE(0.01745329252),#593);
#596=(
CONVERSION_BASED_UNIT('DEGREES',#595)
NAMED_UNIT(#594)
PLANE_ANGLE_UNIT()
);
#597=(
NAMED_UNIT(*)
SI_UNIT($,.STERADIAN.)
SOLID_ANGLE_UNIT()
);
#598=UNCERTAINTY_MEASURE_WITH_UNIT(LENGTH_MEASURE(0.001),#592,
'DISTANCE_ACCURACY_VALUE',
'Maximum model space distance between geometric entities at asserted c
onnectivities');
#599=(
GEOMETRIC_REPRESENTATION_CONTEXT(3)
GLOBAL_UNCERTAINTY_ASSIGNED_CONTEXT((#598))
GLOBAL_UNIT_ASSIGNED_CONTEXT((#597,#596,#592))
REPRESENTATION_CONTEXT('ID1','3D')
);
#600=SHAPE_REPRESENTATION('Document',(#601,#647),#599);
#601=AXIS2_PLACEMENT_3D($,#711,#648,#649);
#602=AXIS2_PLACEMENT_3D('',#712,#650,$);
#603=AXIS2_PLACEMENT_3D('',#713,#651,$);
#604=AXIS2_PLACEMENT_3D('',#714,#652,$);
#605=AXIS2_PLACEMENT_3D('',#715,#653,$);
#606=AXIS2_PLACEMENT_3D('',#716,#654,$);
#607=AXIS2_PLACEMENT_3D('',#717,#655,$);
#608=AXIS2_PLACEMENT_3D('',#718,#656,$);
#609=AXIS2_PLACEMENT_3D('',#719,#657,$);
#610=AXIS2_PLACEMENT_3D('',#720,#658,$);
#611=AXIS2_PLACEMENT_3D('',#721,#659,$);
#612=AXIS2_PLACEMENT_3D('',#722,#660,$);
#613=AXIS2_PLACEMENT_3D('',#723,#661,$);
#614=AXIS2_PLACEMENT_3D('',#724,#662,$);
#615=AXIS2_PLACEMENT_3D('',#725,#663,$);
#616=AXIS2_PLACEMENT_3D('',#726,#664,$);
#617=AXIS2_PLACEMENT_3D('',#727,#665,$);
#618=AXIS2_PLACEMENT_3D('',#728,#666,$);
#619=AXIS2_PLACEMENT_3D('',#729,#667,$);
#620=AXIS2_PLACEMENT_3D('',#730,#668,$);
#621=AXIS2_PLACEMENT_3D('',#731,#669,$);
#622=AXIS2_PLACEMENT_3D('',#732,#670,$);
#623=AXIS2_PLACEMENT_3D('',#733,#671,$);
#624=AXIS2_PLACEMENT_3D('',#734,#672,$);
#625=AXIS2_PLACEMENT_3D('',#735,#673,$);
#626=AXIS2_PLACEMENT_3D('',#736,#674,$);
#627=AXIS2_PLACEMENT_3D('',#737,#675,$);
#628=AXIS2_PLACEMENT_3D('',#738,#676,$);
#629=AXIS2_PLACEMENT_3D('',#739,#677,$);
#630=AXIS2_PLACEMENT_3D('',#740,#678,$);
#631=AXIS2_PLACEMENT_3D('',#741,#679,$);
#632=AXIS2_PLACEMENT_3D('',#742,#680,$);
#633=AXIS2_PLACEMENT_3D($,#835,#681,#682);
#634=AXIS2_PLACEMENT_3D($,#846,#683,#684);
#635=AXIS2_PLACEMENT_3D($,#851,#685,#686);
#636=AXIS2_PLACEMENT_3D($,#864,#687,#688);
#637=AXIS2_PLACEMENT_3D($,#869,#689,#690);
#638=AXIS2_PLACEMENT_3D($,#884,#691,#692);
#639=AXIS2_PLACEMENT_3D($,#889,#693,#694);
#640=AXIS2_PLACEMENT_3D($,#928,#695,#696);
#641=AXIS2_PLACEMENT_3D($,#931,#697,#698);
#642=AXIS2_PLACEMENT_3D($,#938,#699,#700);
#643=AXIS2_PLACEMENT_3D($,#941,#701,#702);
#644=AXIS2_PLACEMENT_3D($,#944,#703,#704);
#645=AXIS2_PLACEMENT_3D($,#945,#705,#706);
#646=AXIS2_PLACEMENT_3D($,#946,#707,#708);
#647=AXIS2_PLACEMENT_3D($,#947,#709,#710);
#648=DIRECTION('',(0.,0.,1.));
#649=DIRECTION('',(1.,0.,0.));
#650=DIRECTION('',(-1.,0.,0.));
#651=DIRECTION('',(-1.15138118749022E-16,0.866025403784434,0.500000000000007));
#652=DIRECTION('',(0.,0.,1.));
#653=DIRECTION('',(0.,-0.866025403784444,0.49999999999999));
#654=DIRECTION('',(3.1456319031024E-16,-0.866025403784434,-0.500000000000007));
#655=DIRECTION('',(0.,0.,-1.));
#656=DIRECTION('',(-4.63578240466919E-16,0.866025403784445,-0.499999999999989));
#657=DIRECTION('',(-1.,0.,0.));
#658=DIRECTION('',(-1.,2.77555756156289E-16,-2.77555756156289E-16));
#659=DIRECTION('',(-1.,0.,0.));
#660=DIRECTION('',(0.,0.,1.));
#661=DIRECTION('',(1.,0.,0.));
#662=DIRECTION('',(0.,0.,-1.));
#663=DIRECTION('',(0.,0.,1.));
#664=DIRECTION('',(-1.,0.,0.));
#665=DIRECTION('',(-1.,0.,0.));
#666=DIRECTION('',(1.,0.,0.));
#667=DIRECTION('',(-1.,0.,0.));
#668=DIRECTION('',(1.,0.,0.));
#669=DIRECTION('',(3.56741144864434E-17,-0.987688340595138,-0.156434465040231));
#670=DIRECTION('',(0.987688340595138,1.83171741189373E-15,-0.156434465040231));
#671=DIRECTION('',(0.,0.987688340595138,-0.15643446504023));
#672=DIRECTION('',(-0.987688340595138,-6.73425519078578E-17,-0.156434465040231));
#673=DIRECTION('',(0.,0.,-1.));
#674=DIRECTION('',(0.,-1.,0.));
#675=DIRECTION('',(0.,0.,1.));
#676=DIRECTION('',(0.,0.,-1.));
#677=DIRECTION('',(1.,0.,0.));
#678=DIRECTION('',(-1.,2.77555756156289E-16,-2.77555756156289E-16));
#679=DIRECTION('',(1.,0.,0.));
#680=DIRECTION('',(1.,0.,0.));
#681=DIRECTION('',(1.,-2.77555756156289E-16,-2.77555756156289E-16));
#682=DIRECTION('',(2.77555756156289E-16,1.,0.));
#683=DIRECTION('',(0.,0.,1.));
#684=DIRECTION('',(1.,6.34413156928661E-16,0.));
#685=DIRECTION('',(0.,0.,1.));
#686=DIRECTION('',(1.,6.34413156928661E-16,0.));
#687=DIRECTION('',(-1.,7.87172350158008E-16,-7.59997918353623E-16));
#688=DIRECTION('',(-9.0018083077715E-16,-1.,-1.20024110770287E-15));
#689=DIRECTION('',(-1.,-5.46782431157505E-17,3.18596278199411E-18));
#690=DIRECTION('',(5.62613019235721E-17,-1.,-4.20084387696005E-15));
#691=DIRECTION('',(1.,-6.43174033648412E-17,6.43174033648412E-17));
#692=DIRECTION('',(1.55275947500021E-16,-1.,0.));
#693=DIRECTION('',(1.,-1.28634806729682E-16,1.28634806729682E-16));
#694=DIRECTION('',(3.10551895000041E-16,-1.,0.));
#695=DIRECTION('',(-1.,-1.35866454062518E-16,-1.35866454062518E-16));
#696=DIRECTION('',(-1.26161707343767E-16,3.10551895000041E-16,1.));
#697=DIRECTION('',(-1.,-1.74114078797272E-16,1.88381312972515E-17));
#698=DIRECTION('',(0.,3.10551895000041E-16,1.));
#699=DIRECTION('',(-1.,5.55111512312578E-16,-1.66533453693774E-15));
#700=DIRECTION('',(5.5511151231258E-16,1.,-2.22044604925032E-15));
#701=DIRECTION('',(1.,0.,0.));
#702=DIRECTION('',(0.,-1.11022302462516E-15,-1.));
#703=DIRECTION('',(1.,0.,0.));
#704=DIRECTION('',(0.,-1.11022302462516E-15,-1.));
#705=DIRECTION('',(-1.,3.072954309444E-13,3.05408900770606E-13));
#706=DIRECTION('',(3.07254222065011E-13,1.,2.22044604925031E-15));
#707=DIRECTION('',(-1.,-1.66389971566653E-15,-5.56546333583795E-16));
#708=DIRECTION('',(-3.33066907387547E-15,1.,-2.22044604925032E-15));
#709=DIRECTION('',(0.,0.,1.));
#710=DIRECTION('',(1.,0.,0.));
#711=CARTESIAN_POINT('',(0.,0.,0.));
#712=CARTESIAN_POINT('',(-1.79999999999819,18.7620000000002,14.0162831425917));
#713=CARTESIAN_POINT('',(-4.80000000000164,10.4732904302843,18.5792499999999));
#714=CARTESIAN_POINT('',(-4.80000000000085,11.7700000000001,15.1747831425916));
#715=CARTESIAN_POINT('',(-4.79999999999926,15.3667095697158,14.5955331425916));
#716=CARTESIAN_POINT('',(-4.79999999999926,17.6667095697158,17.42075));
#717=CARTESIAN_POINT('',(-4.80000000000085,16.37,20.8252168574084));
#718=CARTESIAN_POINT('',(-4.80000000000065,12.4388602868562,20.8252168574084));
#719=CARTESIAN_POINT('',(-4.80000000000005,-5.47000000000005,23.8344000000001));
#720=CARTESIAN_POINT('',(-1.84881967226366,14.0700000000001,18.));
#721=CARTESIAN_POINT('',(5.8,-5.47000000000005,19.2));
#722=CARTESIAN_POINT('',(3.7,-2.88,18.75));
#723=CARTESIAN_POINT('',(1.6,-2.88,19.2));
#724=CARTESIAN_POINT('',(1.6,-0.78,19.2));
#725=CARTESIAN_POINT('',(1.6,-0.78,18.3));
#726=CARTESIAN_POINT('',(3.69999999999999,14.07,18.));
#727=CARTESIAN_POINT('',(7.04999999999999,8.0316,11.9616));
#728=CARTESIAN_POINT('',(0.349999999999999,8.0316,24.0384));
#729=CARTESIAN_POINT('',(-2.22500000000003,14.07,18.));
#730=CARTESIAN_POINT('',(9.62500000000002,14.07,18.));
#731=CARTESIAN_POINT('',(0.55,-0.15,18.));
#732=CARTESIAN_POINT('',(6.85,-0.15,18.));
#733=CARTESIAN_POINT('',(6.84999999999999,8.15,18.));
#734=CARTESIAN_POINT('',(0.549999999999999,8.15,18.));
#735=CARTESIAN_POINT('',(0.708384440324536,0.00838444032453545,17.));
#736=CARTESIAN_POINT('',(-4.80000000000005,-5.47000000000005,18.));
#737=CARTESIAN_POINT('',(-4.80000000000005,14.07,23.72));
#738=CARTESIAN_POINT('',(-4.80000000000005,-5.47000000000005,18.));
#739=CARTESIAN_POINT('',(12.2000000000001,-5.47000000000006,12.1655999999999));
#740=CARTESIAN_POINT('',(-1.84881967226366,14.0700000000001,18.));
#741=CARTESIAN_POINT('',(10.2000000000025,37.1450000000099,8.11324676317587));
#742=CARTESIAN_POINT('',(11.1999999999987,14.0700000000001,18.));
#743=CARTESIAN_POINT('',(-1.80000000000095,12.4388602868562,20.8252168574084));
#744=CARTESIAN_POINT('',(-1.80000000000164,10.8077205737124,18.));
#745=CARTESIAN_POINT('',(-1.79999999999956,15.7011397131439,20.8252168574084));
#746=CARTESIAN_POINT('',(-1.79999999999886,17.3322794262877,18.));
#747=CARTESIAN_POINT('',(-1.79999999999956,15.7011397131439,15.1747831425916));
#748=CARTESIAN_POINT('',(-1.80000000000095,12.4388602868562,15.1747831425916));
#749=CARTESIAN_POINT('',(-4.80000000000125,10.8077205737124,18.));
#750=CARTESIAN_POINT('',(-4.80000000000065,12.4388602868562,15.1747831425916));
#751=CARTESIAN_POINT('',(-4.79999999999946,15.7011397131439,15.1747831425916));
#752=CARTESIAN_POINT('',(-4.79999999999886,17.3322794262877,18.));
#753=CARTESIAN_POINT('',(-4.79999999999946,15.7011397131439,20.8252168574084));
#754=CARTESIAN_POINT('',(-4.80000000000065,12.4388602868562,20.8252168574084));
#755=CARTESIAN_POINT('',(-4.80000000000005,8.35,18.));
#756=CARTESIAN_POINT('',(-4.80000000000005,-5.47000000000005,18.));
#757=CARTESIAN_POINT('',(-4.80000000000005,-5.47000000000005,23.72));
#758=CARTESIAN_POINT('',(-4.80000000000005,14.07,23.72));
#759=CARTESIAN_POINT('',(0.350000000000001,15.6700000000001,18.));
#760=CARTESIAN_POINT('',(-1.80000000000295,15.6700000000001,18.));
#761=CARTESIAN_POINT('',(7.04999999999999,15.6700000000001,18.));
#762=CARTESIAN_POINT('',(5.8,-5.47000000000005,19.2));
#763=CARTESIAN_POINT('',(5.8,-2.88,19.2));
#764=CARTESIAN_POINT('',(5.8,-2.88,18.3));
#765=CARTESIAN_POINT('',(5.8,-5.47000000000005,18.3));
#766=CARTESIAN_POINT('',(1.6,-2.88,19.2));
#767=CARTESIAN_POINT('',(1.6,-2.88,18.3));
#768=CARTESIAN_POINT('',(1.6,-5.47000000000005,19.2));
#769=CARTESIAN_POINT('',(1.6,-5.47000000000005,18.3));
#770=CARTESIAN_POINT('',(7.04999999999999,8.15,18.));
#771=CARTESIAN_POINT('',(0.349999999999999,8.15,18.));
#772=CARTESIAN_POINT('',(6.84999999999999,8.15,18.));
#773=CARTESIAN_POINT('',(0.549999999999999,8.15,18.));
#774=CARTESIAN_POINT('',(0.349999999999999,12.5442215101792,23.72));
#775=CARTESIAN_POINT('',(7.04999999999999,12.5442215101792,23.72));
#776=CARTESIAN_POINT('',(7.04999999999999,8.35,18.));
#777=CARTESIAN_POINT('',(0.349999999999999,8.35,18.));
#778=CARTESIAN_POINT('',(12.2000000000001,8.35,18.));
#779=CARTESIAN_POINT('',(0.55,-0.15,18.));
#780=CARTESIAN_POINT('',(6.85,-0.15,18.));
#781=CARTESIAN_POINT('',(0.708384440324536,0.00838444032453545,17.));
#782=CARTESIAN_POINT('',(6.69161555967547,0.00838444032453589,17.));
#783=CARTESIAN_POINT('',(6.69161555967545,7.99161555967546,17.));
#784=CARTESIAN_POINT('',(0.708384440324536,7.99161555967546,17.));
#785=CARTESIAN_POINT('',(12.2000000000001,-5.47000000000005,18.));
#786=CARTESIAN_POINT('',(12.2000000000001,-5.47000000000005,23.72));
#787=CARTESIAN_POINT('',(7.04999999999999,14.07,23.72));
#788=CARTESIAN_POINT('',(12.2000000000001,14.07,23.72));
#789=CARTESIAN_POINT('',(0.349999999999997,14.07,23.72));
#790=CARTESIAN_POINT('',(12.1999999999979,14.07,14.8));
#791=CARTESIAN_POINT('',(10.2000000000005,15.6700000000001,18.));
#792=CARTESIAN_POINT('',(10.1999999999973,14.07,14.8));
#793=CARTESIAN_POINT('',(-1.79999999999956,15.7011397131439,20.8252168574084));
#794=CARTESIAN_POINT('',(-1.80000000000095,12.4388602868562,20.8252168574084));
#795=CARTESIAN_POINT('',(-1.80000000000095,12.4388602868562,15.1747831425916));
#796=CARTESIAN_POINT('',(-1.79999999999956,15.7011397131439,15.1747831425916));
#797=CARTESIAN_POINT('',(-4.80000000000125,10.8077205737124,18.));
#798=CARTESIAN_POINT('',(-1.80000000000164,10.8077205737124,18.));
#799=CARTESIAN_POINT('',(-1.80000000000095,12.4388602868562,15.1747831425916));
#800=CARTESIAN_POINT('',(-4.80000000000065,12.4388602868562,15.1747831425916));
#801=CARTESIAN_POINT('',(-4.80000000000125,10.8077205737124,18.));
#802=CARTESIAN_POINT('',(-4.80000000000065,12.4388602868562,15.1747831425916));
#803=CARTESIAN_POINT('',(-1.80000000000164,10.8077205737124,18.));
#804=CARTESIAN_POINT('',(-1.80000000000095,12.4388602868562,15.1747831425916));
#805=CARTESIAN_POINT('',(-1.79999999999956,15.7011397131439,15.1747831425916));
#806=CARTESIAN_POINT('',(-4.79999999999946,15.7011397131439,15.1747831425916));
#807=CARTESIAN_POINT('',(-4.80000000000065,12.4388602868562,15.1747831425916));
#808=CARTESIAN_POINT('',(-4.79999999999946,15.7011397131439,15.1747831425916));
#809=CARTESIAN_POINT('',(-1.79999999999886,17.3322794262877,18.));
#810=CARTESIAN_POINT('',(-4.79999999999886,17.3322794262877,18.));
#811=CARTESIAN_POINT('',(-4.79999999999946,15.7011397131439,15.1747831425916));
#812=CARTESIAN_POINT('',(-4.79999999999886,17.3322794262877,18.));
#813=CARTESIAN_POINT('',(-1.79999999999956,15.7011397131439,15.1747831425916));
#814=CARTESIAN_POINT('',(-1.79999999999886,17.3322794262877,18.));
#815=CARTESIAN_POINT('',(-1.79999999999956,15.7011397131439,20.8252168574084));
#816=CARTESIAN_POINT('',(-4.79999999999946,15.7011397131439,20.8252168574084));
#817=CARTESIAN_POINT('',(-4.79999999999886,17.3322794262877,18.));
#818=CARTESIAN_POINT('',(-4.79999999999946,15.7011397131439,20.8252168574084));
#819=CARTESIAN_POINT('',(-1.79999999999886,17.3322794262877,18.));
#820=CARTESIAN_POINT('',(-1.79999999999956,15.7011397131439,20.8252168574084));
#821=CARTESIAN_POINT('',(-1.80000000000095,12.4388602868562,20.8252168574084));
#822=CARTESIAN_POINT('',(-4.80000000000065,12.4388602868562,20.8252168574084));
#823=CARTESIAN_POINT('',(-4.79999999999946,15.7011397131439,20.8252168574084));
#824=CARTESIAN_POINT('',(-4.80000000000065,12.4388602868562,20.8252168574084));
#825=CARTESIAN_POINT('',(-1.80000000000095,12.4388602868562,20.8252168574084));
#826=CARTESIAN_POINT('',(-1.80000000000164,10.8077205737124,18.));
#827=CARTESIAN_POINT('',(-4.80000000000125,10.8077205737124,18.));
#828=CARTESIAN_POINT('',(-4.80000000000065,12.4388602868562,20.8252168574084));
#829=CARTESIAN_POINT('',(-4.80000000000005,-5.47000000000005,18.));
#830=CARTESIAN_POINT('',(-4.80000000000005,-5.47000000000005,23.72));
#831=CARTESIAN_POINT('',(-4.80000000000005,-5.47000000000005,23.72));
#832=CARTESIAN_POINT('',(-4.80000000000005,14.07,23.72));
#833=CARTESIAN_POINT('',(-4.80000000000005,8.35,18.));
#834=CARTESIAN_POINT('',(-4.80000000000005,-5.47000000000005,18.));
#835=CARTESIAN_POINT('',(0.349999999999998,14.0700000000001,18.));
#836=CARTESIAN_POINT('',(0.350000000000001,15.6700000000001,18.));
#837=CARTESIAN_POINT('',(-1.80000000000295,15.6700000000001,18.));
#838=CARTESIAN_POINT('',(5.8,-5.47000000000005,19.2));
#839=CARTESIAN_POINT('',(5.8,-2.88,19.2));
#840=CARTESIAN_POINT('',(5.8,-2.88,19.2));
#841=CARTESIAN_POINT('',(5.8,-2.88,18.3));
#842=CARTESIAN_POINT('',(5.8,-5.47000000000005,18.3));
#843=CARTESIAN_POINT('',(5.8,-2.88,18.3));
#844=CARTESIAN_POINT('',(5.8,-5.47000000000005,19.2));
#845=CARTESIAN_POINT('',(5.8,-5.47000000000005,18.3));
#846=CARTESIAN_POINT('',(3.7,-2.88,19.2));
#847=CARTESIAN_POINT('',(5.8,-2.88,19.2));
#848=CARTESIAN_POINT('',(1.6,-2.88,19.2));
#849=CARTESIAN_POINT('',(1.6,-2.88,19.2));
#850=CARTESIAN_POINT('',(1.6,-2.88,18.3));
#851=CARTESIAN_POINT('',(3.7,-2.88,18.3));
#852=CARTESIAN_POINT('',(5.8,-2.88,18.3));
#853=CARTESIAN_POINT('',(1.6,-2.88,18.3));
#854=CARTESIAN_POINT('',(1.6,-2.88,19.2));
#855=CARTESIAN_POINT('',(1.6,-5.47000000000005,19.2));
#856=CARTESIAN_POINT('',(1.6,-5.47000000000005,19.2));
#857=CARTESIAN_POINT('',(1.6,-5.47000000000005,18.3));
#858=CARTESIAN_POINT('',(1.6,-2.88,18.3));
#859=CARTESIAN_POINT('',(1.6,-5.47000000000005,18.3));
#860=CARTESIAN_POINT('',(5.8,-5.47000000000005,19.2));
#861=CARTESIAN_POINT('',(1.6,-5.47000000000005,19.2));
#862=CARTESIAN_POINT('',(5.8,-5.47000000000005,18.3));
#863=CARTESIAN_POINT('',(1.6,-5.47000000000005,18.3));
#864=CARTESIAN_POINT('',(7.04999999999999,14.07,18.));
#865=CARTESIAN_POINT('',(7.04999999999999,8.15,18.));
#866=CARTESIAN_POINT('',(7.04999999999999,12.5442215101792,23.72));
#867=CARTESIAN_POINT('',(6.84999999999999,8.15,18.));
#868=CARTESIAN_POINT('',(0.549999999999999,8.15,18.));
#869=CARTESIAN_POINT('',(0.349999999999998,14.07,18.));
#870=CARTESIAN_POINT('',(0.349999999999999,8.15,18.));
#871=CARTESIAN_POINT('',(0.349999999999999,12.5442215101792,23.72));
#872=CARTESIAN_POINT('',(0.349999999999999,12.5442215101792,23.72));
#873=CARTESIAN_POINT('',(7.04999999999999,12.5442215101792,23.72));
#874=CARTESIAN_POINT('',(7.04999999999999,8.35,18.));
#875=CARTESIAN_POINT('',(7.04999999999999,8.15,18.));
#876=CARTESIAN_POINT('',(0.349999999999999,8.15,18.));
#877=CARTESIAN_POINT('',(0.349999999999999,8.35,18.));
#878=CARTESIAN_POINT('',(0.549999999999999,8.15,18.));
#879=CARTESIAN_POINT('',(0.349999999999999,8.15,18.));
#880=CARTESIAN_POINT('',(7.04999999999999,8.15,18.));
#881=CARTESIAN_POINT('',(6.84999999999999,8.15,18.));
#882=CARTESIAN_POINT('',(0.349999999999999,8.35,18.));
#883=CARTESIAN_POINT('',(-4.80000000000005,8.35,18.));
#884=CARTESIAN_POINT('',(7.04999999999999,14.07,18.));
#885=CARTESIAN_POINT('',(7.04999999999999,8.35,18.));
#886=CARTESIAN_POINT('',(7.04999999999999,14.07,23.72));
#887=CARTESIAN_POINT('',(7.04999999999999,8.35,18.));
#888=CARTESIAN_POINT('',(12.2000000000001,8.35,18.));
#889=CARTESIAN_POINT('',(12.2000000000001,14.07,18.));
#890=CARTESIAN_POINT('',(12.2000000000001,8.35,18.));
#891=CARTESIAN_POINT('',(12.2000000000001,14.07,23.72));
#892=CARTESIAN_POINT('',(0.55,-0.15,18.));
#893=CARTESIAN_POINT('',(6.85,-0.15,18.));
#894=CARTESIAN_POINT('',(6.85,-0.15,18.));
#895=CARTESIAN_POINT('',(6.84999999999999,8.15,18.));
#896=CARTESIAN_POINT('',(0.549999999999999,8.15,18.));
#897=CARTESIAN_POINT('',(0.55,-0.15,18.));
#898=CARTESIAN_POINT('',(0.55,-0.15,18.));
#899=CARTESIAN_POINT('',(0.708384440324536,0.00838444032453545,17.));
#900=CARTESIAN_POINT('',(0.708384440324536,0.00838444032453545,17.));
#901=CARTESIAN_POINT('',(6.69161555967547,0.00838444032453589,17.));
#902=CARTESIAN_POINT('',(6.69161555967547,0.00838444032453589,17.));
#903=CARTESIAN_POINT('',(6.85,-0.15,18.));
#904=CARTESIAN_POINT('',(6.69161555967547,0.00838444032453589,17.));
#905=CARTESIAN_POINT('',(6.69161555967545,7.99161555967546,17.));
#906=CARTESIAN_POINT('',(6.69161555967545,7.99161555967546,17.));
#907=CARTESIAN_POINT('',(6.84999999999999,8.15,18.));
#908=CARTESIAN_POINT('',(6.69161555967545,7.99161555967546,17.));
#909=CARTESIAN_POINT('',(0.708384440324536,7.99161555967546,17.));
#910=CARTESIAN_POINT('',(0.708384440324536,7.99161555967546,17.));
#911=CARTESIAN_POINT('',(0.549999999999999,8.15,18.));
#912=CARTESIAN_POINT('',(0.708384440324536,7.99161555967546,17.));
#913=CARTESIAN_POINT('',(0.708384440324536,0.00838444032453545,17.));
#914=CARTESIAN_POINT('',(-4.80000000000005,-5.47000000000005,18.));
#915=CARTESIAN_POINT('',(12.2000000000001,-5.47000000000005,18.));
#916=CARTESIAN_POINT('',(12.2000000000001,-5.47000000000005,18.));
#917=CARTESIAN_POINT('',(12.2000000000001,8.35,18.));
#918=CARTESIAN_POINT('',(12.2000000000001,-5.47000000000005,18.));
#919=CARTESIAN_POINT('',(12.2000000000001,-5.47000000000005,23.72));
#920=CARTESIAN_POINT('',(-4.80000000000005,-5.47000000000005,23.72));
#921=CARTESIAN_POINT('',(12.2000000000001,-5.47000000000005,23.72));
#922=CARTESIAN_POINT('',(12.2000000000001,14.07,23.72));
#923=CARTESIAN_POINT('',(12.2000000000001,-5.47000000000005,23.72));
#924=CARTESIAN_POINT('',(7.04999999999999,14.07,23.72));
#925=CARTESIAN_POINT('',(12.2000000000001,14.07,23.72));
#926=CARTESIAN_POINT('',(-4.80000000000005,14.07,23.72));
#927=CARTESIAN_POINT('',(0.349999999999997,14.07,23.72));
#928=CARTESIAN_POINT('',(0.349999999999998,14.07,18.));
#929=CARTESIAN_POINT('',(0.349999999999997,14.07,23.72));
#930=CARTESIAN_POINT('',(0.349999999999999,8.35,18.));
#931=CARTESIAN_POINT('',(-4.80000000000005,14.07,18.));
#932=CARTESIAN_POINT('',(-4.80000000000005,14.07,23.72));
#933=CARTESIAN_POINT('',(-4.80000000000005,8.34999999999999,18.));
#934=CARTESIAN_POINT('',(7.04999999999999,12.5442215101792,23.72));
#935=CARTESIAN_POINT('',(7.04999999999999,14.07,23.72));
#936=CARTESIAN_POINT('',(0.349999999999997,14.07,23.72));
#937=CARTESIAN_POINT('',(0.349999999999999,12.5442215101792,23.72));
#938=CARTESIAN_POINT('',(7.04999999999999,14.0700000000001,18.));
#939=CARTESIAN_POINT('',(10.2000000000005,15.6700000000001,18.));
#940=CARTESIAN_POINT('',(7.04999999999999,15.6700000000001,18.));
#941=CARTESIAN_POINT('',(10.1999999999973,14.0700000000001,18.));
#942=CARTESIAN_POINT('',(10.1999999999973,14.07,14.8));
#943=CARTESIAN_POINT('',(12.1999999999979,14.07,14.8));
#944=CARTESIAN_POINT('',(12.2000000000001,14.0700000000001,18.));
#945=CARTESIAN_POINT('',(-1.80000000000344,14.0700000000001,18.));
#946=CARTESIAN_POINT('',(10.2000000000005,14.0700000000001,18.));
#947=CARTESIAN_POINT('',(0.,0.,0.));
ENDSEC;
END-ISO-10303-21;
